G75*
%MOIN*%
%OFA0B0*%
%FSLAX25Y25*%
%IPPOS*%
%LPD*%
%AMOC8*
5,1,8,0,0,1.08239X$1,22.5*
%
%ADD10R,0.07098X0.06299*%
%ADD11R,0.10000X0.05000*%
%ADD12R,0.06299X0.07098*%
%ADD13R,0.06299X0.07087*%
%ADD14R,0.02000X0.05800*%
%ADD15R,0.05800X0.02000*%
%ADD16R,0.07100X0.05500*%
%ADD17R,0.07087X0.06299*%
D10*
X0626000Y0707402D03*
X0626000Y0718598D03*
D11*
X0656157Y0718614D03*
X0656157Y0710307D03*
D12*
X0335402Y0635000D03*
X0346598Y0635000D03*
X0345598Y0651000D03*
X0334402Y0651000D03*
X0416402Y0684000D03*
X0427598Y0684000D03*
X0447402Y0664000D03*
X0458598Y0664000D03*
D13*
X0427512Y0664000D03*
X0416488Y0664000D03*
D14*
X0464000Y0698800D03*
X0467100Y0698800D03*
X0470300Y0698800D03*
X0473400Y0698800D03*
X0476600Y0698800D03*
X0479700Y0698800D03*
X0482900Y0698800D03*
X0486000Y0698800D03*
X0486000Y0731200D03*
X0482900Y0731200D03*
X0479700Y0731200D03*
X0476600Y0731200D03*
X0473400Y0731200D03*
X0470300Y0731200D03*
X0467100Y0731200D03*
X0464000Y0731200D03*
D15*
X0458800Y0726000D03*
X0458800Y0722900D03*
X0458800Y0719700D03*
X0458800Y0716600D03*
X0458800Y0713400D03*
X0458800Y0710300D03*
X0458800Y0707100D03*
X0458800Y0704000D03*
X0491200Y0704000D03*
X0491200Y0707100D03*
X0491200Y0710300D03*
X0491200Y0713400D03*
X0491200Y0716600D03*
X0491200Y0719700D03*
X0491200Y0722900D03*
X0491200Y0726000D03*
D16*
X0493350Y0668700D03*
X0493350Y0659300D03*
X0510650Y0659300D03*
X0510650Y0668700D03*
D17*
X0438000Y0721488D03*
X0438000Y0732512D03*
M02*
