G75*
%MOIN*%
%OFA0B0*%
%FSLAX25Y25*%
%IPPOS*%
%LPD*%
%AMOC8*
5,1,8,0,0,1.08239X$1,22.5*
%
%ADD10R,0.06299X0.07098*%
%ADD11R,0.10000X0.05000*%
%ADD12R,0.06299X0.07087*%
%ADD13R,0.02000X0.05800*%
%ADD14R,0.05800X0.02000*%
%ADD15R,0.07100X0.05500*%
%ADD16R,0.07087X0.06299*%
%ADD17R,0.01575X0.06890*%
%ADD18R,0.07098X0.06299*%
%ADD19R,0.02100X0.04724*%
%ADD20R,0.02165X0.04724*%
%ADD21R,0.02200X0.06100*%
D10*
X0050626Y0272496D03*
X0061823Y0272496D03*
X0061823Y0288244D03*
X0050626Y0288244D03*
X0050626Y0303992D03*
X0061823Y0303992D03*
X0172673Y0339425D03*
X0183870Y0339425D03*
X0389209Y0359110D03*
X0400406Y0359110D03*
D11*
X0392839Y0332417D03*
X0392839Y0324110D03*
D12*
X0183783Y0319740D03*
X0172760Y0319740D03*
X0085358Y0303992D03*
X0074335Y0303992D03*
X0074335Y0288244D03*
X0085358Y0288244D03*
D13*
X0222390Y0335036D03*
X0225490Y0335036D03*
X0228690Y0335036D03*
X0231790Y0335036D03*
X0234990Y0335036D03*
X0238090Y0335036D03*
X0241290Y0335036D03*
X0244390Y0335036D03*
X0244390Y0367436D03*
X0241290Y0367436D03*
X0238090Y0367436D03*
X0234990Y0367436D03*
X0231790Y0367436D03*
X0228690Y0367436D03*
X0225490Y0367436D03*
X0222390Y0367436D03*
D14*
X0217190Y0362236D03*
X0217190Y0359136D03*
X0217190Y0355936D03*
X0217190Y0352836D03*
X0217190Y0349636D03*
X0217190Y0346536D03*
X0217190Y0343336D03*
X0217190Y0340236D03*
X0249590Y0340236D03*
X0249590Y0343336D03*
X0249590Y0346536D03*
X0249590Y0349636D03*
X0249590Y0352836D03*
X0249590Y0355936D03*
X0249590Y0359136D03*
X0249590Y0362236D03*
D15*
X0256236Y0308692D03*
X0256236Y0299292D03*
X0273536Y0299292D03*
X0273536Y0308692D03*
D16*
X0298350Y0306354D03*
X0298350Y0317378D03*
X0245201Y0289819D03*
X0245201Y0278795D03*
X0178272Y0357535D03*
X0178272Y0368559D03*
D17*
X0090021Y0265515D03*
X0092580Y0265515D03*
X0095139Y0265515D03*
X0097698Y0265515D03*
X0100257Y0265515D03*
D18*
X0119217Y0278709D03*
X0119217Y0289906D03*
X0103469Y0302331D03*
X0103469Y0313528D03*
D19*
X0104059Y0279189D03*
X0100319Y0279189D03*
X0096579Y0279189D03*
D20*
X0096579Y0289425D03*
X0104059Y0289425D03*
D21*
X0137898Y0405946D03*
X0142898Y0405946D03*
X0147898Y0405946D03*
X0152898Y0405946D03*
X0152898Y0427046D03*
X0147898Y0427046D03*
X0142898Y0427046D03*
X0137898Y0427046D03*
M02*
