G75*
%MOIN*%
%OFA0B0*%
%FSLAX25Y25*%
%IPPOS*%
%LPD*%
%AMOC8*
5,1,8,0,0,1.08239X$1,22.5*
%
%ADD10C,0.14816*%
%ADD11C,0.14737*%
%ADD12C,0.06737*%
%ADD13C,0.05950*%
%ADD14R,0.07800X0.07800*%
%ADD15R,0.10800X0.10800*%
%ADD16C,0.04146*%
%ADD17OC8,0.07400*%
%ADD18C,0.06800*%
%ADD19OC8,0.06800*%
%ADD20C,0.06800*%
%ADD21OC8,0.06737*%
%ADD22C,0.06737*%
%ADD23C,0.03778*%
D10*
X0056224Y0256748D03*
X0138228Y0256748D03*
X0138299Y0444591D03*
X0056224Y0445724D03*
X0363311Y0256748D03*
D11*
X0363311Y0445724D03*
D12*
X0150965Y0309051D02*
X0150965Y0303114D01*
X0150965Y0283461D02*
X0150965Y0277524D01*
X0133248Y0277524D02*
X0133248Y0283461D01*
X0133248Y0303114D02*
X0133248Y0309051D01*
D13*
X0155323Y0261303D02*
X0155323Y0256154D01*
X0165323Y0256154D02*
X0165323Y0261303D01*
X0175323Y0261303D02*
X0175323Y0256154D01*
X0185323Y0256154D02*
X0185323Y0261303D01*
X0195323Y0261303D02*
X0195323Y0256154D01*
X0205323Y0256154D02*
X0205323Y0261303D01*
X0215323Y0261303D02*
X0215323Y0256154D01*
X0225323Y0256154D02*
X0225323Y0261303D01*
X0235323Y0261303D02*
X0235323Y0256154D01*
X0245323Y0256154D02*
X0245323Y0261303D01*
X0255323Y0261303D02*
X0255323Y0256154D01*
X0265323Y0256154D02*
X0265323Y0261303D01*
X0275323Y0261303D02*
X0275323Y0256154D01*
X0285323Y0256154D02*
X0285323Y0261303D01*
X0295323Y0261303D02*
X0295323Y0256154D01*
X0305323Y0256154D02*
X0305323Y0261303D01*
X0315323Y0261303D02*
X0315323Y0256154D01*
X0325323Y0256154D02*
X0325323Y0261303D01*
X0335323Y0261303D02*
X0335323Y0256154D01*
X0345323Y0256154D02*
X0345323Y0261303D01*
X0345323Y0443154D02*
X0345323Y0448303D01*
X0335323Y0448303D02*
X0335323Y0443154D01*
X0325323Y0443154D02*
X0325323Y0448303D01*
X0315323Y0448303D02*
X0315323Y0443154D01*
X0305323Y0443154D02*
X0305323Y0448303D01*
X0295323Y0448303D02*
X0295323Y0443154D01*
X0285323Y0443154D02*
X0285323Y0448303D01*
X0275323Y0448303D02*
X0275323Y0443154D01*
X0265323Y0443154D02*
X0265323Y0448303D01*
X0255323Y0448303D02*
X0255323Y0443154D01*
X0245323Y0443154D02*
X0245323Y0448303D01*
X0235323Y0448303D02*
X0235323Y0443154D01*
X0225323Y0443154D02*
X0225323Y0448303D01*
X0215323Y0448303D02*
X0215323Y0443154D01*
X0205323Y0443154D02*
X0205323Y0448303D01*
X0195323Y0448303D02*
X0195323Y0443154D01*
X0185323Y0443154D02*
X0185323Y0448303D01*
X0175323Y0448303D02*
X0175323Y0443154D01*
X0165323Y0443154D02*
X0165323Y0448303D01*
D14*
X0155323Y0445728D03*
D15*
X0111380Y0254393D03*
X0078899Y0253999D03*
D16*
X0086380Y0266322D03*
X0103899Y0266322D03*
D17*
X0108469Y0436787D03*
X0116343Y0436787D03*
D18*
X0356439Y0427000D03*
D19*
X0366439Y0427000D03*
X0366439Y0417000D03*
X0356439Y0417000D03*
X0356439Y0407000D03*
X0366439Y0407000D03*
X0296264Y0417102D03*
X0286264Y0417102D03*
X0276264Y0417102D03*
X0266264Y0417102D03*
X0256264Y0417102D03*
X0246264Y0417102D03*
X0236264Y0417102D03*
X0226264Y0417102D03*
X0216264Y0417102D03*
X0206264Y0417102D03*
X0196264Y0417102D03*
X0186264Y0417102D03*
X0186264Y0427102D03*
X0196264Y0427102D03*
X0206264Y0427102D03*
X0216264Y0427102D03*
X0226264Y0427102D03*
X0236264Y0427102D03*
X0246264Y0427102D03*
X0256264Y0427102D03*
X0266264Y0427102D03*
X0276264Y0427102D03*
X0286264Y0427102D03*
X0296264Y0427102D03*
D20*
X0356139Y0328400D02*
X0362139Y0328400D01*
X0362139Y0318400D02*
X0356139Y0318400D01*
X0356139Y0308400D02*
X0362139Y0308400D01*
X0362139Y0298400D02*
X0356139Y0298400D01*
X0356139Y0288400D02*
X0362139Y0288400D01*
X0362139Y0278400D02*
X0356139Y0278400D01*
D21*
X0122602Y0335402D03*
X0122602Y0345402D03*
X0122602Y0355402D03*
X0122602Y0365402D03*
X0122602Y0375402D03*
X0122602Y0385402D03*
X0122602Y0395402D03*
X0122602Y0405402D03*
D22*
X0075717Y0425874D03*
X0065874Y0425874D03*
X0056031Y0425874D03*
D23*
X0219839Y0248600D03*
X0225439Y0272000D03*
X0225139Y0277700D03*
X0215439Y0277200D03*
X0205239Y0284300D03*
X0205139Y0290300D03*
X0200639Y0294900D03*
X0195339Y0290800D03*
X0185339Y0296400D03*
X0172539Y0309000D03*
X0186039Y0326500D03*
X0194639Y0319900D03*
X0206239Y0326200D03*
X0210739Y0331300D03*
X0219839Y0326200D03*
X0222388Y0328711D03*
X0215539Y0316500D03*
X0212439Y0310800D03*
X0235139Y0317900D03*
X0238039Y0326400D03*
X0244439Y0320500D03*
X0248639Y0325700D03*
X0248639Y0315200D03*
X0262539Y0293000D03*
X0255239Y0291000D03*
X0265239Y0277800D03*
X0275239Y0284400D03*
X0284439Y0289100D03*
X0292939Y0284400D03*
X0304139Y0271600D03*
X0309939Y0277500D03*
X0321539Y0293500D03*
X0329639Y0308500D03*
X0318539Y0325500D03*
X0329539Y0331300D03*
X0339939Y0328500D03*
X0314539Y0340000D03*
X0304139Y0352800D03*
X0309939Y0356000D03*
X0299039Y0343500D03*
X0295039Y0346500D03*
X0291539Y0349500D03*
X0292939Y0340100D03*
X0298350Y0325252D03*
X0283039Y0306600D03*
X0288039Y0301800D03*
X0272139Y0319500D03*
X0271639Y0325700D03*
X0260239Y0340100D03*
X0262539Y0343500D03*
X0257539Y0346500D03*
X0255039Y0349500D03*
X0259839Y0352800D03*
X0255739Y0356000D03*
X0258439Y0362200D03*
X0271239Y0370500D03*
X0279639Y0376800D03*
X0288039Y0362200D03*
X0259539Y0395500D03*
X0256039Y0397411D03*
X0247539Y0380811D03*
X0246939Y0376800D03*
X0241339Y0376800D03*
X0241139Y0383400D03*
X0240039Y0388500D03*
X0233939Y0376900D03*
X0230039Y0374000D03*
X0227539Y0393000D03*
X0224539Y0396000D03*
X0218539Y0391000D03*
X0208039Y0391000D03*
X0206039Y0394500D03*
X0205039Y0387500D03*
X0196539Y0389000D03*
X0198039Y0380000D03*
X0190539Y0374000D03*
X0186039Y0382911D03*
X0180439Y0376900D03*
X0166039Y0394000D03*
X0158039Y0404500D03*
X0178039Y0422000D03*
X0162039Y0432500D03*
X0191539Y0400000D03*
X0196539Y0403500D03*
X0199128Y0408500D03*
X0211039Y0434000D03*
X0196039Y0436500D03*
X0226539Y0406089D03*
X0236539Y0408000D03*
X0271539Y0408500D03*
X0295039Y0400000D03*
X0299039Y0403500D03*
X0318539Y0423000D03*
X0321539Y0431500D03*
X0310039Y0435500D03*
X0301039Y0438089D03*
X0270039Y0455000D03*
X0345201Y0416984D03*
X0370439Y0383200D03*
X0359739Y0370500D03*
X0349138Y0365016D03*
X0345201Y0378008D03*
X0392539Y0312500D03*
X0339939Y0250600D03*
X0350339Y0248100D03*
X0210639Y0343300D03*
X0206239Y0346500D03*
X0210639Y0349700D03*
X0206539Y0353000D03*
X0203070Y0356969D03*
X0197928Y0360000D03*
X0195339Y0352900D03*
X0190439Y0349700D03*
X0186539Y0348000D03*
X0198039Y0346500D03*
X0211039Y0356000D03*
X0211039Y0365500D03*
X0208039Y0370000D03*
X0156039Y0334911D03*
X0143439Y0337500D03*
X0131039Y0319000D03*
X0119239Y0301300D03*
X0104039Y0294500D03*
X0096539Y0301300D03*
X0090039Y0294500D03*
X0085339Y0282100D03*
X0096539Y0273400D03*
X0110439Y0282100D03*
X0092139Y0310600D03*
X0074339Y0310600D03*
X0067739Y0295400D03*
X0067639Y0278400D03*
X0050539Y0295400D03*
X0110539Y0345500D03*
X0130539Y0360500D03*
X0151039Y0361000D03*
X0130539Y0385500D03*
X0110539Y0377000D03*
X0126539Y0416000D03*
X0163039Y0273000D03*
M02*
