G75*
%MOIN*%
%OFA0B0*%
%FSLAX25Y25*%
%IPPOS*%
%LPD*%
%AMOC8*
5,1,8,0,0,1.08239X$1,22.5*
%
%ADD10C,0.00400*%
D10*
X0085042Y0354625D02*
X0085042Y0357692D01*
X0084915Y0358970D02*
X0085170Y0358970D01*
X0085170Y0359225D01*
X0084915Y0359225D01*
X0084915Y0358970D01*
X0086667Y0357692D02*
X0088711Y0356159D01*
X0087817Y0356797D02*
X0086667Y0354625D01*
X0088711Y0354625D02*
X0088711Y0359225D01*
X0091409Y0354625D02*
X0091539Y0354629D01*
X0091670Y0354637D01*
X0091799Y0354649D01*
X0091929Y0354664D01*
X0092058Y0354684D01*
X0092186Y0354707D01*
X0092314Y0354734D01*
X0092441Y0354765D01*
X0092566Y0354800D01*
X0092691Y0354839D01*
X0092814Y0354881D01*
X0092176Y0357692D02*
X0092077Y0357689D01*
X0091978Y0357682D01*
X0091880Y0357672D01*
X0091782Y0357659D01*
X0091684Y0357643D01*
X0091587Y0357623D01*
X0091491Y0357600D01*
X0091396Y0357573D01*
X0091302Y0357544D01*
X0091209Y0357511D01*
X0091116Y0357475D01*
X0091026Y0357436D01*
X0092176Y0357692D02*
X0092227Y0357691D01*
X0092277Y0357686D01*
X0092328Y0357676D01*
X0092377Y0357664D01*
X0092425Y0357647D01*
X0092472Y0357626D01*
X0092518Y0357603D01*
X0092561Y0357575D01*
X0092602Y0357545D01*
X0092640Y0357511D01*
X0092676Y0357475D01*
X0092709Y0357435D01*
X0092739Y0357394D01*
X0092765Y0357350D01*
X0092788Y0357305D01*
X0092807Y0357257D01*
X0092823Y0357209D01*
X0092835Y0357159D01*
X0092843Y0357109D01*
X0092847Y0357058D01*
X0092848Y0357007D01*
X0092844Y0356956D01*
X0092836Y0356905D01*
X0092825Y0356855D01*
X0092810Y0356806D01*
X0092791Y0356759D01*
X0092768Y0356713D01*
X0092742Y0356669D01*
X0092713Y0356627D01*
X0092680Y0356588D01*
X0092645Y0356551D01*
X0092606Y0356517D01*
X0092566Y0356486D01*
X0092523Y0356459D01*
X0092478Y0356434D01*
X0092431Y0356413D01*
X0092431Y0356414D02*
X0091153Y0355903D01*
X0091154Y0355904D02*
X0091107Y0355883D01*
X0091062Y0355858D01*
X0091019Y0355831D01*
X0090979Y0355800D01*
X0090940Y0355766D01*
X0090905Y0355729D01*
X0090872Y0355690D01*
X0090843Y0355648D01*
X0090817Y0355604D01*
X0090794Y0355558D01*
X0090775Y0355511D01*
X0090760Y0355462D01*
X0090749Y0355412D01*
X0090741Y0355361D01*
X0090737Y0355310D01*
X0090738Y0355259D01*
X0090742Y0355208D01*
X0090750Y0355158D01*
X0090762Y0355108D01*
X0090778Y0355060D01*
X0090797Y0355012D01*
X0090820Y0354967D01*
X0090846Y0354923D01*
X0090876Y0354882D01*
X0090909Y0354842D01*
X0090945Y0354806D01*
X0090983Y0354772D01*
X0091024Y0354742D01*
X0091067Y0354714D01*
X0091113Y0354691D01*
X0091160Y0354670D01*
X0091208Y0354653D01*
X0091257Y0354641D01*
X0091308Y0354631D01*
X0091358Y0354626D01*
X0091409Y0354625D01*
X0095376Y0354625D02*
X0094609Y0357692D01*
X0096142Y0356670D02*
X0095376Y0354625D01*
X0096909Y0354625D02*
X0096142Y0356670D01*
X0097676Y0357692D02*
X0096909Y0354625D01*
X0099470Y0355647D02*
X0099470Y0356670D01*
X0099472Y0356733D01*
X0099478Y0356796D01*
X0099487Y0356858D01*
X0099501Y0356919D01*
X0099518Y0356980D01*
X0099539Y0357039D01*
X0099564Y0357097D01*
X0099592Y0357154D01*
X0099623Y0357208D01*
X0099658Y0357260D01*
X0099696Y0357311D01*
X0099737Y0357359D01*
X0099781Y0357404D01*
X0099827Y0357446D01*
X0099876Y0357486D01*
X0099927Y0357522D01*
X0099981Y0357555D01*
X0100036Y0357585D01*
X0100094Y0357611D01*
X0100152Y0357634D01*
X0100212Y0357653D01*
X0100273Y0357668D01*
X0100335Y0357680D01*
X0100398Y0357688D01*
X0100461Y0357692D01*
X0100523Y0357692D01*
X0100586Y0357688D01*
X0100649Y0357680D01*
X0100711Y0357668D01*
X0100772Y0357653D01*
X0100832Y0357634D01*
X0100890Y0357611D01*
X0100948Y0357585D01*
X0101003Y0357555D01*
X0101057Y0357522D01*
X0101108Y0357486D01*
X0101157Y0357446D01*
X0101203Y0357404D01*
X0101247Y0357359D01*
X0101288Y0357311D01*
X0101326Y0357260D01*
X0101361Y0357208D01*
X0101392Y0357154D01*
X0101420Y0357097D01*
X0101445Y0357039D01*
X0101466Y0356980D01*
X0101483Y0356919D01*
X0101497Y0356858D01*
X0101506Y0356796D01*
X0101512Y0356733D01*
X0101514Y0356670D01*
X0101515Y0356670D02*
X0101515Y0355647D01*
X0101514Y0355647D02*
X0101512Y0355584D01*
X0101506Y0355521D01*
X0101497Y0355459D01*
X0101483Y0355398D01*
X0101466Y0355337D01*
X0101445Y0355278D01*
X0101420Y0355220D01*
X0101392Y0355163D01*
X0101361Y0355109D01*
X0101326Y0355057D01*
X0101288Y0355006D01*
X0101247Y0354958D01*
X0101203Y0354913D01*
X0101157Y0354871D01*
X0101108Y0354831D01*
X0101057Y0354795D01*
X0101003Y0354762D01*
X0100948Y0354732D01*
X0100890Y0354706D01*
X0100832Y0354683D01*
X0100772Y0354664D01*
X0100711Y0354649D01*
X0100649Y0354637D01*
X0100586Y0354629D01*
X0100523Y0354625D01*
X0100461Y0354625D01*
X0100398Y0354629D01*
X0100335Y0354637D01*
X0100273Y0354649D01*
X0100212Y0354664D01*
X0100152Y0354683D01*
X0100094Y0354706D01*
X0100036Y0354732D01*
X0099981Y0354762D01*
X0099927Y0354795D01*
X0099876Y0354831D01*
X0099827Y0354871D01*
X0099781Y0354913D01*
X0099737Y0354958D01*
X0099696Y0355006D01*
X0099658Y0355057D01*
X0099623Y0355109D01*
X0099592Y0355163D01*
X0099564Y0355220D01*
X0099539Y0355278D01*
X0099518Y0355337D01*
X0099501Y0355398D01*
X0099487Y0355459D01*
X0099478Y0355521D01*
X0099472Y0355584D01*
X0099470Y0355647D01*
X0103167Y0354625D02*
X0104317Y0356797D01*
X0105211Y0356159D02*
X0103167Y0357692D01*
X0105211Y0359225D02*
X0105211Y0354625D01*
X0107443Y0354625D02*
X0107443Y0356925D01*
X0107443Y0356414D02*
X0108593Y0356414D01*
X0107443Y0356925D02*
X0107445Y0356977D01*
X0107450Y0357029D01*
X0107459Y0357081D01*
X0107471Y0357132D01*
X0107487Y0357182D01*
X0107507Y0357231D01*
X0107529Y0357278D01*
X0107555Y0357324D01*
X0107583Y0357367D01*
X0107615Y0357409D01*
X0107649Y0357449D01*
X0107686Y0357486D01*
X0107726Y0357520D01*
X0107768Y0357552D01*
X0107811Y0357580D01*
X0107857Y0357606D01*
X0107904Y0357629D01*
X0107953Y0357648D01*
X0108003Y0357664D01*
X0108054Y0357676D01*
X0108106Y0357685D01*
X0108158Y0357690D01*
X0108210Y0357692D01*
X0109232Y0357692D01*
X0108593Y0356414D02*
X0108651Y0356412D01*
X0108710Y0356406D01*
X0108767Y0356397D01*
X0108824Y0356384D01*
X0108880Y0356367D01*
X0108935Y0356346D01*
X0108988Y0356322D01*
X0109040Y0356294D01*
X0109090Y0356263D01*
X0109137Y0356229D01*
X0109182Y0356192D01*
X0109225Y0356152D01*
X0109265Y0356109D01*
X0109302Y0356064D01*
X0109336Y0356017D01*
X0109367Y0355967D01*
X0109395Y0355915D01*
X0109419Y0355862D01*
X0109440Y0355807D01*
X0109457Y0355751D01*
X0109470Y0355694D01*
X0109479Y0355637D01*
X0109485Y0355578D01*
X0109487Y0355520D01*
X0109485Y0355462D01*
X0109479Y0355403D01*
X0109470Y0355346D01*
X0109457Y0355289D01*
X0109440Y0355233D01*
X0109419Y0355178D01*
X0109395Y0355125D01*
X0109367Y0355073D01*
X0109336Y0355023D01*
X0109302Y0354976D01*
X0109265Y0354931D01*
X0109225Y0354888D01*
X0109182Y0354848D01*
X0109137Y0354811D01*
X0109090Y0354777D01*
X0109040Y0354746D01*
X0108988Y0354718D01*
X0108935Y0354694D01*
X0108880Y0354673D01*
X0108824Y0354656D01*
X0108767Y0354643D01*
X0108710Y0354634D01*
X0108651Y0354628D01*
X0108593Y0354626D01*
X0108593Y0354625D02*
X0107443Y0354625D01*
X0111039Y0354625D02*
X0111094Y0354627D01*
X0111148Y0354633D01*
X0111202Y0354643D01*
X0111255Y0354656D01*
X0111307Y0354673D01*
X0111358Y0354694D01*
X0111407Y0354719D01*
X0111454Y0354747D01*
X0111499Y0354778D01*
X0111541Y0354812D01*
X0111581Y0354850D01*
X0111619Y0354890D01*
X0111653Y0354932D01*
X0111684Y0354977D01*
X0111712Y0355024D01*
X0111737Y0355073D01*
X0111758Y0355124D01*
X0111775Y0355176D01*
X0111788Y0355229D01*
X0111798Y0355283D01*
X0111804Y0355337D01*
X0111806Y0355392D01*
X0111806Y0359225D01*
X0113565Y0359225D02*
X0113565Y0358970D01*
X0113820Y0358970D01*
X0113820Y0359225D01*
X0113565Y0359225D01*
X0113692Y0357692D02*
X0113692Y0354625D01*
X0116626Y0356670D02*
X0117903Y0356670D01*
X0116626Y0356669D02*
X0116556Y0356671D01*
X0116485Y0356677D01*
X0116416Y0356686D01*
X0116347Y0356700D01*
X0116278Y0356717D01*
X0116211Y0356738D01*
X0116145Y0356763D01*
X0116081Y0356791D01*
X0116018Y0356823D01*
X0115957Y0356858D01*
X0115898Y0356897D01*
X0115841Y0356938D01*
X0115787Y0356983D01*
X0115735Y0357031D01*
X0115686Y0357081D01*
X0115639Y0357135D01*
X0115596Y0357190D01*
X0115556Y0357248D01*
X0115519Y0357308D01*
X0115486Y0357370D01*
X0115456Y0357434D01*
X0115429Y0357499D01*
X0115406Y0357565D01*
X0115387Y0357633D01*
X0115372Y0357702D01*
X0115360Y0357771D01*
X0115352Y0357841D01*
X0115348Y0357912D01*
X0115348Y0357982D01*
X0115352Y0358053D01*
X0115360Y0358123D01*
X0115372Y0358192D01*
X0115387Y0358261D01*
X0115406Y0358329D01*
X0115429Y0358395D01*
X0115456Y0358460D01*
X0115486Y0358524D01*
X0115519Y0358586D01*
X0115556Y0358646D01*
X0115596Y0358704D01*
X0115639Y0358759D01*
X0115686Y0358813D01*
X0115735Y0358863D01*
X0115787Y0358911D01*
X0115841Y0358956D01*
X0115898Y0358997D01*
X0115957Y0359036D01*
X0116018Y0359071D01*
X0116081Y0359103D01*
X0116145Y0359131D01*
X0116211Y0359156D01*
X0116278Y0359177D01*
X0116347Y0359194D01*
X0116416Y0359208D01*
X0116485Y0359217D01*
X0116556Y0359223D01*
X0116626Y0359225D01*
X0117903Y0359225D01*
X0117903Y0354625D01*
X0122397Y0355392D02*
X0122397Y0356925D01*
X0122399Y0356977D01*
X0122404Y0357029D01*
X0122413Y0357081D01*
X0122425Y0357132D01*
X0122441Y0357182D01*
X0122461Y0357231D01*
X0122483Y0357278D01*
X0122509Y0357324D01*
X0122537Y0357367D01*
X0122569Y0357409D01*
X0122603Y0357449D01*
X0122640Y0357486D01*
X0122680Y0357520D01*
X0122722Y0357552D01*
X0122765Y0357580D01*
X0122811Y0357606D01*
X0122858Y0357629D01*
X0122907Y0357648D01*
X0122957Y0357664D01*
X0123008Y0357676D01*
X0123060Y0357685D01*
X0123112Y0357690D01*
X0123164Y0357692D01*
X0124441Y0357692D01*
X0124441Y0359225D02*
X0124441Y0354625D01*
X0123164Y0354625D01*
X0123109Y0354627D01*
X0123055Y0354633D01*
X0123001Y0354643D01*
X0122948Y0354656D01*
X0122896Y0354673D01*
X0122845Y0354694D01*
X0122796Y0354719D01*
X0122749Y0354747D01*
X0122704Y0354778D01*
X0122662Y0354812D01*
X0122622Y0354850D01*
X0122584Y0354890D01*
X0122550Y0354932D01*
X0122519Y0354977D01*
X0122491Y0355024D01*
X0122466Y0355073D01*
X0122445Y0355124D01*
X0122428Y0355176D01*
X0122415Y0355229D01*
X0122405Y0355283D01*
X0122399Y0355337D01*
X0122397Y0355392D01*
X0126470Y0355647D02*
X0126470Y0356670D01*
X0126472Y0356733D01*
X0126478Y0356796D01*
X0126487Y0356858D01*
X0126501Y0356919D01*
X0126518Y0356980D01*
X0126539Y0357039D01*
X0126564Y0357097D01*
X0126592Y0357154D01*
X0126623Y0357208D01*
X0126658Y0357260D01*
X0126696Y0357311D01*
X0126737Y0357359D01*
X0126781Y0357404D01*
X0126827Y0357446D01*
X0126876Y0357486D01*
X0126927Y0357522D01*
X0126981Y0357555D01*
X0127036Y0357585D01*
X0127094Y0357611D01*
X0127152Y0357634D01*
X0127212Y0357653D01*
X0127273Y0357668D01*
X0127335Y0357680D01*
X0127398Y0357688D01*
X0127461Y0357692D01*
X0127523Y0357692D01*
X0127586Y0357688D01*
X0127649Y0357680D01*
X0127711Y0357668D01*
X0127772Y0357653D01*
X0127832Y0357634D01*
X0127890Y0357611D01*
X0127948Y0357585D01*
X0128003Y0357555D01*
X0128057Y0357522D01*
X0128108Y0357486D01*
X0128157Y0357446D01*
X0128203Y0357404D01*
X0128247Y0357359D01*
X0128288Y0357311D01*
X0128326Y0357260D01*
X0128361Y0357208D01*
X0128392Y0357154D01*
X0128420Y0357097D01*
X0128445Y0357039D01*
X0128466Y0356980D01*
X0128483Y0356919D01*
X0128497Y0356858D01*
X0128506Y0356796D01*
X0128512Y0356733D01*
X0128514Y0356670D01*
X0128515Y0356670D02*
X0128515Y0355647D01*
X0128514Y0355647D02*
X0128512Y0355584D01*
X0128506Y0355521D01*
X0128497Y0355459D01*
X0128483Y0355398D01*
X0128466Y0355337D01*
X0128445Y0355278D01*
X0128420Y0355220D01*
X0128392Y0355163D01*
X0128361Y0355109D01*
X0128326Y0355057D01*
X0128288Y0355006D01*
X0128247Y0354958D01*
X0128203Y0354913D01*
X0128157Y0354871D01*
X0128108Y0354831D01*
X0128057Y0354795D01*
X0128003Y0354762D01*
X0127948Y0354732D01*
X0127890Y0354706D01*
X0127832Y0354683D01*
X0127772Y0354664D01*
X0127711Y0354649D01*
X0127649Y0354637D01*
X0127586Y0354629D01*
X0127523Y0354625D01*
X0127461Y0354625D01*
X0127398Y0354629D01*
X0127335Y0354637D01*
X0127273Y0354649D01*
X0127212Y0354664D01*
X0127152Y0354683D01*
X0127094Y0354706D01*
X0127036Y0354732D01*
X0126981Y0354762D01*
X0126927Y0354795D01*
X0126876Y0354831D01*
X0126827Y0354871D01*
X0126781Y0354913D01*
X0126737Y0354958D01*
X0126696Y0355006D01*
X0126658Y0355057D01*
X0126623Y0355109D01*
X0126592Y0355163D01*
X0126564Y0355220D01*
X0126539Y0355278D01*
X0126518Y0355337D01*
X0126501Y0355398D01*
X0126487Y0355459D01*
X0126478Y0355521D01*
X0126472Y0355584D01*
X0126470Y0355647D01*
X0130170Y0354625D02*
X0131193Y0354625D01*
X0131248Y0354627D01*
X0131302Y0354633D01*
X0131356Y0354643D01*
X0131409Y0354656D01*
X0131461Y0354673D01*
X0131512Y0354694D01*
X0131561Y0354719D01*
X0131608Y0354747D01*
X0131653Y0354778D01*
X0131695Y0354812D01*
X0131735Y0354850D01*
X0131773Y0354890D01*
X0131807Y0354932D01*
X0131838Y0354977D01*
X0131866Y0355024D01*
X0131891Y0355073D01*
X0131912Y0355124D01*
X0131929Y0355176D01*
X0131942Y0355229D01*
X0131952Y0355283D01*
X0131958Y0355337D01*
X0131960Y0355392D01*
X0131959Y0355392D02*
X0131959Y0356925D01*
X0131960Y0356925D02*
X0131958Y0356980D01*
X0131952Y0357034D01*
X0131942Y0357088D01*
X0131929Y0357141D01*
X0131912Y0357193D01*
X0131891Y0357244D01*
X0131866Y0357293D01*
X0131838Y0357340D01*
X0131807Y0357385D01*
X0131773Y0357427D01*
X0131735Y0357467D01*
X0131695Y0357505D01*
X0131653Y0357539D01*
X0131608Y0357570D01*
X0131561Y0357598D01*
X0131512Y0357623D01*
X0131461Y0357644D01*
X0131409Y0357661D01*
X0131356Y0357674D01*
X0131302Y0357684D01*
X0131248Y0357690D01*
X0131193Y0357692D01*
X0130170Y0357692D01*
X0133993Y0356925D02*
X0133993Y0354625D01*
X0135143Y0354625D01*
X0135143Y0354626D02*
X0135201Y0354628D01*
X0135260Y0354634D01*
X0135317Y0354643D01*
X0135374Y0354656D01*
X0135430Y0354673D01*
X0135485Y0354694D01*
X0135538Y0354718D01*
X0135590Y0354746D01*
X0135640Y0354777D01*
X0135687Y0354811D01*
X0135732Y0354848D01*
X0135775Y0354888D01*
X0135815Y0354931D01*
X0135852Y0354976D01*
X0135886Y0355023D01*
X0135917Y0355073D01*
X0135945Y0355125D01*
X0135969Y0355178D01*
X0135990Y0355233D01*
X0136007Y0355289D01*
X0136020Y0355346D01*
X0136029Y0355403D01*
X0136035Y0355462D01*
X0136037Y0355520D01*
X0136035Y0355578D01*
X0136029Y0355637D01*
X0136020Y0355694D01*
X0136007Y0355751D01*
X0135990Y0355807D01*
X0135969Y0355862D01*
X0135945Y0355915D01*
X0135917Y0355967D01*
X0135886Y0356017D01*
X0135852Y0356064D01*
X0135815Y0356109D01*
X0135775Y0356152D01*
X0135732Y0356192D01*
X0135687Y0356229D01*
X0135640Y0356263D01*
X0135590Y0356294D01*
X0135538Y0356322D01*
X0135485Y0356346D01*
X0135430Y0356367D01*
X0135374Y0356384D01*
X0135317Y0356397D01*
X0135260Y0356406D01*
X0135201Y0356412D01*
X0135143Y0356414D01*
X0133993Y0356414D01*
X0133993Y0356925D02*
X0133995Y0356977D01*
X0134000Y0357029D01*
X0134009Y0357081D01*
X0134021Y0357132D01*
X0134037Y0357182D01*
X0134057Y0357231D01*
X0134079Y0357278D01*
X0134105Y0357324D01*
X0134133Y0357367D01*
X0134165Y0357409D01*
X0134199Y0357449D01*
X0134236Y0357486D01*
X0134276Y0357520D01*
X0134318Y0357552D01*
X0134361Y0357580D01*
X0134407Y0357606D01*
X0134454Y0357629D01*
X0134503Y0357648D01*
X0134553Y0357664D01*
X0134604Y0357676D01*
X0134656Y0357685D01*
X0134708Y0357690D01*
X0134760Y0357692D01*
X0135782Y0357692D01*
X0138046Y0359225D02*
X0138046Y0355647D01*
X0138048Y0355585D01*
X0138053Y0355524D01*
X0138063Y0355463D01*
X0138076Y0355402D01*
X0138092Y0355343D01*
X0138112Y0355285D01*
X0138136Y0355228D01*
X0138163Y0355172D01*
X0138193Y0355118D01*
X0138227Y0355066D01*
X0138263Y0355017D01*
X0138303Y0354969D01*
X0138345Y0354924D01*
X0138390Y0354882D01*
X0138438Y0354842D01*
X0138487Y0354806D01*
X0138539Y0354772D01*
X0138593Y0354742D01*
X0138649Y0354715D01*
X0138706Y0354691D01*
X0138764Y0354671D01*
X0138823Y0354655D01*
X0138884Y0354642D01*
X0138945Y0354632D01*
X0139006Y0354627D01*
X0139068Y0354625D01*
X0139580Y0354625D01*
X0143509Y0356414D02*
X0146576Y0356414D01*
X0146576Y0363914D02*
X0143509Y0363914D01*
X0138926Y0362125D02*
X0138926Y0366725D01*
X0137392Y0364170D01*
X0135859Y0366725D01*
X0135859Y0362125D01*
X0133792Y0362125D02*
X0133792Y0365192D01*
X0133664Y0366470D02*
X0133920Y0366470D01*
X0133920Y0366725D01*
X0133664Y0366725D01*
X0133664Y0366470D01*
X0131959Y0364425D02*
X0131959Y0362892D01*
X0131960Y0362892D02*
X0131958Y0362837D01*
X0131952Y0362783D01*
X0131942Y0362729D01*
X0131929Y0362676D01*
X0131912Y0362624D01*
X0131891Y0362573D01*
X0131866Y0362524D01*
X0131838Y0362477D01*
X0131807Y0362432D01*
X0131773Y0362390D01*
X0131735Y0362350D01*
X0131695Y0362312D01*
X0131653Y0362278D01*
X0131608Y0362247D01*
X0131561Y0362219D01*
X0131512Y0362194D01*
X0131461Y0362173D01*
X0131409Y0362156D01*
X0131356Y0362143D01*
X0131302Y0362133D01*
X0131248Y0362127D01*
X0131193Y0362125D01*
X0130170Y0362125D01*
X0128365Y0362125D02*
X0128365Y0366725D01*
X0128365Y0365192D02*
X0127087Y0365192D01*
X0127032Y0365190D01*
X0126978Y0365184D01*
X0126924Y0365174D01*
X0126871Y0365161D01*
X0126819Y0365144D01*
X0126768Y0365123D01*
X0126719Y0365098D01*
X0126672Y0365070D01*
X0126627Y0365039D01*
X0126585Y0365005D01*
X0126545Y0364967D01*
X0126507Y0364927D01*
X0126473Y0364885D01*
X0126442Y0364840D01*
X0126414Y0364793D01*
X0126389Y0364744D01*
X0126368Y0364693D01*
X0126351Y0364641D01*
X0126338Y0364588D01*
X0126328Y0364534D01*
X0126322Y0364480D01*
X0126320Y0364425D01*
X0126320Y0362125D01*
X0123443Y0362125D02*
X0122293Y0362125D01*
X0122293Y0364425D01*
X0122293Y0363914D02*
X0123443Y0363914D01*
X0122293Y0364425D02*
X0122295Y0364477D01*
X0122300Y0364529D01*
X0122309Y0364581D01*
X0122321Y0364632D01*
X0122337Y0364682D01*
X0122357Y0364731D01*
X0122379Y0364778D01*
X0122405Y0364824D01*
X0122433Y0364867D01*
X0122465Y0364909D01*
X0122499Y0364949D01*
X0122536Y0364986D01*
X0122576Y0365020D01*
X0122618Y0365052D01*
X0122661Y0365080D01*
X0122707Y0365106D01*
X0122754Y0365129D01*
X0122803Y0365148D01*
X0122853Y0365164D01*
X0122904Y0365176D01*
X0122956Y0365185D01*
X0123008Y0365190D01*
X0123060Y0365192D01*
X0124082Y0365192D01*
X0123443Y0363914D02*
X0123501Y0363912D01*
X0123560Y0363906D01*
X0123617Y0363897D01*
X0123674Y0363884D01*
X0123730Y0363867D01*
X0123785Y0363846D01*
X0123838Y0363822D01*
X0123890Y0363794D01*
X0123940Y0363763D01*
X0123987Y0363729D01*
X0124032Y0363692D01*
X0124075Y0363652D01*
X0124115Y0363609D01*
X0124152Y0363564D01*
X0124186Y0363517D01*
X0124217Y0363467D01*
X0124245Y0363415D01*
X0124269Y0363362D01*
X0124290Y0363307D01*
X0124307Y0363251D01*
X0124320Y0363194D01*
X0124329Y0363137D01*
X0124335Y0363078D01*
X0124337Y0363020D01*
X0124335Y0362962D01*
X0124329Y0362903D01*
X0124320Y0362846D01*
X0124307Y0362789D01*
X0124290Y0362733D01*
X0124269Y0362678D01*
X0124245Y0362625D01*
X0124217Y0362573D01*
X0124186Y0362523D01*
X0124152Y0362476D01*
X0124115Y0362431D01*
X0124075Y0362388D01*
X0124032Y0362348D01*
X0123987Y0362311D01*
X0123940Y0362277D01*
X0123890Y0362246D01*
X0123838Y0362218D01*
X0123785Y0362194D01*
X0123730Y0362173D01*
X0123674Y0362156D01*
X0123617Y0362143D01*
X0123560Y0362134D01*
X0123501Y0362128D01*
X0123443Y0362126D01*
X0120265Y0362892D02*
X0120265Y0364170D01*
X0120265Y0363659D02*
X0118220Y0363659D01*
X0118220Y0364170D01*
X0118222Y0364233D01*
X0118228Y0364296D01*
X0118237Y0364358D01*
X0118251Y0364419D01*
X0118268Y0364480D01*
X0118289Y0364539D01*
X0118314Y0364597D01*
X0118342Y0364654D01*
X0118373Y0364708D01*
X0118408Y0364760D01*
X0118446Y0364811D01*
X0118487Y0364859D01*
X0118531Y0364904D01*
X0118577Y0364946D01*
X0118626Y0364986D01*
X0118677Y0365022D01*
X0118731Y0365055D01*
X0118786Y0365085D01*
X0118844Y0365111D01*
X0118902Y0365134D01*
X0118962Y0365153D01*
X0119023Y0365168D01*
X0119085Y0365180D01*
X0119148Y0365188D01*
X0119211Y0365192D01*
X0119273Y0365192D01*
X0119336Y0365188D01*
X0119399Y0365180D01*
X0119461Y0365168D01*
X0119522Y0365153D01*
X0119582Y0365134D01*
X0119640Y0365111D01*
X0119698Y0365085D01*
X0119753Y0365055D01*
X0119807Y0365022D01*
X0119858Y0364986D01*
X0119907Y0364946D01*
X0119953Y0364904D01*
X0119997Y0364859D01*
X0120038Y0364811D01*
X0120076Y0364760D01*
X0120111Y0364708D01*
X0120142Y0364654D01*
X0120170Y0364597D01*
X0120195Y0364539D01*
X0120216Y0364480D01*
X0120233Y0364419D01*
X0120247Y0364358D01*
X0120256Y0364296D01*
X0120262Y0364233D01*
X0120264Y0364170D01*
X0120265Y0362892D02*
X0120263Y0362837D01*
X0120257Y0362783D01*
X0120247Y0362729D01*
X0120234Y0362676D01*
X0120217Y0362624D01*
X0120196Y0362573D01*
X0120171Y0362524D01*
X0120143Y0362477D01*
X0120112Y0362432D01*
X0120078Y0362390D01*
X0120040Y0362350D01*
X0120000Y0362312D01*
X0119958Y0362278D01*
X0119913Y0362247D01*
X0119866Y0362219D01*
X0119817Y0362194D01*
X0119766Y0362173D01*
X0119714Y0362156D01*
X0119661Y0362143D01*
X0119607Y0362133D01*
X0119553Y0362127D01*
X0119498Y0362125D01*
X0118220Y0362125D01*
X0116306Y0362892D02*
X0116306Y0366725D01*
X0116089Y0369625D02*
X0117111Y0369625D01*
X0117173Y0369627D01*
X0117234Y0369632D01*
X0117295Y0369642D01*
X0117356Y0369655D01*
X0117415Y0369671D01*
X0117473Y0369691D01*
X0117530Y0369715D01*
X0117586Y0369742D01*
X0117640Y0369772D01*
X0117692Y0369806D01*
X0117741Y0369842D01*
X0117789Y0369882D01*
X0117834Y0369924D01*
X0117876Y0369969D01*
X0117916Y0370017D01*
X0117952Y0370066D01*
X0117986Y0370118D01*
X0118016Y0370172D01*
X0118043Y0370228D01*
X0118067Y0370285D01*
X0118087Y0370343D01*
X0118103Y0370402D01*
X0118116Y0370463D01*
X0118126Y0370524D01*
X0118131Y0370585D01*
X0118133Y0370647D01*
X0118133Y0373203D01*
X0118131Y0373265D01*
X0118126Y0373326D01*
X0118116Y0373387D01*
X0118103Y0373448D01*
X0118087Y0373507D01*
X0118067Y0373565D01*
X0118043Y0373622D01*
X0118016Y0373678D01*
X0117986Y0373732D01*
X0117952Y0373784D01*
X0117916Y0373833D01*
X0117876Y0373881D01*
X0117834Y0373926D01*
X0117789Y0373968D01*
X0117741Y0374008D01*
X0117692Y0374044D01*
X0117640Y0374078D01*
X0117586Y0374108D01*
X0117530Y0374135D01*
X0117473Y0374159D01*
X0117415Y0374179D01*
X0117356Y0374195D01*
X0117295Y0374208D01*
X0117234Y0374218D01*
X0117173Y0374223D01*
X0117111Y0374225D01*
X0116089Y0374225D01*
X0116570Y0377125D02*
X0116570Y0381725D01*
X0116179Y0383092D02*
X0115668Y0383092D01*
X0114135Y0387692D01*
X0116179Y0387692D02*
X0115157Y0384625D01*
X0117861Y0385392D02*
X0117861Y0386925D01*
X0117863Y0386977D01*
X0117868Y0387029D01*
X0117877Y0387081D01*
X0117889Y0387132D01*
X0117905Y0387182D01*
X0117925Y0387231D01*
X0117947Y0387278D01*
X0117973Y0387324D01*
X0118001Y0387367D01*
X0118033Y0387409D01*
X0118067Y0387449D01*
X0118104Y0387486D01*
X0118144Y0387520D01*
X0118186Y0387552D01*
X0118229Y0387580D01*
X0118275Y0387606D01*
X0118322Y0387629D01*
X0118371Y0387648D01*
X0118421Y0387664D01*
X0118472Y0387676D01*
X0118524Y0387685D01*
X0118576Y0387690D01*
X0118628Y0387692D01*
X0119906Y0387692D01*
X0119906Y0389225D02*
X0119906Y0384625D01*
X0118628Y0384625D01*
X0118573Y0384627D01*
X0118519Y0384633D01*
X0118465Y0384643D01*
X0118412Y0384656D01*
X0118360Y0384673D01*
X0118309Y0384694D01*
X0118260Y0384719D01*
X0118213Y0384747D01*
X0118168Y0384778D01*
X0118126Y0384812D01*
X0118086Y0384850D01*
X0118048Y0384890D01*
X0118014Y0384932D01*
X0117983Y0384977D01*
X0117955Y0385024D01*
X0117930Y0385073D01*
X0117909Y0385124D01*
X0117892Y0385176D01*
X0117879Y0385229D01*
X0117869Y0385283D01*
X0117863Y0385337D01*
X0117861Y0385392D01*
X0119126Y0381725D02*
X0116570Y0377125D01*
X0119126Y0377125D02*
X0119126Y0381725D01*
X0120972Y0381725D02*
X0123017Y0381725D01*
X0123017Y0377125D01*
X0120972Y0377125D01*
X0121483Y0379681D02*
X0123017Y0379681D01*
X0124894Y0381725D02*
X0125916Y0381725D01*
X0125978Y0381723D01*
X0126039Y0381718D01*
X0126100Y0381708D01*
X0126161Y0381695D01*
X0126220Y0381679D01*
X0126278Y0381659D01*
X0126335Y0381635D01*
X0126391Y0381608D01*
X0126445Y0381578D01*
X0126497Y0381544D01*
X0126546Y0381508D01*
X0126594Y0381468D01*
X0126639Y0381426D01*
X0126681Y0381381D01*
X0126721Y0381333D01*
X0126757Y0381284D01*
X0126791Y0381232D01*
X0126821Y0381178D01*
X0126848Y0381122D01*
X0126872Y0381065D01*
X0126892Y0381007D01*
X0126908Y0380948D01*
X0126921Y0380887D01*
X0126931Y0380826D01*
X0126936Y0380765D01*
X0126938Y0380703D01*
X0126939Y0380703D02*
X0126939Y0378147D01*
X0126938Y0378147D02*
X0126936Y0378085D01*
X0126931Y0378024D01*
X0126921Y0377963D01*
X0126908Y0377902D01*
X0126892Y0377843D01*
X0126872Y0377785D01*
X0126848Y0377728D01*
X0126821Y0377672D01*
X0126791Y0377618D01*
X0126757Y0377566D01*
X0126721Y0377517D01*
X0126681Y0377469D01*
X0126639Y0377424D01*
X0126594Y0377382D01*
X0126546Y0377342D01*
X0126497Y0377306D01*
X0126445Y0377272D01*
X0126391Y0377242D01*
X0126335Y0377215D01*
X0126278Y0377191D01*
X0126220Y0377171D01*
X0126161Y0377155D01*
X0126100Y0377142D01*
X0126039Y0377132D01*
X0125978Y0377127D01*
X0125916Y0377125D01*
X0124894Y0377125D01*
X0128622Y0377125D02*
X0130667Y0377125D01*
X0130667Y0381725D01*
X0128622Y0381725D01*
X0129133Y0379681D02*
X0130667Y0379681D01*
X0134922Y0377125D02*
X0136967Y0377125D01*
X0136967Y0381725D01*
X0139220Y0381725D02*
X0139220Y0377125D01*
X0141776Y0381725D01*
X0141776Y0377125D01*
X0144020Y0378403D02*
X0144020Y0381725D01*
X0146576Y0381725D02*
X0146576Y0378403D01*
X0146574Y0378333D01*
X0146568Y0378262D01*
X0146559Y0378193D01*
X0146545Y0378124D01*
X0146528Y0378055D01*
X0146507Y0377988D01*
X0146482Y0377922D01*
X0146454Y0377858D01*
X0146422Y0377795D01*
X0146387Y0377734D01*
X0146348Y0377675D01*
X0146307Y0377618D01*
X0146262Y0377564D01*
X0146214Y0377512D01*
X0146164Y0377463D01*
X0146110Y0377416D01*
X0146055Y0377373D01*
X0145997Y0377333D01*
X0145937Y0377296D01*
X0145875Y0377263D01*
X0145811Y0377233D01*
X0145746Y0377206D01*
X0145680Y0377183D01*
X0145612Y0377164D01*
X0145543Y0377149D01*
X0145474Y0377137D01*
X0145404Y0377129D01*
X0145333Y0377125D01*
X0145263Y0377125D01*
X0145192Y0377129D01*
X0145122Y0377137D01*
X0145053Y0377149D01*
X0144984Y0377164D01*
X0144916Y0377183D01*
X0144850Y0377206D01*
X0144785Y0377233D01*
X0144721Y0377263D01*
X0144659Y0377296D01*
X0144599Y0377333D01*
X0144541Y0377373D01*
X0144486Y0377416D01*
X0144432Y0377463D01*
X0144382Y0377512D01*
X0144334Y0377564D01*
X0144289Y0377618D01*
X0144248Y0377675D01*
X0144209Y0377734D01*
X0144174Y0377795D01*
X0144142Y0377858D01*
X0144114Y0377922D01*
X0144089Y0377988D01*
X0144068Y0378055D01*
X0144051Y0378124D01*
X0144037Y0378193D01*
X0144028Y0378262D01*
X0144022Y0378333D01*
X0144020Y0378403D01*
X0141962Y0384625D02*
X0140684Y0384625D01*
X0140684Y0387692D01*
X0142729Y0387692D02*
X0142729Y0385392D01*
X0142727Y0385337D01*
X0142721Y0385283D01*
X0142711Y0385229D01*
X0142698Y0385176D01*
X0142681Y0385124D01*
X0142660Y0385073D01*
X0142635Y0385024D01*
X0142607Y0384977D01*
X0142576Y0384932D01*
X0142542Y0384890D01*
X0142504Y0384850D01*
X0142464Y0384812D01*
X0142422Y0384778D01*
X0142377Y0384747D01*
X0142330Y0384719D01*
X0142281Y0384694D01*
X0142230Y0384673D01*
X0142178Y0384656D01*
X0142125Y0384643D01*
X0142071Y0384633D01*
X0142017Y0384627D01*
X0141962Y0384625D01*
X0138529Y0384625D02*
X0138529Y0387692D01*
X0137251Y0387692D01*
X0137196Y0387690D01*
X0137142Y0387684D01*
X0137088Y0387674D01*
X0137035Y0387661D01*
X0136983Y0387644D01*
X0136932Y0387623D01*
X0136883Y0387598D01*
X0136836Y0387570D01*
X0136791Y0387539D01*
X0136749Y0387505D01*
X0136709Y0387467D01*
X0136671Y0387427D01*
X0136637Y0387385D01*
X0136606Y0387340D01*
X0136578Y0387293D01*
X0136553Y0387244D01*
X0136532Y0387193D01*
X0136515Y0387141D01*
X0136502Y0387088D01*
X0136492Y0387034D01*
X0136486Y0386980D01*
X0136484Y0386925D01*
X0136484Y0384625D01*
X0134502Y0385392D02*
X0134502Y0386925D01*
X0134500Y0386980D01*
X0134494Y0387034D01*
X0134484Y0387088D01*
X0134471Y0387141D01*
X0134454Y0387193D01*
X0134433Y0387244D01*
X0134408Y0387293D01*
X0134380Y0387340D01*
X0134349Y0387385D01*
X0134315Y0387427D01*
X0134277Y0387467D01*
X0134237Y0387505D01*
X0134195Y0387539D01*
X0134150Y0387570D01*
X0134103Y0387598D01*
X0134054Y0387623D01*
X0134003Y0387644D01*
X0133951Y0387661D01*
X0133898Y0387674D01*
X0133844Y0387684D01*
X0133790Y0387690D01*
X0133735Y0387692D01*
X0132458Y0387692D01*
X0132458Y0389225D02*
X0132458Y0384625D01*
X0133735Y0384625D01*
X0133790Y0384627D01*
X0133844Y0384633D01*
X0133898Y0384643D01*
X0133951Y0384656D01*
X0134003Y0384673D01*
X0134054Y0384694D01*
X0134103Y0384719D01*
X0134150Y0384747D01*
X0134195Y0384778D01*
X0134237Y0384812D01*
X0134277Y0384850D01*
X0134315Y0384890D01*
X0134349Y0384932D01*
X0134380Y0384977D01*
X0134408Y0385024D01*
X0134433Y0385073D01*
X0134454Y0385124D01*
X0134471Y0385176D01*
X0134484Y0385229D01*
X0134494Y0385283D01*
X0134500Y0385337D01*
X0134502Y0385392D01*
X0130429Y0385392D02*
X0130429Y0386670D01*
X0130429Y0386159D02*
X0128384Y0386159D01*
X0128384Y0386670D01*
X0128385Y0386670D02*
X0128387Y0386733D01*
X0128393Y0386796D01*
X0128402Y0386858D01*
X0128416Y0386919D01*
X0128433Y0386980D01*
X0128454Y0387039D01*
X0128479Y0387097D01*
X0128507Y0387154D01*
X0128538Y0387208D01*
X0128573Y0387260D01*
X0128611Y0387311D01*
X0128652Y0387359D01*
X0128696Y0387404D01*
X0128742Y0387446D01*
X0128791Y0387486D01*
X0128842Y0387522D01*
X0128896Y0387555D01*
X0128951Y0387585D01*
X0129009Y0387611D01*
X0129067Y0387634D01*
X0129127Y0387653D01*
X0129188Y0387668D01*
X0129250Y0387680D01*
X0129313Y0387688D01*
X0129376Y0387692D01*
X0129438Y0387692D01*
X0129501Y0387688D01*
X0129564Y0387680D01*
X0129626Y0387668D01*
X0129687Y0387653D01*
X0129747Y0387634D01*
X0129805Y0387611D01*
X0129863Y0387585D01*
X0129918Y0387555D01*
X0129972Y0387522D01*
X0130023Y0387486D01*
X0130072Y0387446D01*
X0130118Y0387404D01*
X0130162Y0387359D01*
X0130203Y0387311D01*
X0130241Y0387260D01*
X0130276Y0387208D01*
X0130307Y0387154D01*
X0130335Y0387097D01*
X0130360Y0387039D01*
X0130381Y0386980D01*
X0130398Y0386919D01*
X0130412Y0386858D01*
X0130421Y0386796D01*
X0130427Y0386733D01*
X0130429Y0386670D01*
X0130429Y0385392D02*
X0130427Y0385337D01*
X0130421Y0385283D01*
X0130411Y0385229D01*
X0130398Y0385176D01*
X0130381Y0385124D01*
X0130360Y0385073D01*
X0130335Y0385024D01*
X0130307Y0384977D01*
X0130276Y0384932D01*
X0130242Y0384890D01*
X0130204Y0384850D01*
X0130164Y0384812D01*
X0130122Y0384778D01*
X0130077Y0384747D01*
X0130030Y0384719D01*
X0129981Y0384694D01*
X0129930Y0384673D01*
X0129878Y0384656D01*
X0129825Y0384643D01*
X0129771Y0384633D01*
X0129717Y0384627D01*
X0129662Y0384625D01*
X0128384Y0384625D01*
X0126552Y0385392D02*
X0126552Y0386925D01*
X0126550Y0386980D01*
X0126544Y0387034D01*
X0126534Y0387088D01*
X0126521Y0387141D01*
X0126504Y0387193D01*
X0126483Y0387244D01*
X0126458Y0387293D01*
X0126430Y0387340D01*
X0126399Y0387385D01*
X0126365Y0387427D01*
X0126327Y0387467D01*
X0126287Y0387505D01*
X0126245Y0387539D01*
X0126200Y0387570D01*
X0126153Y0387598D01*
X0126104Y0387623D01*
X0126053Y0387644D01*
X0126001Y0387661D01*
X0125948Y0387674D01*
X0125894Y0387684D01*
X0125840Y0387690D01*
X0125785Y0387692D01*
X0124508Y0387692D01*
X0124508Y0389225D02*
X0124508Y0384625D01*
X0125785Y0384625D01*
X0125840Y0384627D01*
X0125894Y0384633D01*
X0125948Y0384643D01*
X0126001Y0384656D01*
X0126053Y0384673D01*
X0126104Y0384694D01*
X0126153Y0384719D01*
X0126200Y0384747D01*
X0126245Y0384778D01*
X0126287Y0384812D01*
X0126327Y0384850D01*
X0126365Y0384890D01*
X0126399Y0384932D01*
X0126430Y0384977D01*
X0126458Y0385024D01*
X0126483Y0385073D01*
X0126504Y0385124D01*
X0126521Y0385176D01*
X0126534Y0385229D01*
X0126544Y0385283D01*
X0126550Y0385337D01*
X0126552Y0385392D01*
X0130843Y0374225D02*
X0130843Y0369625D01*
X0132121Y0369625D01*
X0132176Y0369627D01*
X0132230Y0369633D01*
X0132284Y0369643D01*
X0132337Y0369656D01*
X0132389Y0369673D01*
X0132440Y0369694D01*
X0132489Y0369719D01*
X0132536Y0369747D01*
X0132581Y0369778D01*
X0132623Y0369812D01*
X0132663Y0369850D01*
X0132701Y0369890D01*
X0132735Y0369932D01*
X0132766Y0369977D01*
X0132794Y0370024D01*
X0132819Y0370073D01*
X0132840Y0370124D01*
X0132857Y0370176D01*
X0132870Y0370229D01*
X0132880Y0370283D01*
X0132886Y0370337D01*
X0132888Y0370392D01*
X0132888Y0371925D01*
X0132886Y0371980D01*
X0132880Y0372034D01*
X0132870Y0372088D01*
X0132857Y0372141D01*
X0132840Y0372193D01*
X0132819Y0372244D01*
X0132794Y0372293D01*
X0132766Y0372340D01*
X0132735Y0372385D01*
X0132701Y0372427D01*
X0132663Y0372467D01*
X0132623Y0372505D01*
X0132581Y0372539D01*
X0132536Y0372570D01*
X0132489Y0372598D01*
X0132440Y0372623D01*
X0132389Y0372644D01*
X0132337Y0372661D01*
X0132284Y0372674D01*
X0132230Y0372684D01*
X0132176Y0372690D01*
X0132121Y0372692D01*
X0130843Y0372692D01*
X0128582Y0372692D02*
X0127560Y0372692D01*
X0127508Y0372690D01*
X0127456Y0372685D01*
X0127404Y0372676D01*
X0127353Y0372664D01*
X0127303Y0372648D01*
X0127254Y0372629D01*
X0127207Y0372606D01*
X0127161Y0372580D01*
X0127118Y0372552D01*
X0127076Y0372520D01*
X0127036Y0372486D01*
X0126999Y0372449D01*
X0126965Y0372409D01*
X0126933Y0372367D01*
X0126905Y0372324D01*
X0126879Y0372278D01*
X0126857Y0372231D01*
X0126837Y0372182D01*
X0126821Y0372132D01*
X0126809Y0372081D01*
X0126800Y0372029D01*
X0126795Y0371977D01*
X0126793Y0371925D01*
X0126793Y0369625D01*
X0127943Y0369625D01*
X0127943Y0369626D02*
X0128001Y0369628D01*
X0128060Y0369634D01*
X0128117Y0369643D01*
X0128174Y0369656D01*
X0128230Y0369673D01*
X0128285Y0369694D01*
X0128338Y0369718D01*
X0128390Y0369746D01*
X0128440Y0369777D01*
X0128487Y0369811D01*
X0128532Y0369848D01*
X0128575Y0369888D01*
X0128615Y0369931D01*
X0128652Y0369976D01*
X0128686Y0370023D01*
X0128717Y0370073D01*
X0128745Y0370125D01*
X0128769Y0370178D01*
X0128790Y0370233D01*
X0128807Y0370289D01*
X0128820Y0370346D01*
X0128829Y0370403D01*
X0128835Y0370462D01*
X0128837Y0370520D01*
X0128835Y0370578D01*
X0128829Y0370637D01*
X0128820Y0370694D01*
X0128807Y0370751D01*
X0128790Y0370807D01*
X0128769Y0370862D01*
X0128745Y0370915D01*
X0128717Y0370967D01*
X0128686Y0371017D01*
X0128652Y0371064D01*
X0128615Y0371109D01*
X0128575Y0371152D01*
X0128532Y0371192D01*
X0128487Y0371229D01*
X0128440Y0371263D01*
X0128390Y0371294D01*
X0128338Y0371322D01*
X0128285Y0371346D01*
X0128230Y0371367D01*
X0128174Y0371384D01*
X0128117Y0371397D01*
X0128060Y0371406D01*
X0128001Y0371412D01*
X0127943Y0371414D01*
X0126793Y0371414D01*
X0124615Y0372692D02*
X0124615Y0369625D01*
X0122570Y0369625D02*
X0122570Y0371925D01*
X0122572Y0371980D01*
X0122578Y0372034D01*
X0122588Y0372088D01*
X0122601Y0372141D01*
X0122618Y0372193D01*
X0122639Y0372244D01*
X0122664Y0372293D01*
X0122692Y0372340D01*
X0122723Y0372385D01*
X0122757Y0372427D01*
X0122795Y0372467D01*
X0122835Y0372505D01*
X0122877Y0372539D01*
X0122922Y0372570D01*
X0122969Y0372598D01*
X0123018Y0372623D01*
X0123069Y0372644D01*
X0123121Y0372661D01*
X0123174Y0372674D01*
X0123228Y0372684D01*
X0123282Y0372690D01*
X0123337Y0372692D01*
X0124615Y0372692D01*
X0130170Y0365192D02*
X0131193Y0365192D01*
X0131248Y0365190D01*
X0131302Y0365184D01*
X0131356Y0365174D01*
X0131409Y0365161D01*
X0131461Y0365144D01*
X0131512Y0365123D01*
X0131561Y0365098D01*
X0131608Y0365070D01*
X0131653Y0365039D01*
X0131695Y0365005D01*
X0131735Y0364967D01*
X0131773Y0364927D01*
X0131807Y0364885D01*
X0131838Y0364840D01*
X0131866Y0364793D01*
X0131891Y0364744D01*
X0131912Y0364693D01*
X0131929Y0364641D01*
X0131942Y0364588D01*
X0131952Y0364534D01*
X0131958Y0364480D01*
X0131960Y0364425D01*
X0134692Y0369625D02*
X0134692Y0372692D01*
X0134564Y0373970D02*
X0134820Y0373970D01*
X0134820Y0374225D01*
X0134564Y0374225D01*
X0134564Y0373970D01*
X0137842Y0374225D02*
X0136309Y0369625D01*
X0136692Y0370775D02*
X0138992Y0370775D01*
X0139376Y0369625D02*
X0137842Y0374225D01*
X0143509Y0371414D02*
X0146576Y0371414D01*
X0146576Y0384625D02*
X0146576Y0389225D01*
X0144531Y0389225D01*
X0144531Y0387181D02*
X0146576Y0387181D01*
X0114415Y0371670D02*
X0114415Y0370647D01*
X0114414Y0370647D02*
X0114412Y0370584D01*
X0114406Y0370521D01*
X0114397Y0370459D01*
X0114383Y0370398D01*
X0114366Y0370337D01*
X0114345Y0370278D01*
X0114320Y0370220D01*
X0114292Y0370163D01*
X0114261Y0370109D01*
X0114226Y0370057D01*
X0114188Y0370006D01*
X0114147Y0369958D01*
X0114103Y0369913D01*
X0114057Y0369871D01*
X0114008Y0369831D01*
X0113957Y0369795D01*
X0113903Y0369762D01*
X0113848Y0369732D01*
X0113790Y0369706D01*
X0113732Y0369683D01*
X0113672Y0369664D01*
X0113611Y0369649D01*
X0113549Y0369637D01*
X0113486Y0369629D01*
X0113423Y0369625D01*
X0113361Y0369625D01*
X0113298Y0369629D01*
X0113235Y0369637D01*
X0113173Y0369649D01*
X0113112Y0369664D01*
X0113052Y0369683D01*
X0112994Y0369706D01*
X0112936Y0369732D01*
X0112881Y0369762D01*
X0112827Y0369795D01*
X0112776Y0369831D01*
X0112727Y0369871D01*
X0112681Y0369913D01*
X0112637Y0369958D01*
X0112596Y0370006D01*
X0112558Y0370057D01*
X0112523Y0370109D01*
X0112492Y0370163D01*
X0112464Y0370220D01*
X0112439Y0370278D01*
X0112418Y0370337D01*
X0112401Y0370398D01*
X0112387Y0370459D01*
X0112378Y0370521D01*
X0112372Y0370584D01*
X0112370Y0370647D01*
X0112370Y0371670D01*
X0112372Y0371733D01*
X0112378Y0371796D01*
X0112387Y0371858D01*
X0112401Y0371919D01*
X0112418Y0371980D01*
X0112439Y0372039D01*
X0112464Y0372097D01*
X0112492Y0372154D01*
X0112523Y0372208D01*
X0112558Y0372260D01*
X0112596Y0372311D01*
X0112637Y0372359D01*
X0112681Y0372404D01*
X0112727Y0372446D01*
X0112776Y0372486D01*
X0112827Y0372522D01*
X0112881Y0372555D01*
X0112936Y0372585D01*
X0112994Y0372611D01*
X0113052Y0372634D01*
X0113112Y0372653D01*
X0113173Y0372668D01*
X0113235Y0372680D01*
X0113298Y0372688D01*
X0113361Y0372692D01*
X0113423Y0372692D01*
X0113486Y0372688D01*
X0113549Y0372680D01*
X0113611Y0372668D01*
X0113672Y0372653D01*
X0113732Y0372634D01*
X0113790Y0372611D01*
X0113848Y0372585D01*
X0113903Y0372555D01*
X0113957Y0372522D01*
X0114008Y0372486D01*
X0114057Y0372446D01*
X0114103Y0372404D01*
X0114147Y0372359D01*
X0114188Y0372311D01*
X0114226Y0372260D01*
X0114261Y0372208D01*
X0114292Y0372154D01*
X0114320Y0372097D01*
X0114345Y0372039D01*
X0114366Y0371980D01*
X0114383Y0371919D01*
X0114397Y0371858D01*
X0114406Y0371796D01*
X0114412Y0371733D01*
X0114414Y0371670D01*
X0110456Y0370392D02*
X0110456Y0374225D01*
X0108056Y0374225D02*
X0108056Y0370392D01*
X0108054Y0370337D01*
X0108048Y0370283D01*
X0108038Y0370229D01*
X0108025Y0370176D01*
X0108008Y0370124D01*
X0107987Y0370073D01*
X0107962Y0370024D01*
X0107934Y0369977D01*
X0107903Y0369932D01*
X0107869Y0369890D01*
X0107831Y0369850D01*
X0107791Y0369812D01*
X0107749Y0369778D01*
X0107704Y0369747D01*
X0107657Y0369719D01*
X0107608Y0369694D01*
X0107557Y0369673D01*
X0107505Y0369656D01*
X0107452Y0369643D01*
X0107398Y0369633D01*
X0107344Y0369627D01*
X0107289Y0369625D01*
X0105742Y0369625D02*
X0105742Y0372692D01*
X0105615Y0373970D02*
X0105870Y0373970D01*
X0105870Y0374225D01*
X0105615Y0374225D01*
X0105615Y0373970D01*
X0104147Y0375592D02*
X0104147Y0380192D01*
X0102869Y0380192D01*
X0102814Y0380190D01*
X0102760Y0380184D01*
X0102706Y0380174D01*
X0102653Y0380161D01*
X0102601Y0380144D01*
X0102550Y0380123D01*
X0102501Y0380098D01*
X0102454Y0380070D01*
X0102409Y0380039D01*
X0102367Y0380005D01*
X0102327Y0379967D01*
X0102289Y0379927D01*
X0102255Y0379885D01*
X0102224Y0379840D01*
X0102196Y0379793D01*
X0102171Y0379744D01*
X0102150Y0379693D01*
X0102133Y0379641D01*
X0102120Y0379588D01*
X0102110Y0379534D01*
X0102104Y0379480D01*
X0102102Y0379425D01*
X0102102Y0377892D01*
X0102104Y0377840D01*
X0102109Y0377788D01*
X0102118Y0377736D01*
X0102130Y0377685D01*
X0102146Y0377635D01*
X0102166Y0377586D01*
X0102188Y0377539D01*
X0102214Y0377493D01*
X0102242Y0377450D01*
X0102274Y0377408D01*
X0102308Y0377368D01*
X0102345Y0377331D01*
X0102385Y0377297D01*
X0102427Y0377265D01*
X0102470Y0377237D01*
X0102516Y0377211D01*
X0102563Y0377188D01*
X0102612Y0377169D01*
X0102662Y0377153D01*
X0102713Y0377141D01*
X0102765Y0377132D01*
X0102817Y0377127D01*
X0102869Y0377125D01*
X0104147Y0377125D01*
X0106349Y0377125D02*
X0106349Y0379425D01*
X0106349Y0378914D02*
X0107499Y0378914D01*
X0106348Y0379425D02*
X0106350Y0379477D01*
X0106355Y0379529D01*
X0106364Y0379581D01*
X0106376Y0379632D01*
X0106392Y0379682D01*
X0106412Y0379731D01*
X0106434Y0379778D01*
X0106460Y0379824D01*
X0106488Y0379867D01*
X0106520Y0379909D01*
X0106554Y0379949D01*
X0106591Y0379986D01*
X0106631Y0380020D01*
X0106673Y0380052D01*
X0106716Y0380080D01*
X0106762Y0380106D01*
X0106809Y0380129D01*
X0106858Y0380148D01*
X0106908Y0380164D01*
X0106959Y0380176D01*
X0107011Y0380185D01*
X0107063Y0380190D01*
X0107115Y0380192D01*
X0108138Y0380192D01*
X0107499Y0378914D02*
X0107557Y0378912D01*
X0107616Y0378906D01*
X0107673Y0378897D01*
X0107730Y0378884D01*
X0107786Y0378867D01*
X0107841Y0378846D01*
X0107894Y0378822D01*
X0107946Y0378794D01*
X0107996Y0378763D01*
X0108043Y0378729D01*
X0108088Y0378692D01*
X0108131Y0378652D01*
X0108171Y0378609D01*
X0108208Y0378564D01*
X0108242Y0378517D01*
X0108273Y0378467D01*
X0108301Y0378415D01*
X0108325Y0378362D01*
X0108346Y0378307D01*
X0108363Y0378251D01*
X0108376Y0378194D01*
X0108385Y0378137D01*
X0108391Y0378078D01*
X0108393Y0378020D01*
X0108391Y0377962D01*
X0108385Y0377903D01*
X0108376Y0377846D01*
X0108363Y0377789D01*
X0108346Y0377733D01*
X0108325Y0377678D01*
X0108301Y0377625D01*
X0108273Y0377573D01*
X0108242Y0377523D01*
X0108208Y0377476D01*
X0108171Y0377431D01*
X0108131Y0377388D01*
X0108088Y0377348D01*
X0108043Y0377311D01*
X0107996Y0377277D01*
X0107946Y0377246D01*
X0107894Y0377218D01*
X0107841Y0377194D01*
X0107786Y0377173D01*
X0107730Y0377156D01*
X0107673Y0377143D01*
X0107616Y0377134D01*
X0107557Y0377128D01*
X0107499Y0377126D01*
X0107499Y0377125D02*
X0106349Y0377125D01*
X0110044Y0377125D02*
X0111066Y0377125D01*
X0111128Y0377127D01*
X0111189Y0377132D01*
X0111250Y0377142D01*
X0111311Y0377155D01*
X0111370Y0377171D01*
X0111428Y0377191D01*
X0111485Y0377215D01*
X0111541Y0377242D01*
X0111595Y0377272D01*
X0111647Y0377306D01*
X0111696Y0377342D01*
X0111744Y0377382D01*
X0111789Y0377424D01*
X0111831Y0377469D01*
X0111871Y0377517D01*
X0111907Y0377566D01*
X0111941Y0377618D01*
X0111971Y0377672D01*
X0111998Y0377728D01*
X0112022Y0377785D01*
X0112042Y0377843D01*
X0112058Y0377902D01*
X0112071Y0377963D01*
X0112081Y0378024D01*
X0112086Y0378085D01*
X0112088Y0378147D01*
X0112089Y0378147D02*
X0112089Y0380703D01*
X0112088Y0380703D02*
X0112086Y0380765D01*
X0112081Y0380826D01*
X0112071Y0380887D01*
X0112058Y0380948D01*
X0112042Y0381007D01*
X0112022Y0381065D01*
X0111998Y0381122D01*
X0111971Y0381178D01*
X0111941Y0381232D01*
X0111907Y0381284D01*
X0111871Y0381333D01*
X0111831Y0381381D01*
X0111789Y0381426D01*
X0111744Y0381468D01*
X0111696Y0381508D01*
X0111647Y0381544D01*
X0111595Y0381578D01*
X0111541Y0381608D01*
X0111485Y0381635D01*
X0111428Y0381659D01*
X0111370Y0381679D01*
X0111311Y0381695D01*
X0111250Y0381708D01*
X0111189Y0381718D01*
X0111128Y0381723D01*
X0111066Y0381725D01*
X0110044Y0381725D01*
X0109007Y0384625D02*
X0109007Y0389225D01*
X0110285Y0389225D02*
X0107729Y0389225D01*
X0105953Y0387692D02*
X0104420Y0387692D01*
X0104420Y0387181D01*
X0102979Y0386670D02*
X0102979Y0385392D01*
X0102979Y0386159D02*
X0100935Y0386159D01*
X0100935Y0386670D01*
X0100937Y0386733D01*
X0100943Y0386796D01*
X0100952Y0386858D01*
X0100966Y0386919D01*
X0100983Y0386980D01*
X0101004Y0387039D01*
X0101029Y0387097D01*
X0101057Y0387154D01*
X0101088Y0387208D01*
X0101123Y0387260D01*
X0101161Y0387311D01*
X0101202Y0387359D01*
X0101246Y0387404D01*
X0101292Y0387446D01*
X0101341Y0387486D01*
X0101392Y0387522D01*
X0101446Y0387555D01*
X0101501Y0387585D01*
X0101559Y0387611D01*
X0101617Y0387634D01*
X0101677Y0387653D01*
X0101738Y0387668D01*
X0101800Y0387680D01*
X0101863Y0387688D01*
X0101926Y0387692D01*
X0101988Y0387692D01*
X0102051Y0387688D01*
X0102114Y0387680D01*
X0102176Y0387668D01*
X0102237Y0387653D01*
X0102297Y0387634D01*
X0102355Y0387611D01*
X0102413Y0387585D01*
X0102468Y0387555D01*
X0102522Y0387522D01*
X0102573Y0387486D01*
X0102622Y0387446D01*
X0102668Y0387404D01*
X0102712Y0387359D01*
X0102753Y0387311D01*
X0102791Y0387260D01*
X0102826Y0387208D01*
X0102857Y0387154D01*
X0102885Y0387097D01*
X0102910Y0387039D01*
X0102931Y0386980D01*
X0102948Y0386919D01*
X0102962Y0386858D01*
X0102971Y0386796D01*
X0102977Y0386733D01*
X0102979Y0386670D01*
X0102979Y0385392D02*
X0102977Y0385337D01*
X0102971Y0385283D01*
X0102961Y0385229D01*
X0102948Y0385176D01*
X0102931Y0385124D01*
X0102910Y0385073D01*
X0102885Y0385024D01*
X0102857Y0384977D01*
X0102826Y0384932D01*
X0102792Y0384890D01*
X0102754Y0384850D01*
X0102714Y0384812D01*
X0102672Y0384778D01*
X0102627Y0384747D01*
X0102580Y0384719D01*
X0102531Y0384694D01*
X0102480Y0384673D01*
X0102428Y0384656D01*
X0102375Y0384643D01*
X0102321Y0384633D01*
X0102267Y0384627D01*
X0102212Y0384625D01*
X0100935Y0384625D01*
X0098929Y0384625D02*
X0098929Y0387692D01*
X0097651Y0387692D01*
X0097596Y0387690D01*
X0097542Y0387684D01*
X0097488Y0387674D01*
X0097435Y0387661D01*
X0097383Y0387644D01*
X0097332Y0387623D01*
X0097283Y0387598D01*
X0097236Y0387570D01*
X0097191Y0387539D01*
X0097149Y0387505D01*
X0097109Y0387467D01*
X0097071Y0387427D01*
X0097037Y0387385D01*
X0097006Y0387340D01*
X0096978Y0387293D01*
X0096953Y0387244D01*
X0096932Y0387193D01*
X0096915Y0387141D01*
X0096902Y0387088D01*
X0096892Y0387034D01*
X0096886Y0386980D01*
X0096884Y0386925D01*
X0096885Y0386925D02*
X0096885Y0384625D01*
X0094749Y0385392D02*
X0094749Y0389225D01*
X0095260Y0387692D02*
X0093726Y0387692D01*
X0092029Y0386670D02*
X0092029Y0385647D01*
X0092027Y0385584D01*
X0092021Y0385521D01*
X0092012Y0385459D01*
X0091998Y0385398D01*
X0091981Y0385337D01*
X0091960Y0385278D01*
X0091935Y0385220D01*
X0091907Y0385163D01*
X0091876Y0385109D01*
X0091841Y0385057D01*
X0091803Y0385006D01*
X0091762Y0384958D01*
X0091718Y0384913D01*
X0091672Y0384871D01*
X0091623Y0384831D01*
X0091572Y0384795D01*
X0091518Y0384762D01*
X0091463Y0384732D01*
X0091405Y0384706D01*
X0091347Y0384683D01*
X0091287Y0384664D01*
X0091226Y0384649D01*
X0091164Y0384637D01*
X0091101Y0384629D01*
X0091038Y0384625D01*
X0090976Y0384625D01*
X0090913Y0384629D01*
X0090850Y0384637D01*
X0090788Y0384649D01*
X0090727Y0384664D01*
X0090667Y0384683D01*
X0090609Y0384706D01*
X0090551Y0384732D01*
X0090496Y0384762D01*
X0090442Y0384795D01*
X0090391Y0384831D01*
X0090342Y0384871D01*
X0090296Y0384913D01*
X0090252Y0384958D01*
X0090211Y0385006D01*
X0090173Y0385057D01*
X0090138Y0385109D01*
X0090107Y0385163D01*
X0090079Y0385220D01*
X0090054Y0385278D01*
X0090033Y0385337D01*
X0090016Y0385398D01*
X0090002Y0385459D01*
X0089993Y0385521D01*
X0089987Y0385584D01*
X0089985Y0385647D01*
X0089985Y0386670D01*
X0089987Y0386733D01*
X0089993Y0386796D01*
X0090002Y0386858D01*
X0090016Y0386919D01*
X0090033Y0386980D01*
X0090054Y0387039D01*
X0090079Y0387097D01*
X0090107Y0387154D01*
X0090138Y0387208D01*
X0090173Y0387260D01*
X0090211Y0387311D01*
X0090252Y0387359D01*
X0090296Y0387404D01*
X0090342Y0387446D01*
X0090391Y0387486D01*
X0090442Y0387522D01*
X0090496Y0387555D01*
X0090551Y0387585D01*
X0090609Y0387611D01*
X0090667Y0387634D01*
X0090727Y0387653D01*
X0090788Y0387668D01*
X0090850Y0387680D01*
X0090913Y0387688D01*
X0090976Y0387692D01*
X0091038Y0387692D01*
X0091101Y0387688D01*
X0091164Y0387680D01*
X0091226Y0387668D01*
X0091287Y0387653D01*
X0091347Y0387634D01*
X0091405Y0387611D01*
X0091463Y0387585D01*
X0091518Y0387555D01*
X0091572Y0387522D01*
X0091623Y0387486D01*
X0091672Y0387446D01*
X0091718Y0387404D01*
X0091762Y0387359D01*
X0091803Y0387311D01*
X0091841Y0387260D01*
X0091876Y0387208D01*
X0091907Y0387154D01*
X0091935Y0387097D01*
X0091960Y0387039D01*
X0091981Y0386980D01*
X0091998Y0386919D01*
X0092012Y0386858D01*
X0092021Y0386796D01*
X0092027Y0386733D01*
X0092029Y0386670D01*
X0093982Y0384625D02*
X0094037Y0384627D01*
X0094091Y0384633D01*
X0094145Y0384643D01*
X0094198Y0384656D01*
X0094250Y0384673D01*
X0094301Y0384694D01*
X0094350Y0384719D01*
X0094397Y0384747D01*
X0094442Y0384778D01*
X0094484Y0384812D01*
X0094524Y0384850D01*
X0094562Y0384890D01*
X0094596Y0384932D01*
X0094627Y0384977D01*
X0094655Y0385024D01*
X0094680Y0385073D01*
X0094701Y0385124D01*
X0094718Y0385176D01*
X0094731Y0385229D01*
X0094741Y0385283D01*
X0094747Y0385337D01*
X0094749Y0385392D01*
X0093982Y0384625D02*
X0093726Y0384625D01*
X0096240Y0381725D02*
X0096240Y0377892D01*
X0096238Y0377837D01*
X0096232Y0377783D01*
X0096222Y0377729D01*
X0096209Y0377676D01*
X0096192Y0377624D01*
X0096171Y0377573D01*
X0096146Y0377524D01*
X0096118Y0377477D01*
X0096087Y0377432D01*
X0096053Y0377390D01*
X0096015Y0377350D01*
X0095975Y0377312D01*
X0095933Y0377278D01*
X0095888Y0377247D01*
X0095841Y0377219D01*
X0095792Y0377194D01*
X0095741Y0377173D01*
X0095689Y0377156D01*
X0095636Y0377143D01*
X0095582Y0377133D01*
X0095528Y0377127D01*
X0095473Y0377125D01*
X0095218Y0377125D01*
X0093520Y0378147D02*
X0093520Y0379170D01*
X0093518Y0379233D01*
X0093512Y0379296D01*
X0093503Y0379358D01*
X0093489Y0379419D01*
X0093472Y0379480D01*
X0093451Y0379539D01*
X0093426Y0379597D01*
X0093398Y0379654D01*
X0093367Y0379708D01*
X0093332Y0379760D01*
X0093294Y0379811D01*
X0093253Y0379859D01*
X0093209Y0379904D01*
X0093163Y0379946D01*
X0093114Y0379986D01*
X0093063Y0380022D01*
X0093009Y0380055D01*
X0092954Y0380085D01*
X0092896Y0380111D01*
X0092838Y0380134D01*
X0092778Y0380153D01*
X0092717Y0380168D01*
X0092655Y0380180D01*
X0092592Y0380188D01*
X0092529Y0380192D01*
X0092467Y0380192D01*
X0092404Y0380188D01*
X0092341Y0380180D01*
X0092279Y0380168D01*
X0092218Y0380153D01*
X0092158Y0380134D01*
X0092100Y0380111D01*
X0092042Y0380085D01*
X0091987Y0380055D01*
X0091933Y0380022D01*
X0091882Y0379986D01*
X0091833Y0379946D01*
X0091787Y0379904D01*
X0091743Y0379859D01*
X0091702Y0379811D01*
X0091664Y0379760D01*
X0091629Y0379708D01*
X0091598Y0379654D01*
X0091570Y0379597D01*
X0091545Y0379539D01*
X0091524Y0379480D01*
X0091507Y0379419D01*
X0091493Y0379358D01*
X0091484Y0379296D01*
X0091478Y0379233D01*
X0091476Y0379170D01*
X0091476Y0378147D01*
X0091478Y0378084D01*
X0091484Y0378021D01*
X0091493Y0377959D01*
X0091507Y0377898D01*
X0091524Y0377837D01*
X0091545Y0377778D01*
X0091570Y0377720D01*
X0091598Y0377663D01*
X0091629Y0377609D01*
X0091664Y0377557D01*
X0091702Y0377506D01*
X0091743Y0377458D01*
X0091787Y0377413D01*
X0091833Y0377371D01*
X0091882Y0377331D01*
X0091933Y0377295D01*
X0091987Y0377262D01*
X0092042Y0377232D01*
X0092100Y0377206D01*
X0092158Y0377183D01*
X0092218Y0377164D01*
X0092279Y0377149D01*
X0092341Y0377137D01*
X0092404Y0377129D01*
X0092467Y0377125D01*
X0092529Y0377125D01*
X0092592Y0377129D01*
X0092655Y0377137D01*
X0092717Y0377149D01*
X0092778Y0377164D01*
X0092838Y0377183D01*
X0092896Y0377206D01*
X0092954Y0377232D01*
X0093009Y0377262D01*
X0093063Y0377295D01*
X0093114Y0377331D01*
X0093163Y0377371D01*
X0093209Y0377413D01*
X0093253Y0377458D01*
X0093294Y0377506D01*
X0093332Y0377557D01*
X0093367Y0377609D01*
X0093398Y0377663D01*
X0093426Y0377720D01*
X0093451Y0377778D01*
X0093472Y0377837D01*
X0093489Y0377898D01*
X0093503Y0377959D01*
X0093512Y0378021D01*
X0093518Y0378084D01*
X0093520Y0378147D01*
X0095218Y0380192D02*
X0096751Y0380192D01*
X0098865Y0377125D02*
X0098995Y0377129D01*
X0099126Y0377137D01*
X0099255Y0377149D01*
X0099385Y0377164D01*
X0099514Y0377184D01*
X0099642Y0377207D01*
X0099770Y0377234D01*
X0099897Y0377265D01*
X0100022Y0377300D01*
X0100147Y0377339D01*
X0100270Y0377381D01*
X0099632Y0380192D02*
X0099533Y0380189D01*
X0099434Y0380182D01*
X0099336Y0380172D01*
X0099238Y0380159D01*
X0099140Y0380143D01*
X0099043Y0380123D01*
X0098947Y0380100D01*
X0098852Y0380073D01*
X0098758Y0380044D01*
X0098665Y0380011D01*
X0098572Y0379975D01*
X0098482Y0379936D01*
X0099632Y0380192D02*
X0099683Y0380191D01*
X0099733Y0380186D01*
X0099784Y0380176D01*
X0099833Y0380164D01*
X0099881Y0380147D01*
X0099928Y0380126D01*
X0099974Y0380103D01*
X0100017Y0380075D01*
X0100058Y0380045D01*
X0100096Y0380011D01*
X0100132Y0379975D01*
X0100165Y0379935D01*
X0100195Y0379894D01*
X0100221Y0379850D01*
X0100244Y0379805D01*
X0100263Y0379757D01*
X0100279Y0379709D01*
X0100291Y0379659D01*
X0100299Y0379609D01*
X0100303Y0379558D01*
X0100304Y0379507D01*
X0100300Y0379456D01*
X0100292Y0379405D01*
X0100281Y0379355D01*
X0100266Y0379306D01*
X0100247Y0379259D01*
X0100224Y0379213D01*
X0100198Y0379169D01*
X0100169Y0379127D01*
X0100136Y0379088D01*
X0100101Y0379051D01*
X0100062Y0379017D01*
X0100022Y0378986D01*
X0099979Y0378959D01*
X0099934Y0378934D01*
X0099887Y0378913D01*
X0099887Y0378914D02*
X0098609Y0378403D01*
X0098609Y0378404D02*
X0098562Y0378383D01*
X0098517Y0378358D01*
X0098474Y0378331D01*
X0098434Y0378300D01*
X0098395Y0378266D01*
X0098360Y0378229D01*
X0098327Y0378190D01*
X0098298Y0378148D01*
X0098272Y0378104D01*
X0098249Y0378058D01*
X0098230Y0378011D01*
X0098215Y0377962D01*
X0098204Y0377912D01*
X0098196Y0377861D01*
X0098192Y0377810D01*
X0098193Y0377759D01*
X0098197Y0377708D01*
X0098205Y0377658D01*
X0098217Y0377608D01*
X0098233Y0377560D01*
X0098252Y0377512D01*
X0098275Y0377467D01*
X0098301Y0377423D01*
X0098331Y0377382D01*
X0098364Y0377342D01*
X0098400Y0377306D01*
X0098438Y0377272D01*
X0098479Y0377242D01*
X0098522Y0377214D01*
X0098568Y0377191D01*
X0098615Y0377170D01*
X0098663Y0377153D01*
X0098712Y0377141D01*
X0098763Y0377131D01*
X0098813Y0377126D01*
X0098864Y0377125D01*
X0098971Y0372692D02*
X0097693Y0372692D01*
X0097693Y0368859D01*
X0097693Y0369625D02*
X0098971Y0369625D01*
X0099026Y0369627D01*
X0099080Y0369633D01*
X0099134Y0369643D01*
X0099187Y0369656D01*
X0099239Y0369673D01*
X0099290Y0369694D01*
X0099339Y0369719D01*
X0099386Y0369747D01*
X0099431Y0369778D01*
X0099473Y0369812D01*
X0099513Y0369850D01*
X0099551Y0369890D01*
X0099585Y0369932D01*
X0099616Y0369977D01*
X0099644Y0370024D01*
X0099669Y0370073D01*
X0099690Y0370124D01*
X0099707Y0370176D01*
X0099720Y0370229D01*
X0099730Y0370283D01*
X0099736Y0370337D01*
X0099738Y0370392D01*
X0099738Y0371925D01*
X0099736Y0371980D01*
X0099730Y0372034D01*
X0099720Y0372088D01*
X0099707Y0372141D01*
X0099690Y0372193D01*
X0099669Y0372244D01*
X0099644Y0372293D01*
X0099616Y0372340D01*
X0099585Y0372385D01*
X0099551Y0372427D01*
X0099513Y0372467D01*
X0099473Y0372505D01*
X0099431Y0372539D01*
X0099386Y0372570D01*
X0099339Y0372598D01*
X0099290Y0372623D01*
X0099239Y0372644D01*
X0099187Y0372661D01*
X0099134Y0372674D01*
X0099080Y0372684D01*
X0099026Y0372690D01*
X0098971Y0372692D01*
X0101720Y0371925D02*
X0101720Y0369625D01*
X0103765Y0369625D02*
X0103765Y0372692D01*
X0102487Y0372692D01*
X0102432Y0372690D01*
X0102378Y0372684D01*
X0102324Y0372674D01*
X0102271Y0372661D01*
X0102219Y0372644D01*
X0102168Y0372623D01*
X0102119Y0372598D01*
X0102072Y0372570D01*
X0102027Y0372539D01*
X0101985Y0372505D01*
X0101945Y0372467D01*
X0101907Y0372427D01*
X0101873Y0372385D01*
X0101842Y0372340D01*
X0101814Y0372293D01*
X0101789Y0372244D01*
X0101768Y0372193D01*
X0101751Y0372141D01*
X0101738Y0372088D01*
X0101728Y0372034D01*
X0101722Y0371980D01*
X0101720Y0371925D01*
X0099482Y0368092D02*
X0098460Y0368092D01*
X0098405Y0368094D01*
X0098351Y0368100D01*
X0098297Y0368110D01*
X0098244Y0368123D01*
X0098192Y0368140D01*
X0098141Y0368161D01*
X0098092Y0368186D01*
X0098045Y0368214D01*
X0098000Y0368245D01*
X0097958Y0368279D01*
X0097918Y0368317D01*
X0097880Y0368357D01*
X0097846Y0368399D01*
X0097815Y0368444D01*
X0097787Y0368491D01*
X0097762Y0368540D01*
X0097741Y0368591D01*
X0097724Y0368643D01*
X0097711Y0368696D01*
X0097701Y0368750D01*
X0097695Y0368804D01*
X0097693Y0368859D01*
X0096770Y0364170D02*
X0096772Y0364233D01*
X0096778Y0364296D01*
X0096787Y0364358D01*
X0096801Y0364419D01*
X0096818Y0364480D01*
X0096839Y0364539D01*
X0096864Y0364597D01*
X0096892Y0364654D01*
X0096923Y0364708D01*
X0096958Y0364760D01*
X0096996Y0364811D01*
X0097037Y0364859D01*
X0097081Y0364904D01*
X0097127Y0364946D01*
X0097176Y0364986D01*
X0097227Y0365022D01*
X0097281Y0365055D01*
X0097336Y0365085D01*
X0097394Y0365111D01*
X0097452Y0365134D01*
X0097512Y0365153D01*
X0097573Y0365168D01*
X0097635Y0365180D01*
X0097698Y0365188D01*
X0097761Y0365192D01*
X0097823Y0365192D01*
X0097886Y0365188D01*
X0097949Y0365180D01*
X0098011Y0365168D01*
X0098072Y0365153D01*
X0098132Y0365134D01*
X0098190Y0365111D01*
X0098248Y0365085D01*
X0098303Y0365055D01*
X0098357Y0365022D01*
X0098408Y0364986D01*
X0098457Y0364946D01*
X0098503Y0364904D01*
X0098547Y0364859D01*
X0098588Y0364811D01*
X0098626Y0364760D01*
X0098661Y0364708D01*
X0098692Y0364654D01*
X0098720Y0364597D01*
X0098745Y0364539D01*
X0098766Y0364480D01*
X0098783Y0364419D01*
X0098797Y0364358D01*
X0098806Y0364296D01*
X0098812Y0364233D01*
X0098814Y0364170D01*
X0098815Y0364170D02*
X0098815Y0362892D01*
X0098815Y0363659D02*
X0096770Y0363659D01*
X0096770Y0364170D01*
X0098048Y0362125D02*
X0098103Y0362127D01*
X0098157Y0362133D01*
X0098211Y0362143D01*
X0098264Y0362156D01*
X0098316Y0362173D01*
X0098367Y0362194D01*
X0098416Y0362219D01*
X0098463Y0362247D01*
X0098508Y0362278D01*
X0098550Y0362312D01*
X0098590Y0362350D01*
X0098628Y0362390D01*
X0098662Y0362432D01*
X0098693Y0362477D01*
X0098721Y0362524D01*
X0098746Y0362573D01*
X0098767Y0362624D01*
X0098784Y0362676D01*
X0098797Y0362729D01*
X0098807Y0362783D01*
X0098813Y0362837D01*
X0098815Y0362892D01*
X0098048Y0362125D02*
X0096770Y0362125D01*
X0094738Y0362125D02*
X0094738Y0365192D01*
X0093205Y0365192D01*
X0093205Y0364681D01*
X0091706Y0362892D02*
X0091706Y0366725D01*
X0089520Y0366725D02*
X0089265Y0366725D01*
X0089265Y0366470D01*
X0089520Y0366470D01*
X0089520Y0366725D01*
X0089392Y0365192D02*
X0089392Y0362125D01*
X0090939Y0362125D02*
X0090994Y0362127D01*
X0091048Y0362133D01*
X0091102Y0362143D01*
X0091155Y0362156D01*
X0091207Y0362173D01*
X0091258Y0362194D01*
X0091307Y0362219D01*
X0091354Y0362247D01*
X0091399Y0362278D01*
X0091441Y0362312D01*
X0091481Y0362350D01*
X0091519Y0362390D01*
X0091553Y0362432D01*
X0091584Y0362477D01*
X0091612Y0362524D01*
X0091637Y0362573D01*
X0091658Y0362624D01*
X0091675Y0362676D01*
X0091688Y0362729D01*
X0091698Y0362783D01*
X0091704Y0362837D01*
X0091706Y0362892D01*
X0087415Y0362125D02*
X0087415Y0365192D01*
X0086137Y0365192D01*
X0086082Y0365190D01*
X0086028Y0365184D01*
X0085974Y0365174D01*
X0085921Y0365161D01*
X0085869Y0365144D01*
X0085818Y0365123D01*
X0085769Y0365098D01*
X0085722Y0365070D01*
X0085677Y0365039D01*
X0085635Y0365005D01*
X0085595Y0364967D01*
X0085557Y0364927D01*
X0085523Y0364885D01*
X0085492Y0364840D01*
X0085464Y0364793D01*
X0085439Y0364744D01*
X0085418Y0364693D01*
X0085401Y0364641D01*
X0085388Y0364588D01*
X0085378Y0364534D01*
X0085372Y0364480D01*
X0085370Y0364425D01*
X0085370Y0362125D01*
X0083388Y0362892D02*
X0083388Y0364425D01*
X0083386Y0364480D01*
X0083380Y0364534D01*
X0083370Y0364588D01*
X0083357Y0364641D01*
X0083340Y0364693D01*
X0083319Y0364744D01*
X0083294Y0364793D01*
X0083266Y0364840D01*
X0083235Y0364885D01*
X0083201Y0364927D01*
X0083163Y0364967D01*
X0083123Y0365005D01*
X0083081Y0365039D01*
X0083036Y0365070D01*
X0082989Y0365098D01*
X0082940Y0365123D01*
X0082889Y0365144D01*
X0082837Y0365161D01*
X0082784Y0365174D01*
X0082730Y0365184D01*
X0082676Y0365190D01*
X0082621Y0365192D01*
X0081343Y0365192D01*
X0081343Y0361359D01*
X0081343Y0362125D02*
X0082621Y0362125D01*
X0082676Y0362127D01*
X0082730Y0362133D01*
X0082784Y0362143D01*
X0082837Y0362156D01*
X0082889Y0362173D01*
X0082940Y0362194D01*
X0082989Y0362219D01*
X0083036Y0362247D01*
X0083081Y0362278D01*
X0083123Y0362312D01*
X0083163Y0362350D01*
X0083201Y0362390D01*
X0083235Y0362432D01*
X0083266Y0362477D01*
X0083294Y0362524D01*
X0083319Y0362573D01*
X0083340Y0362624D01*
X0083357Y0362676D01*
X0083370Y0362729D01*
X0083380Y0362783D01*
X0083386Y0362837D01*
X0083388Y0362892D01*
X0081343Y0361359D02*
X0081345Y0361304D01*
X0081351Y0361250D01*
X0081361Y0361196D01*
X0081374Y0361143D01*
X0081391Y0361091D01*
X0081412Y0361040D01*
X0081437Y0360991D01*
X0081465Y0360944D01*
X0081496Y0360899D01*
X0081530Y0360857D01*
X0081568Y0360817D01*
X0081608Y0360779D01*
X0081650Y0360745D01*
X0081695Y0360714D01*
X0081742Y0360686D01*
X0081791Y0360661D01*
X0081842Y0360640D01*
X0081894Y0360623D01*
X0081947Y0360610D01*
X0082001Y0360600D01*
X0082055Y0360594D01*
X0082110Y0360592D01*
X0083132Y0360592D01*
X0083376Y0377125D02*
X0084653Y0377125D01*
X0084708Y0377127D01*
X0084762Y0377133D01*
X0084816Y0377143D01*
X0084869Y0377156D01*
X0084921Y0377173D01*
X0084972Y0377194D01*
X0085021Y0377219D01*
X0085068Y0377247D01*
X0085113Y0377278D01*
X0085155Y0377312D01*
X0085195Y0377350D01*
X0085233Y0377390D01*
X0085267Y0377432D01*
X0085298Y0377477D01*
X0085326Y0377524D01*
X0085351Y0377573D01*
X0085372Y0377624D01*
X0085389Y0377676D01*
X0085402Y0377729D01*
X0085412Y0377783D01*
X0085418Y0377837D01*
X0085420Y0377892D01*
X0085420Y0379170D01*
X0085420Y0378659D02*
X0083376Y0378659D01*
X0083376Y0379170D01*
X0083378Y0379233D01*
X0083384Y0379296D01*
X0083393Y0379358D01*
X0083407Y0379419D01*
X0083424Y0379480D01*
X0083445Y0379539D01*
X0083470Y0379597D01*
X0083498Y0379654D01*
X0083529Y0379708D01*
X0083564Y0379760D01*
X0083602Y0379811D01*
X0083643Y0379859D01*
X0083687Y0379904D01*
X0083733Y0379946D01*
X0083782Y0379986D01*
X0083833Y0380022D01*
X0083887Y0380055D01*
X0083942Y0380085D01*
X0084000Y0380111D01*
X0084058Y0380134D01*
X0084118Y0380153D01*
X0084179Y0380168D01*
X0084241Y0380180D01*
X0084304Y0380188D01*
X0084367Y0380192D01*
X0084429Y0380192D01*
X0084492Y0380188D01*
X0084555Y0380180D01*
X0084617Y0380168D01*
X0084678Y0380153D01*
X0084738Y0380134D01*
X0084796Y0380111D01*
X0084854Y0380085D01*
X0084909Y0380055D01*
X0084963Y0380022D01*
X0085014Y0379986D01*
X0085063Y0379946D01*
X0085109Y0379904D01*
X0085153Y0379859D01*
X0085194Y0379811D01*
X0085232Y0379760D01*
X0085267Y0379708D01*
X0085298Y0379654D01*
X0085326Y0379597D01*
X0085351Y0379539D01*
X0085372Y0379480D01*
X0085389Y0379419D01*
X0085403Y0379358D01*
X0085412Y0379296D01*
X0085418Y0379233D01*
X0085420Y0379170D01*
X0087426Y0379425D02*
X0087426Y0377125D01*
X0089470Y0377125D02*
X0089470Y0380192D01*
X0088192Y0380192D01*
X0088137Y0380190D01*
X0088083Y0380184D01*
X0088029Y0380174D01*
X0087976Y0380161D01*
X0087924Y0380144D01*
X0087873Y0380123D01*
X0087824Y0380098D01*
X0087777Y0380070D01*
X0087732Y0380039D01*
X0087690Y0380005D01*
X0087650Y0379967D01*
X0087612Y0379927D01*
X0087578Y0379885D01*
X0087547Y0379840D01*
X0087519Y0379793D01*
X0087494Y0379744D01*
X0087473Y0379693D01*
X0087456Y0379641D01*
X0087443Y0379588D01*
X0087433Y0379534D01*
X0087427Y0379480D01*
X0087425Y0379425D01*
X0087979Y0384625D02*
X0087979Y0387692D01*
X0086701Y0387692D01*
X0086646Y0387690D01*
X0086592Y0387684D01*
X0086538Y0387674D01*
X0086485Y0387661D01*
X0086433Y0387644D01*
X0086382Y0387623D01*
X0086333Y0387598D01*
X0086286Y0387570D01*
X0086241Y0387539D01*
X0086199Y0387505D01*
X0086159Y0387467D01*
X0086121Y0387427D01*
X0086087Y0387385D01*
X0086056Y0387340D01*
X0086028Y0387293D01*
X0086003Y0387244D01*
X0085982Y0387193D01*
X0085965Y0387141D01*
X0085952Y0387088D01*
X0085942Y0387034D01*
X0085936Y0386980D01*
X0085934Y0386925D01*
X0085935Y0386925D02*
X0085935Y0384625D01*
X0081326Y0384625D02*
X0081326Y0389225D01*
X0079281Y0389225D01*
X0079792Y0387181D02*
X0081326Y0387181D01*
X0081326Y0384625D02*
X0079281Y0384625D01*
X0076757Y0384625D02*
X0075735Y0387692D01*
X0073797Y0387692D02*
X0072774Y0387692D01*
X0072722Y0387690D01*
X0072670Y0387685D01*
X0072618Y0387676D01*
X0072567Y0387664D01*
X0072517Y0387648D01*
X0072468Y0387629D01*
X0072421Y0387606D01*
X0072375Y0387580D01*
X0072332Y0387552D01*
X0072290Y0387520D01*
X0072250Y0387486D01*
X0072213Y0387449D01*
X0072179Y0387409D01*
X0072147Y0387367D01*
X0072119Y0387324D01*
X0072093Y0387278D01*
X0072071Y0387231D01*
X0072051Y0387182D01*
X0072035Y0387132D01*
X0072023Y0387081D01*
X0072014Y0387029D01*
X0072009Y0386977D01*
X0072007Y0386925D01*
X0072008Y0386925D02*
X0072008Y0384625D01*
X0073158Y0384625D01*
X0073158Y0384626D02*
X0073216Y0384628D01*
X0073275Y0384634D01*
X0073332Y0384643D01*
X0073389Y0384656D01*
X0073445Y0384673D01*
X0073500Y0384694D01*
X0073553Y0384718D01*
X0073605Y0384746D01*
X0073655Y0384777D01*
X0073702Y0384811D01*
X0073747Y0384848D01*
X0073790Y0384888D01*
X0073830Y0384931D01*
X0073867Y0384976D01*
X0073901Y0385023D01*
X0073932Y0385073D01*
X0073960Y0385125D01*
X0073984Y0385178D01*
X0074005Y0385233D01*
X0074022Y0385289D01*
X0074035Y0385346D01*
X0074044Y0385403D01*
X0074050Y0385462D01*
X0074052Y0385520D01*
X0074050Y0385578D01*
X0074044Y0385637D01*
X0074035Y0385694D01*
X0074022Y0385751D01*
X0074005Y0385807D01*
X0073984Y0385862D01*
X0073960Y0385915D01*
X0073932Y0385967D01*
X0073901Y0386017D01*
X0073867Y0386064D01*
X0073830Y0386109D01*
X0073790Y0386152D01*
X0073747Y0386192D01*
X0073702Y0386229D01*
X0073655Y0386263D01*
X0073605Y0386294D01*
X0073553Y0386322D01*
X0073500Y0386346D01*
X0073445Y0386367D01*
X0073389Y0386384D01*
X0073332Y0386397D01*
X0073275Y0386406D01*
X0073216Y0386412D01*
X0073158Y0386414D01*
X0072008Y0386414D01*
X0069829Y0387692D02*
X0069829Y0384625D01*
X0067785Y0384625D02*
X0067785Y0386925D01*
X0067784Y0386925D02*
X0067786Y0386980D01*
X0067792Y0387034D01*
X0067802Y0387088D01*
X0067815Y0387141D01*
X0067832Y0387193D01*
X0067853Y0387244D01*
X0067878Y0387293D01*
X0067906Y0387340D01*
X0067937Y0387385D01*
X0067971Y0387427D01*
X0068009Y0387467D01*
X0068049Y0387505D01*
X0068091Y0387539D01*
X0068136Y0387570D01*
X0068183Y0387598D01*
X0068232Y0387623D01*
X0068283Y0387644D01*
X0068335Y0387661D01*
X0068388Y0387674D01*
X0068442Y0387684D01*
X0068496Y0387690D01*
X0068551Y0387692D01*
X0069829Y0387692D01*
X0065396Y0386414D02*
X0064118Y0385903D01*
X0064118Y0385904D02*
X0064071Y0385883D01*
X0064026Y0385858D01*
X0063983Y0385831D01*
X0063943Y0385800D01*
X0063904Y0385766D01*
X0063869Y0385729D01*
X0063836Y0385690D01*
X0063807Y0385648D01*
X0063781Y0385604D01*
X0063758Y0385558D01*
X0063739Y0385511D01*
X0063724Y0385462D01*
X0063713Y0385412D01*
X0063705Y0385361D01*
X0063701Y0385310D01*
X0063702Y0385259D01*
X0063706Y0385208D01*
X0063714Y0385158D01*
X0063726Y0385108D01*
X0063742Y0385060D01*
X0063761Y0385012D01*
X0063784Y0384967D01*
X0063810Y0384923D01*
X0063840Y0384882D01*
X0063873Y0384842D01*
X0063909Y0384806D01*
X0063947Y0384772D01*
X0063988Y0384742D01*
X0064031Y0384714D01*
X0064077Y0384691D01*
X0064124Y0384670D01*
X0064172Y0384653D01*
X0064221Y0384641D01*
X0064272Y0384631D01*
X0064322Y0384626D01*
X0064373Y0384625D01*
X0063991Y0387436D02*
X0064081Y0387475D01*
X0064174Y0387511D01*
X0064267Y0387544D01*
X0064361Y0387573D01*
X0064456Y0387600D01*
X0064552Y0387623D01*
X0064649Y0387643D01*
X0064747Y0387659D01*
X0064845Y0387672D01*
X0064943Y0387682D01*
X0065042Y0387689D01*
X0065141Y0387692D01*
X0065192Y0387691D01*
X0065242Y0387686D01*
X0065293Y0387676D01*
X0065342Y0387664D01*
X0065390Y0387647D01*
X0065437Y0387626D01*
X0065483Y0387603D01*
X0065526Y0387575D01*
X0065567Y0387545D01*
X0065605Y0387511D01*
X0065641Y0387475D01*
X0065674Y0387435D01*
X0065704Y0387394D01*
X0065730Y0387350D01*
X0065753Y0387305D01*
X0065772Y0387257D01*
X0065788Y0387209D01*
X0065800Y0387159D01*
X0065808Y0387109D01*
X0065812Y0387058D01*
X0065813Y0387007D01*
X0065809Y0386956D01*
X0065801Y0386905D01*
X0065790Y0386855D01*
X0065775Y0386806D01*
X0065756Y0386759D01*
X0065733Y0386713D01*
X0065707Y0386669D01*
X0065678Y0386627D01*
X0065645Y0386588D01*
X0065610Y0386551D01*
X0065571Y0386517D01*
X0065531Y0386486D01*
X0065488Y0386459D01*
X0065443Y0386434D01*
X0065396Y0386413D01*
X0065779Y0384881D02*
X0065656Y0384839D01*
X0065531Y0384800D01*
X0065406Y0384765D01*
X0065279Y0384734D01*
X0065151Y0384707D01*
X0065023Y0384684D01*
X0064894Y0384664D01*
X0064764Y0384649D01*
X0064635Y0384637D01*
X0064504Y0384629D01*
X0064374Y0384625D01*
X0064731Y0380192D02*
X0067031Y0380192D01*
X0067031Y0377125D01*
X0065498Y0377125D02*
X0065498Y0380192D01*
X0064731Y0380192D02*
X0064676Y0380190D01*
X0064622Y0380184D01*
X0064568Y0380174D01*
X0064515Y0380161D01*
X0064463Y0380144D01*
X0064412Y0380123D01*
X0064363Y0380098D01*
X0064316Y0380070D01*
X0064271Y0380039D01*
X0064229Y0380005D01*
X0064189Y0379967D01*
X0064151Y0379927D01*
X0064117Y0379885D01*
X0064086Y0379840D01*
X0064058Y0379793D01*
X0064033Y0379744D01*
X0064012Y0379693D01*
X0063995Y0379641D01*
X0063982Y0379588D01*
X0063972Y0379534D01*
X0063966Y0379480D01*
X0063964Y0379425D01*
X0063965Y0379425D02*
X0063965Y0377125D01*
X0059426Y0378147D02*
X0056870Y0378147D01*
X0057637Y0377125D02*
X0057637Y0379170D01*
X0059426Y0378147D02*
X0058403Y0381725D01*
X0054976Y0379809D02*
X0054720Y0379809D01*
X0054720Y0379553D01*
X0054976Y0379553D01*
X0054976Y0379809D01*
X0054976Y0377764D02*
X0054720Y0377764D01*
X0054720Y0377509D01*
X0054976Y0377509D01*
X0054976Y0377764D01*
X0049937Y0379809D02*
X0048531Y0379042D01*
X0049042Y0377126D02*
X0049132Y0377128D01*
X0049221Y0377133D01*
X0049310Y0377143D01*
X0049399Y0377156D01*
X0049487Y0377172D01*
X0049575Y0377193D01*
X0049661Y0377217D01*
X0049747Y0377244D01*
X0049831Y0377275D01*
X0049914Y0377310D01*
X0049995Y0377348D01*
X0050075Y0377389D01*
X0050152Y0377433D01*
X0050228Y0377481D01*
X0050302Y0377532D01*
X0050374Y0377586D01*
X0050444Y0377643D01*
X0050511Y0377702D01*
X0050575Y0377765D01*
X0048531Y0379041D02*
X0048477Y0379007D01*
X0048426Y0378970D01*
X0048377Y0378930D01*
X0048330Y0378887D01*
X0048287Y0378841D01*
X0048246Y0378793D01*
X0048208Y0378742D01*
X0048173Y0378689D01*
X0048141Y0378634D01*
X0048113Y0378577D01*
X0048089Y0378519D01*
X0048068Y0378459D01*
X0048051Y0378398D01*
X0048037Y0378336D01*
X0048028Y0378273D01*
X0048022Y0378210D01*
X0048020Y0378147D01*
X0048022Y0378085D01*
X0048027Y0378024D01*
X0048037Y0377963D01*
X0048050Y0377902D01*
X0048066Y0377843D01*
X0048086Y0377785D01*
X0048110Y0377728D01*
X0048137Y0377672D01*
X0048167Y0377618D01*
X0048201Y0377566D01*
X0048237Y0377517D01*
X0048277Y0377469D01*
X0048319Y0377424D01*
X0048364Y0377382D01*
X0048412Y0377342D01*
X0048461Y0377306D01*
X0048513Y0377272D01*
X0048567Y0377242D01*
X0048623Y0377215D01*
X0048680Y0377191D01*
X0048738Y0377171D01*
X0048797Y0377155D01*
X0048858Y0377142D01*
X0048919Y0377132D01*
X0048980Y0377127D01*
X0049042Y0377125D01*
X0048276Y0381343D02*
X0048343Y0381391D01*
X0048411Y0381436D01*
X0048482Y0381478D01*
X0048555Y0381516D01*
X0048629Y0381552D01*
X0048704Y0381585D01*
X0048781Y0381614D01*
X0048859Y0381640D01*
X0048938Y0381663D01*
X0049018Y0381682D01*
X0049099Y0381698D01*
X0049180Y0381710D01*
X0049262Y0381719D01*
X0049344Y0381724D01*
X0049426Y0381726D01*
X0049426Y0381725D02*
X0049488Y0381723D01*
X0049549Y0381718D01*
X0049610Y0381708D01*
X0049671Y0381695D01*
X0049730Y0381679D01*
X0049788Y0381659D01*
X0049845Y0381635D01*
X0049901Y0381608D01*
X0049955Y0381578D01*
X0050007Y0381544D01*
X0050056Y0381508D01*
X0050104Y0381468D01*
X0050149Y0381426D01*
X0050191Y0381381D01*
X0050231Y0381333D01*
X0050267Y0381284D01*
X0050301Y0381232D01*
X0050331Y0381178D01*
X0050358Y0381122D01*
X0050382Y0381065D01*
X0050402Y0381007D01*
X0050418Y0380948D01*
X0050431Y0380887D01*
X0050441Y0380826D01*
X0050446Y0380765D01*
X0050448Y0380703D01*
X0050446Y0380640D01*
X0050440Y0380577D01*
X0050431Y0380514D01*
X0050417Y0380452D01*
X0050400Y0380391D01*
X0050379Y0380331D01*
X0050355Y0380273D01*
X0050327Y0380216D01*
X0050295Y0380161D01*
X0050260Y0380108D01*
X0050222Y0380057D01*
X0050181Y0380009D01*
X0050138Y0379963D01*
X0050091Y0379920D01*
X0050042Y0379880D01*
X0049991Y0379843D01*
X0049937Y0379809D01*
X0046076Y0380703D02*
X0046076Y0378147D01*
X0046074Y0378085D01*
X0046069Y0378024D01*
X0046059Y0377963D01*
X0046046Y0377902D01*
X0046030Y0377843D01*
X0046010Y0377785D01*
X0045986Y0377728D01*
X0045959Y0377672D01*
X0045929Y0377618D01*
X0045895Y0377566D01*
X0045859Y0377517D01*
X0045819Y0377469D01*
X0045777Y0377424D01*
X0045732Y0377382D01*
X0045684Y0377342D01*
X0045635Y0377306D01*
X0045583Y0377272D01*
X0045529Y0377242D01*
X0045473Y0377215D01*
X0045416Y0377191D01*
X0045358Y0377171D01*
X0045299Y0377155D01*
X0045238Y0377142D01*
X0045177Y0377132D01*
X0045116Y0377127D01*
X0045054Y0377125D01*
X0043520Y0377125D01*
X0043520Y0379681D01*
X0044287Y0379681D01*
X0046076Y0380703D02*
X0046074Y0380765D01*
X0046069Y0380826D01*
X0046059Y0380887D01*
X0046046Y0380948D01*
X0046030Y0381007D01*
X0046010Y0381065D01*
X0045986Y0381122D01*
X0045959Y0381178D01*
X0045929Y0381232D01*
X0045895Y0381284D01*
X0045859Y0381333D01*
X0045819Y0381381D01*
X0045777Y0381426D01*
X0045732Y0381468D01*
X0045684Y0381508D01*
X0045635Y0381544D01*
X0045583Y0381578D01*
X0045529Y0381608D01*
X0045473Y0381635D01*
X0045416Y0381659D01*
X0045358Y0381679D01*
X0045299Y0381695D01*
X0045238Y0381708D01*
X0045177Y0381718D01*
X0045116Y0381723D01*
X0045054Y0381725D01*
X0043520Y0381725D01*
X0040937Y0379809D02*
X0039531Y0379042D01*
X0040042Y0377126D02*
X0040132Y0377128D01*
X0040221Y0377133D01*
X0040310Y0377143D01*
X0040399Y0377156D01*
X0040487Y0377172D01*
X0040575Y0377193D01*
X0040661Y0377217D01*
X0040747Y0377244D01*
X0040831Y0377275D01*
X0040914Y0377310D01*
X0040995Y0377348D01*
X0041075Y0377389D01*
X0041152Y0377433D01*
X0041228Y0377481D01*
X0041302Y0377532D01*
X0041374Y0377586D01*
X0041444Y0377643D01*
X0041511Y0377702D01*
X0041575Y0377765D01*
X0039531Y0379041D02*
X0039477Y0379007D01*
X0039426Y0378970D01*
X0039377Y0378930D01*
X0039330Y0378887D01*
X0039287Y0378841D01*
X0039246Y0378793D01*
X0039208Y0378742D01*
X0039173Y0378689D01*
X0039141Y0378634D01*
X0039113Y0378577D01*
X0039089Y0378519D01*
X0039068Y0378459D01*
X0039051Y0378398D01*
X0039037Y0378336D01*
X0039028Y0378273D01*
X0039022Y0378210D01*
X0039020Y0378147D01*
X0039022Y0378085D01*
X0039027Y0378024D01*
X0039037Y0377963D01*
X0039050Y0377902D01*
X0039066Y0377843D01*
X0039086Y0377785D01*
X0039110Y0377728D01*
X0039137Y0377672D01*
X0039167Y0377618D01*
X0039201Y0377566D01*
X0039237Y0377517D01*
X0039277Y0377469D01*
X0039319Y0377424D01*
X0039364Y0377382D01*
X0039412Y0377342D01*
X0039461Y0377306D01*
X0039513Y0377272D01*
X0039567Y0377242D01*
X0039623Y0377215D01*
X0039680Y0377191D01*
X0039738Y0377171D01*
X0039797Y0377155D01*
X0039858Y0377142D01*
X0039919Y0377132D01*
X0039980Y0377127D01*
X0040042Y0377125D01*
X0039276Y0381343D02*
X0039343Y0381391D01*
X0039411Y0381436D01*
X0039482Y0381478D01*
X0039555Y0381516D01*
X0039629Y0381552D01*
X0039704Y0381585D01*
X0039781Y0381614D01*
X0039859Y0381640D01*
X0039938Y0381663D01*
X0040018Y0381682D01*
X0040099Y0381698D01*
X0040180Y0381710D01*
X0040262Y0381719D01*
X0040344Y0381724D01*
X0040426Y0381726D01*
X0040426Y0381725D02*
X0040488Y0381723D01*
X0040549Y0381718D01*
X0040610Y0381708D01*
X0040671Y0381695D01*
X0040730Y0381679D01*
X0040788Y0381659D01*
X0040845Y0381635D01*
X0040901Y0381608D01*
X0040955Y0381578D01*
X0041007Y0381544D01*
X0041056Y0381508D01*
X0041104Y0381468D01*
X0041149Y0381426D01*
X0041191Y0381381D01*
X0041231Y0381333D01*
X0041267Y0381284D01*
X0041301Y0381232D01*
X0041331Y0381178D01*
X0041358Y0381122D01*
X0041382Y0381065D01*
X0041402Y0381007D01*
X0041418Y0380948D01*
X0041431Y0380887D01*
X0041441Y0380826D01*
X0041446Y0380765D01*
X0041448Y0380703D01*
X0041446Y0380640D01*
X0041440Y0380577D01*
X0041431Y0380514D01*
X0041417Y0380452D01*
X0041400Y0380391D01*
X0041379Y0380331D01*
X0041355Y0380273D01*
X0041327Y0380216D01*
X0041295Y0380161D01*
X0041260Y0380108D01*
X0041222Y0380057D01*
X0041181Y0380009D01*
X0041138Y0379963D01*
X0041091Y0379920D01*
X0041042Y0379880D01*
X0040991Y0379843D01*
X0040937Y0379809D01*
X0034647Y0379170D02*
X0033369Y0379170D01*
X0033113Y0379170D02*
X0032091Y0377125D01*
X0030220Y0377892D02*
X0030220Y0379170D01*
X0030220Y0378659D02*
X0028176Y0378659D01*
X0028176Y0379170D01*
X0028178Y0379233D01*
X0028184Y0379296D01*
X0028193Y0379358D01*
X0028207Y0379419D01*
X0028224Y0379480D01*
X0028245Y0379539D01*
X0028270Y0379597D01*
X0028298Y0379654D01*
X0028329Y0379708D01*
X0028364Y0379760D01*
X0028402Y0379811D01*
X0028443Y0379859D01*
X0028487Y0379904D01*
X0028533Y0379946D01*
X0028582Y0379986D01*
X0028633Y0380022D01*
X0028687Y0380055D01*
X0028742Y0380085D01*
X0028800Y0380111D01*
X0028858Y0380134D01*
X0028918Y0380153D01*
X0028979Y0380168D01*
X0029041Y0380180D01*
X0029104Y0380188D01*
X0029167Y0380192D01*
X0029229Y0380192D01*
X0029292Y0380188D01*
X0029355Y0380180D01*
X0029417Y0380168D01*
X0029478Y0380153D01*
X0029538Y0380134D01*
X0029596Y0380111D01*
X0029654Y0380085D01*
X0029709Y0380055D01*
X0029763Y0380022D01*
X0029814Y0379986D01*
X0029863Y0379946D01*
X0029909Y0379904D01*
X0029953Y0379859D01*
X0029994Y0379811D01*
X0030032Y0379760D01*
X0030067Y0379708D01*
X0030098Y0379654D01*
X0030126Y0379597D01*
X0030151Y0379539D01*
X0030172Y0379480D01*
X0030189Y0379419D01*
X0030203Y0379358D01*
X0030212Y0379296D01*
X0030218Y0379233D01*
X0030220Y0379170D01*
X0030221Y0377892D02*
X0030219Y0377837D01*
X0030213Y0377783D01*
X0030203Y0377729D01*
X0030190Y0377676D01*
X0030173Y0377624D01*
X0030152Y0377573D01*
X0030127Y0377524D01*
X0030099Y0377477D01*
X0030068Y0377432D01*
X0030034Y0377390D01*
X0029996Y0377350D01*
X0029956Y0377312D01*
X0029914Y0377278D01*
X0029869Y0377247D01*
X0029822Y0377219D01*
X0029773Y0377194D01*
X0029722Y0377173D01*
X0029670Y0377156D01*
X0029617Y0377143D01*
X0029563Y0377133D01*
X0029509Y0377127D01*
X0029454Y0377125D01*
X0028176Y0377125D01*
X0025448Y0377125D02*
X0024426Y0380192D01*
X0026470Y0380192D02*
X0025448Y0377125D01*
X0022876Y0377125D02*
X0022620Y0377125D01*
X0022620Y0377381D01*
X0022876Y0377381D01*
X0022876Y0377125D01*
X0018476Y0377125D02*
X0015920Y0377125D01*
X0018476Y0377125D02*
X0016304Y0379681D01*
X0017070Y0381725D02*
X0017144Y0381723D01*
X0017218Y0381718D01*
X0017292Y0381708D01*
X0017365Y0381695D01*
X0017438Y0381679D01*
X0017509Y0381658D01*
X0017579Y0381634D01*
X0017648Y0381607D01*
X0017716Y0381576D01*
X0017782Y0381542D01*
X0017846Y0381505D01*
X0017908Y0381464D01*
X0017969Y0381420D01*
X0018026Y0381374D01*
X0018082Y0381324D01*
X0018135Y0381272D01*
X0018185Y0381217D01*
X0018232Y0381160D01*
X0018276Y0381100D01*
X0018318Y0381038D01*
X0018356Y0380975D01*
X0018391Y0380909D01*
X0018422Y0380842D01*
X0018450Y0380773D01*
X0018475Y0380703D01*
X0016303Y0379681D02*
X0016256Y0379728D01*
X0016212Y0379778D01*
X0016170Y0379830D01*
X0016131Y0379884D01*
X0016096Y0379940D01*
X0016063Y0379998D01*
X0016033Y0380058D01*
X0016007Y0380119D01*
X0015984Y0380182D01*
X0015965Y0380246D01*
X0015949Y0380310D01*
X0015936Y0380376D01*
X0015927Y0380442D01*
X0015922Y0380508D01*
X0015920Y0380575D01*
X0015922Y0380642D01*
X0015928Y0380709D01*
X0015937Y0380775D01*
X0015951Y0380840D01*
X0015968Y0380905D01*
X0015989Y0380968D01*
X0016014Y0381030D01*
X0016042Y0381091D01*
X0016074Y0381150D01*
X0016109Y0381207D01*
X0016148Y0381262D01*
X0016189Y0381314D01*
X0016234Y0381364D01*
X0016281Y0381411D01*
X0016331Y0381456D01*
X0016383Y0381497D01*
X0016438Y0381536D01*
X0016495Y0381571D01*
X0016554Y0381603D01*
X0016615Y0381631D01*
X0016677Y0381656D01*
X0016740Y0381677D01*
X0016805Y0381694D01*
X0016870Y0381708D01*
X0016936Y0381717D01*
X0017003Y0381723D01*
X0017070Y0381725D01*
X0033369Y0381725D02*
X0034647Y0381725D01*
X0034647Y0377125D01*
X0033369Y0379169D02*
X0033299Y0379171D01*
X0033228Y0379177D01*
X0033159Y0379186D01*
X0033090Y0379200D01*
X0033021Y0379217D01*
X0032954Y0379238D01*
X0032888Y0379263D01*
X0032824Y0379291D01*
X0032761Y0379323D01*
X0032700Y0379358D01*
X0032641Y0379397D01*
X0032584Y0379438D01*
X0032530Y0379483D01*
X0032478Y0379531D01*
X0032429Y0379581D01*
X0032382Y0379635D01*
X0032339Y0379690D01*
X0032299Y0379748D01*
X0032262Y0379808D01*
X0032229Y0379870D01*
X0032199Y0379934D01*
X0032172Y0379999D01*
X0032149Y0380065D01*
X0032130Y0380133D01*
X0032115Y0380202D01*
X0032103Y0380271D01*
X0032095Y0380341D01*
X0032091Y0380412D01*
X0032091Y0380482D01*
X0032095Y0380553D01*
X0032103Y0380623D01*
X0032115Y0380692D01*
X0032130Y0380761D01*
X0032149Y0380829D01*
X0032172Y0380895D01*
X0032199Y0380960D01*
X0032229Y0381024D01*
X0032262Y0381086D01*
X0032299Y0381146D01*
X0032339Y0381204D01*
X0032382Y0381259D01*
X0032429Y0381313D01*
X0032478Y0381363D01*
X0032530Y0381411D01*
X0032584Y0381456D01*
X0032641Y0381497D01*
X0032700Y0381536D01*
X0032761Y0381571D01*
X0032824Y0381603D01*
X0032888Y0381631D01*
X0032954Y0381656D01*
X0033021Y0381677D01*
X0033090Y0381694D01*
X0033159Y0381708D01*
X0033228Y0381717D01*
X0033299Y0381723D01*
X0033369Y0381725D01*
X0069299Y0379425D02*
X0069299Y0377125D01*
X0070449Y0377125D01*
X0070449Y0377126D02*
X0070507Y0377128D01*
X0070566Y0377134D01*
X0070623Y0377143D01*
X0070680Y0377156D01*
X0070736Y0377173D01*
X0070791Y0377194D01*
X0070844Y0377218D01*
X0070896Y0377246D01*
X0070946Y0377277D01*
X0070993Y0377311D01*
X0071038Y0377348D01*
X0071081Y0377388D01*
X0071121Y0377431D01*
X0071158Y0377476D01*
X0071192Y0377523D01*
X0071223Y0377573D01*
X0071251Y0377625D01*
X0071275Y0377678D01*
X0071296Y0377733D01*
X0071313Y0377789D01*
X0071326Y0377846D01*
X0071335Y0377903D01*
X0071341Y0377962D01*
X0071343Y0378020D01*
X0071341Y0378078D01*
X0071335Y0378137D01*
X0071326Y0378194D01*
X0071313Y0378251D01*
X0071296Y0378307D01*
X0071275Y0378362D01*
X0071251Y0378415D01*
X0071223Y0378467D01*
X0071192Y0378517D01*
X0071158Y0378564D01*
X0071121Y0378609D01*
X0071081Y0378652D01*
X0071038Y0378692D01*
X0070993Y0378729D01*
X0070946Y0378763D01*
X0070896Y0378794D01*
X0070844Y0378822D01*
X0070791Y0378846D01*
X0070736Y0378867D01*
X0070680Y0378884D01*
X0070623Y0378897D01*
X0070566Y0378906D01*
X0070507Y0378912D01*
X0070449Y0378914D01*
X0069299Y0378914D01*
X0069299Y0379425D02*
X0069301Y0379477D01*
X0069306Y0379529D01*
X0069315Y0379581D01*
X0069327Y0379632D01*
X0069343Y0379682D01*
X0069363Y0379731D01*
X0069385Y0379778D01*
X0069411Y0379824D01*
X0069439Y0379867D01*
X0069471Y0379909D01*
X0069505Y0379949D01*
X0069542Y0379986D01*
X0069582Y0380020D01*
X0069624Y0380052D01*
X0069667Y0380080D01*
X0069713Y0380106D01*
X0069760Y0380129D01*
X0069809Y0380148D01*
X0069859Y0380164D01*
X0069910Y0380176D01*
X0069962Y0380185D01*
X0070014Y0380190D01*
X0070066Y0380192D01*
X0071088Y0380192D01*
X0073176Y0379170D02*
X0073176Y0378659D01*
X0075220Y0378659D01*
X0075220Y0379170D02*
X0075220Y0377892D01*
X0075218Y0377837D01*
X0075212Y0377783D01*
X0075202Y0377729D01*
X0075189Y0377676D01*
X0075172Y0377624D01*
X0075151Y0377573D01*
X0075126Y0377524D01*
X0075098Y0377477D01*
X0075067Y0377432D01*
X0075033Y0377390D01*
X0074995Y0377350D01*
X0074955Y0377312D01*
X0074913Y0377278D01*
X0074868Y0377247D01*
X0074821Y0377219D01*
X0074772Y0377194D01*
X0074721Y0377173D01*
X0074669Y0377156D01*
X0074616Y0377143D01*
X0074562Y0377133D01*
X0074508Y0377127D01*
X0074453Y0377125D01*
X0073176Y0377125D01*
X0073176Y0379170D02*
X0073178Y0379233D01*
X0073184Y0379296D01*
X0073193Y0379358D01*
X0073207Y0379419D01*
X0073224Y0379480D01*
X0073245Y0379539D01*
X0073270Y0379597D01*
X0073298Y0379654D01*
X0073329Y0379708D01*
X0073364Y0379760D01*
X0073402Y0379811D01*
X0073443Y0379859D01*
X0073487Y0379904D01*
X0073533Y0379946D01*
X0073582Y0379986D01*
X0073633Y0380022D01*
X0073687Y0380055D01*
X0073742Y0380085D01*
X0073800Y0380111D01*
X0073858Y0380134D01*
X0073918Y0380153D01*
X0073979Y0380168D01*
X0074041Y0380180D01*
X0074104Y0380188D01*
X0074167Y0380192D01*
X0074229Y0380192D01*
X0074292Y0380188D01*
X0074355Y0380180D01*
X0074417Y0380168D01*
X0074478Y0380153D01*
X0074538Y0380134D01*
X0074596Y0380111D01*
X0074654Y0380085D01*
X0074709Y0380055D01*
X0074763Y0380022D01*
X0074814Y0379986D01*
X0074863Y0379946D01*
X0074909Y0379904D01*
X0074953Y0379859D01*
X0074994Y0379811D01*
X0075032Y0379760D01*
X0075067Y0379708D01*
X0075098Y0379654D01*
X0075126Y0379597D01*
X0075151Y0379539D01*
X0075172Y0379480D01*
X0075189Y0379419D01*
X0075203Y0379358D01*
X0075212Y0379296D01*
X0075218Y0379233D01*
X0075220Y0379170D01*
X0076820Y0381725D02*
X0079376Y0381725D01*
X0078098Y0381725D02*
X0078098Y0377125D01*
X0076757Y0384625D02*
X0077779Y0387692D01*
X0102691Y0366725D02*
X0102691Y0362125D01*
X0101414Y0362125D01*
X0101359Y0362127D01*
X0101305Y0362133D01*
X0101251Y0362143D01*
X0101198Y0362156D01*
X0101146Y0362173D01*
X0101095Y0362194D01*
X0101046Y0362219D01*
X0100999Y0362247D01*
X0100954Y0362278D01*
X0100912Y0362312D01*
X0100872Y0362350D01*
X0100834Y0362390D01*
X0100800Y0362432D01*
X0100769Y0362477D01*
X0100741Y0362524D01*
X0100716Y0362573D01*
X0100695Y0362624D01*
X0100678Y0362676D01*
X0100665Y0362729D01*
X0100655Y0362783D01*
X0100649Y0362837D01*
X0100647Y0362892D01*
X0100647Y0364425D01*
X0100649Y0364477D01*
X0100654Y0364529D01*
X0100663Y0364581D01*
X0100675Y0364632D01*
X0100691Y0364682D01*
X0100711Y0364731D01*
X0100733Y0364778D01*
X0100759Y0364824D01*
X0100787Y0364867D01*
X0100819Y0364909D01*
X0100853Y0364949D01*
X0100890Y0364986D01*
X0100930Y0365020D01*
X0100972Y0365052D01*
X0101015Y0365080D01*
X0101061Y0365106D01*
X0101108Y0365129D01*
X0101157Y0365148D01*
X0101207Y0365164D01*
X0101258Y0365176D01*
X0101310Y0365185D01*
X0101362Y0365190D01*
X0101414Y0365192D01*
X0102691Y0365192D01*
X0104720Y0364170D02*
X0104720Y0363147D01*
X0104722Y0363084D01*
X0104728Y0363021D01*
X0104737Y0362959D01*
X0104751Y0362898D01*
X0104768Y0362837D01*
X0104789Y0362778D01*
X0104814Y0362720D01*
X0104842Y0362663D01*
X0104873Y0362609D01*
X0104908Y0362557D01*
X0104946Y0362506D01*
X0104987Y0362458D01*
X0105031Y0362413D01*
X0105077Y0362371D01*
X0105126Y0362331D01*
X0105177Y0362295D01*
X0105231Y0362262D01*
X0105286Y0362232D01*
X0105344Y0362206D01*
X0105402Y0362183D01*
X0105462Y0362164D01*
X0105523Y0362149D01*
X0105585Y0362137D01*
X0105648Y0362129D01*
X0105711Y0362125D01*
X0105773Y0362125D01*
X0105836Y0362129D01*
X0105899Y0362137D01*
X0105961Y0362149D01*
X0106022Y0362164D01*
X0106082Y0362183D01*
X0106140Y0362206D01*
X0106198Y0362232D01*
X0106253Y0362262D01*
X0106307Y0362295D01*
X0106358Y0362331D01*
X0106407Y0362371D01*
X0106453Y0362413D01*
X0106497Y0362458D01*
X0106538Y0362506D01*
X0106576Y0362557D01*
X0106611Y0362609D01*
X0106642Y0362663D01*
X0106670Y0362720D01*
X0106695Y0362778D01*
X0106716Y0362837D01*
X0106733Y0362898D01*
X0106747Y0362959D01*
X0106756Y0363021D01*
X0106762Y0363084D01*
X0106764Y0363147D01*
X0106765Y0363147D02*
X0106765Y0364170D01*
X0106764Y0364170D02*
X0106762Y0364233D01*
X0106756Y0364296D01*
X0106747Y0364358D01*
X0106733Y0364419D01*
X0106716Y0364480D01*
X0106695Y0364539D01*
X0106670Y0364597D01*
X0106642Y0364654D01*
X0106611Y0364708D01*
X0106576Y0364760D01*
X0106538Y0364811D01*
X0106497Y0364859D01*
X0106453Y0364904D01*
X0106407Y0364946D01*
X0106358Y0364986D01*
X0106307Y0365022D01*
X0106253Y0365055D01*
X0106198Y0365085D01*
X0106140Y0365111D01*
X0106082Y0365134D01*
X0106022Y0365153D01*
X0105961Y0365168D01*
X0105899Y0365180D01*
X0105836Y0365188D01*
X0105773Y0365192D01*
X0105711Y0365192D01*
X0105648Y0365188D01*
X0105585Y0365180D01*
X0105523Y0365168D01*
X0105462Y0365153D01*
X0105402Y0365134D01*
X0105344Y0365111D01*
X0105286Y0365085D01*
X0105231Y0365055D01*
X0105177Y0365022D01*
X0105126Y0364986D01*
X0105077Y0364946D01*
X0105031Y0364904D01*
X0104987Y0364859D01*
X0104946Y0364811D01*
X0104908Y0364760D01*
X0104873Y0364708D01*
X0104842Y0364654D01*
X0104814Y0364597D01*
X0104789Y0364539D01*
X0104768Y0364480D01*
X0104751Y0364419D01*
X0104737Y0364358D01*
X0104728Y0364296D01*
X0104722Y0364233D01*
X0104720Y0364170D01*
X0108815Y0364681D02*
X0108815Y0362125D01*
X0110348Y0362125D01*
X0110410Y0362127D01*
X0110471Y0362132D01*
X0110532Y0362142D01*
X0110593Y0362155D01*
X0110652Y0362171D01*
X0110710Y0362191D01*
X0110767Y0362215D01*
X0110823Y0362242D01*
X0110877Y0362272D01*
X0110929Y0362306D01*
X0110978Y0362342D01*
X0111026Y0362382D01*
X0111071Y0362424D01*
X0111113Y0362469D01*
X0111153Y0362517D01*
X0111189Y0362566D01*
X0111223Y0362618D01*
X0111253Y0362672D01*
X0111280Y0362728D01*
X0111304Y0362785D01*
X0111324Y0362843D01*
X0111340Y0362902D01*
X0111353Y0362963D01*
X0111363Y0363024D01*
X0111368Y0363085D01*
X0111370Y0363147D01*
X0111370Y0365703D01*
X0111368Y0365765D01*
X0111363Y0365826D01*
X0111353Y0365887D01*
X0111340Y0365948D01*
X0111324Y0366007D01*
X0111304Y0366065D01*
X0111280Y0366122D01*
X0111253Y0366178D01*
X0111223Y0366232D01*
X0111189Y0366284D01*
X0111153Y0366333D01*
X0111113Y0366381D01*
X0111071Y0366426D01*
X0111026Y0366468D01*
X0110978Y0366508D01*
X0110929Y0366544D01*
X0110877Y0366578D01*
X0110823Y0366608D01*
X0110767Y0366635D01*
X0110710Y0366659D01*
X0110652Y0366679D01*
X0110593Y0366695D01*
X0110532Y0366708D01*
X0110471Y0366718D01*
X0110410Y0366723D01*
X0110348Y0366725D01*
X0108815Y0366725D01*
X0108815Y0364681D02*
X0109581Y0364681D01*
X0109689Y0369625D02*
X0109744Y0369627D01*
X0109798Y0369633D01*
X0109852Y0369643D01*
X0109905Y0369656D01*
X0109957Y0369673D01*
X0110008Y0369694D01*
X0110057Y0369719D01*
X0110104Y0369747D01*
X0110149Y0369778D01*
X0110191Y0369812D01*
X0110231Y0369850D01*
X0110269Y0369890D01*
X0110303Y0369932D01*
X0110334Y0369977D01*
X0110362Y0370024D01*
X0110387Y0370073D01*
X0110408Y0370124D01*
X0110425Y0370176D01*
X0110438Y0370229D01*
X0110448Y0370283D01*
X0110454Y0370337D01*
X0110456Y0370392D01*
X0116306Y0362892D02*
X0116304Y0362837D01*
X0116298Y0362783D01*
X0116288Y0362729D01*
X0116275Y0362676D01*
X0116258Y0362624D01*
X0116237Y0362573D01*
X0116212Y0362524D01*
X0116184Y0362477D01*
X0116153Y0362432D01*
X0116119Y0362390D01*
X0116081Y0362350D01*
X0116041Y0362312D01*
X0115999Y0362278D01*
X0115954Y0362247D01*
X0115907Y0362219D01*
X0115858Y0362194D01*
X0115807Y0362173D01*
X0115755Y0362156D01*
X0115702Y0362143D01*
X0115648Y0362133D01*
X0115594Y0362127D01*
X0115539Y0362125D01*
X0105953Y0384625D02*
X0105953Y0387692D01*
M02*
