%
M48
M72
T01C0.0138
T02C0.0315
T03C0.0320
T04C0.0335
T05C0.0394
T06C0.0400
T07C0.0472
T08C0.1394
T09C0.1402
%
T01
X21984Y24860
X22544Y27200
X22514Y27770
X21544Y27720
X20524Y28430
X20514Y29030
X20064Y29490
X19534Y29080
X18534Y29640
X17254Y30900
X18604Y32650
X19464Y31990
X20624Y32620
X21074Y33130
X21984Y32620
X22239Y32871
X21554Y31650
X21244Y31080
X23514Y31790
X23804Y32640
X24444Y32050
X24864Y32570
X24864Y31520
X26254Y29300
X25524Y29100
X26524Y27780
X27524Y28440
X28444Y28910
X29294Y28440
X30414Y27160
X30994Y27750
X32154Y29350
X32964Y30850
X31854Y32550
X32954Y33130
X33994Y32850
X31454Y34000
X30414Y35280
X30994Y35600
X29904Y34350
X29504Y34650
X29154Y34950
X29294Y34010
X29835Y32525
X28304Y30660
X28804Y30180
X27214Y31950
X27164Y32570
X26024Y34010
X26254Y34350
X25754Y34650
X25504Y34950
X25984Y35280
X25574Y35600
X25844Y36220
X27124Y37050
X27964Y37680
X28804Y36220
X25954Y39550
X25604Y39741
X24754Y38081
X24694Y37680
X24134Y37680
X24114Y38340
X24004Y38850
X23394Y37690
X23004Y37400
X22754Y39300
X22454Y39600
X21854Y39100
X20804Y39100
X20604Y39450
X20504Y38750
X19654Y38900
X19804Y38000
X19054Y37400
X18604Y38291
X18044Y37690
X16604Y39400
X15804Y40450
X17804Y42200
X16204Y43250
X19154Y40000
X19654Y40350
X19913Y40850
X21104Y43400
X19604Y43650
X22654Y40609
X23654Y40800
X27154Y40850
X29504Y40000
X29904Y40350
X31854Y42300
X32154Y43150
X31004Y43550
X30104Y43809
X27004Y45500
X34520Y41698
X37044Y38320
X35974Y37050
X34914Y36502
X34520Y37801
X39254Y31250
X33994Y25060
X35034Y24810
X21064Y34330
X20624Y34650
X21064Y34970
X20654Y35300
X20307Y35697
X19793Y36000
X19534Y35290
X19044Y34970
X18654Y34800
X19804Y34650
X21104Y35600
X21104Y36550
X20804Y37000
X15604Y33491
X14344Y33750
X13104Y31900
X11924Y30130
X10404Y29450
X9654Y30130
X9004Y29450
X8534Y28210
X9654Y27340
X11044Y28210
X9214Y31060
X7434Y31060
X6774Y29540
X6764Y27840
X5054Y29540
X11054Y34550
X13054Y36050
X15104Y36100
X13054Y38550
X11054Y37700
X12654Y41600
X16304Y27300
T02
X16532Y25873
X15532Y25873
X17532Y25873
X18532Y25873
X19532Y25873
X20532Y25873
X21532Y25873
X22532Y25873
X23532Y25873
X24532Y25873
X25532Y25873
X26532Y25873
X27532Y25873
X28532Y25873
X29532Y25873
X30532Y25873
X31532Y25873
X32532Y25873
X33532Y25873
X34532Y25873
X34532Y44573
X33532Y44573
X32532Y44573
X31532Y44573
X30532Y44573
X29532Y44573
X28532Y44573
X27532Y44573
X26532Y44573
X25532Y44573
X24532Y44573
X23532Y44573
X22532Y44573
X21532Y44573
X20532Y44573
X19532Y44573
X18532Y44573
X17532Y44573
X16532Y44573
X15532Y44573
T03
X11634Y43679
X10847Y43679
T04
X10390Y26632
X8638Y26632
T05
X13325Y28049
X15096Y28049
X15096Y30608
X13325Y30608
X12260Y33540
X12260Y34540
X12260Y35540
X12260Y36540
X12260Y37540
X12260Y38540
X12260Y39540
X12260Y40540
X7572Y42587
X6587Y42587
X5603Y42587
T06
X18626Y42710
X19626Y42710
X19626Y41710
X18626Y41710
X20626Y41710
X21626Y41710
X21626Y42710
X20626Y42710
X22626Y42710
X23626Y42710
X24626Y42710
X24626Y41710
X23626Y41710
X22626Y41710
X25626Y41710
X26626Y41710
X26626Y42710
X25626Y42710
X27626Y42710
X28626Y42710
X29626Y42710
X29626Y41710
X28626Y41710
X27626Y41710
X35644Y41700
X36644Y41700
X36644Y40700
X35644Y40700
X35644Y42700
X36644Y42700
X35914Y32840
X35914Y31840
X35914Y30840
X35914Y29840
X35914Y28840
X35914Y27840
T07
X11138Y25439
X7890Y25400
T08
X36331Y44572
T09
X36331Y25675
X13823Y25675
X5622Y25675
X13830Y44459
X5622Y44572
M30
