G75*
%MOIN*%
%OFA0B0*%
%FSLAX25Y25*%
%IPPOS*%
%LPD*%
%AMOC8*
5,1,8,0,0,1.08239X$1,22.5*
%
%ADD10C,0.00000*%
D10*
X0048319Y0244937D02*
X0368374Y0244937D01*
X0368374Y0244936D02*
X0368613Y0244892D01*
X0368853Y0244853D01*
X0369093Y0244820D01*
X0369334Y0244793D01*
X0369576Y0244771D01*
X0369818Y0244756D01*
X0370061Y0244746D01*
X0370303Y0244742D01*
X0370546Y0244744D01*
X0370788Y0244752D01*
X0371031Y0244766D01*
X0371273Y0244785D01*
X0371514Y0244811D01*
X0371755Y0244842D01*
X0371995Y0244879D01*
X0372233Y0244922D01*
X0372471Y0244971D01*
X0372708Y0245025D01*
X0372943Y0245085D01*
X0373177Y0245151D01*
X0373409Y0245222D01*
X0373639Y0245299D01*
X0373867Y0245381D01*
X0374093Y0245469D01*
X0374317Y0245563D01*
X0374539Y0245661D01*
X0374758Y0245766D01*
X0374975Y0245875D01*
X0375189Y0245989D01*
X0375400Y0246109D01*
X0375608Y0246234D01*
X0375813Y0246364D01*
X0376015Y0246498D01*
X0376214Y0246638D01*
X0376409Y0246782D01*
X0376600Y0246931D01*
X0376788Y0247085D01*
X0376972Y0247243D01*
X0377153Y0247405D01*
X0377329Y0247572D01*
X0377501Y0247743D01*
X0377669Y0247918D01*
X0377833Y0248097D01*
X0377993Y0248280D01*
X0378148Y0248467D01*
X0378298Y0248657D01*
X0378444Y0248851D01*
X0378585Y0249049D01*
X0378721Y0249250D01*
X0378852Y0249454D01*
X0378979Y0249661D01*
X0379100Y0249871D01*
X0379216Y0250084D01*
X0379327Y0250300D01*
X0379433Y0250519D01*
X0379533Y0250740D01*
X0379628Y0250963D01*
X0379718Y0251188D01*
X0379802Y0251416D01*
X0379881Y0251646D01*
X0379954Y0251877D01*
X0380021Y0252110D01*
X0380083Y0252345D01*
X0380139Y0252581D01*
X0380190Y0252818D01*
X0380189Y0252819D02*
X0380189Y0278484D01*
X0380192Y0278771D01*
X0380203Y0279057D01*
X0380220Y0279343D01*
X0380244Y0279629D01*
X0380275Y0279914D01*
X0380313Y0280198D01*
X0380358Y0280481D01*
X0380410Y0280763D01*
X0380468Y0281044D01*
X0380534Y0281323D01*
X0380606Y0281600D01*
X0380684Y0281876D01*
X0380770Y0282150D01*
X0380861Y0282421D01*
X0380960Y0282690D01*
X0381065Y0282957D01*
X0381176Y0283221D01*
X0381294Y0283483D01*
X0381418Y0283741D01*
X0381548Y0283997D01*
X0381684Y0284249D01*
X0381826Y0284498D01*
X0381975Y0284743D01*
X0382129Y0284985D01*
X0382289Y0285222D01*
X0382454Y0285456D01*
X0382626Y0285686D01*
X0382803Y0285912D01*
X0382985Y0286133D01*
X0383172Y0286350D01*
X0383365Y0286562D01*
X0383563Y0286770D01*
X0383765Y0286972D01*
X0383973Y0287170D01*
X0384185Y0287363D01*
X0384402Y0287550D01*
X0384623Y0287732D01*
X0384849Y0287909D01*
X0385079Y0288081D01*
X0385313Y0288246D01*
X0385550Y0288406D01*
X0385792Y0288560D01*
X0386037Y0288709D01*
X0386286Y0288851D01*
X0386538Y0288987D01*
X0386794Y0289117D01*
X0387052Y0289241D01*
X0387314Y0289359D01*
X0387578Y0289470D01*
X0387845Y0289575D01*
X0388114Y0289674D01*
X0388385Y0289765D01*
X0388659Y0289851D01*
X0388935Y0289929D01*
X0389212Y0290001D01*
X0389491Y0290067D01*
X0389772Y0290125D01*
X0390054Y0290177D01*
X0390337Y0290222D01*
X0390621Y0290260D01*
X0390906Y0290291D01*
X0391192Y0290315D01*
X0391478Y0290332D01*
X0391764Y0290343D01*
X0392051Y0290346D01*
X0403461Y0290346D01*
X0403746Y0290349D01*
X0404032Y0290360D01*
X0404317Y0290377D01*
X0404601Y0290401D01*
X0404885Y0290432D01*
X0405168Y0290470D01*
X0405449Y0290515D01*
X0405730Y0290566D01*
X0406010Y0290624D01*
X0406288Y0290689D01*
X0406564Y0290761D01*
X0406838Y0290839D01*
X0407111Y0290924D01*
X0407381Y0291016D01*
X0407649Y0291114D01*
X0407915Y0291218D01*
X0408178Y0291329D01*
X0408438Y0291446D01*
X0408696Y0291569D01*
X0408950Y0291699D01*
X0409201Y0291835D01*
X0409449Y0291976D01*
X0409693Y0292124D01*
X0409934Y0292277D01*
X0410170Y0292437D01*
X0410403Y0292602D01*
X0410632Y0292772D01*
X0410857Y0292948D01*
X0411077Y0293130D01*
X0411293Y0293316D01*
X0411504Y0293508D01*
X0411711Y0293705D01*
X0411913Y0293907D01*
X0412110Y0294114D01*
X0412302Y0294325D01*
X0412488Y0294541D01*
X0412670Y0294761D01*
X0412846Y0294986D01*
X0413016Y0295215D01*
X0413181Y0295448D01*
X0413341Y0295684D01*
X0413494Y0295925D01*
X0413642Y0296169D01*
X0413783Y0296417D01*
X0413919Y0296668D01*
X0414049Y0296922D01*
X0414172Y0297180D01*
X0414289Y0297440D01*
X0414400Y0297703D01*
X0414504Y0297969D01*
X0414602Y0298237D01*
X0414694Y0298507D01*
X0414779Y0298780D01*
X0414857Y0299054D01*
X0414929Y0299330D01*
X0414994Y0299608D01*
X0415052Y0299888D01*
X0415103Y0300169D01*
X0415148Y0300450D01*
X0415186Y0300733D01*
X0415217Y0301017D01*
X0415241Y0301301D01*
X0415258Y0301586D01*
X0415269Y0301872D01*
X0415272Y0302157D01*
X0415272Y0371374D01*
X0415269Y0371658D01*
X0415258Y0371943D01*
X0415241Y0372227D01*
X0415217Y0372510D01*
X0415186Y0372793D01*
X0415148Y0373075D01*
X0415104Y0373356D01*
X0415053Y0373636D01*
X0414995Y0373914D01*
X0414930Y0374191D01*
X0414859Y0374467D01*
X0414780Y0374740D01*
X0414696Y0375012D01*
X0414605Y0375281D01*
X0414507Y0375548D01*
X0414403Y0375813D01*
X0414292Y0376075D01*
X0414176Y0376335D01*
X0414053Y0376591D01*
X0413924Y0376845D01*
X0413788Y0377095D01*
X0413647Y0377342D01*
X0413500Y0377585D01*
X0413347Y0377825D01*
X0413188Y0378061D01*
X0413024Y0378293D01*
X0412854Y0378522D01*
X0412678Y0378745D01*
X0412498Y0378965D01*
X0412311Y0379180D01*
X0412120Y0379391D01*
X0411924Y0379597D01*
X0411723Y0379798D01*
X0411517Y0379994D01*
X0411306Y0380185D01*
X0411091Y0380372D01*
X0410871Y0380552D01*
X0410648Y0380728D01*
X0410419Y0380898D01*
X0410187Y0381062D01*
X0409951Y0381221D01*
X0409711Y0381374D01*
X0409468Y0381521D01*
X0409221Y0381662D01*
X0408971Y0381798D01*
X0408717Y0381927D01*
X0408461Y0382050D01*
X0408201Y0382166D01*
X0407939Y0382277D01*
X0407674Y0382381D01*
X0407407Y0382479D01*
X0407138Y0382570D01*
X0406866Y0382654D01*
X0406593Y0382733D01*
X0406317Y0382804D01*
X0406040Y0382869D01*
X0405762Y0382927D01*
X0405482Y0382978D01*
X0405201Y0383022D01*
X0404919Y0383060D01*
X0404636Y0383091D01*
X0404353Y0383115D01*
X0404069Y0383132D01*
X0403784Y0383143D01*
X0403500Y0383146D01*
X0392000Y0383146D01*
X0391715Y0383149D01*
X0391429Y0383160D01*
X0391144Y0383177D01*
X0390860Y0383201D01*
X0390576Y0383232D01*
X0390293Y0383270D01*
X0390012Y0383315D01*
X0389731Y0383366D01*
X0389451Y0383424D01*
X0389173Y0383489D01*
X0388897Y0383561D01*
X0388623Y0383639D01*
X0388350Y0383724D01*
X0388080Y0383816D01*
X0387812Y0383914D01*
X0387546Y0384018D01*
X0387283Y0384129D01*
X0387023Y0384246D01*
X0386765Y0384369D01*
X0386511Y0384499D01*
X0386260Y0384635D01*
X0386012Y0384776D01*
X0385768Y0384924D01*
X0385527Y0385077D01*
X0385291Y0385237D01*
X0385058Y0385402D01*
X0384829Y0385572D01*
X0384604Y0385748D01*
X0384384Y0385930D01*
X0384168Y0386116D01*
X0383957Y0386308D01*
X0383750Y0386505D01*
X0383548Y0386707D01*
X0383351Y0386914D01*
X0383159Y0387125D01*
X0382973Y0387341D01*
X0382791Y0387561D01*
X0382615Y0387786D01*
X0382445Y0388015D01*
X0382280Y0388248D01*
X0382120Y0388484D01*
X0381967Y0388725D01*
X0381819Y0388969D01*
X0381678Y0389217D01*
X0381542Y0389468D01*
X0381412Y0389722D01*
X0381289Y0389980D01*
X0381172Y0390240D01*
X0381061Y0390503D01*
X0380957Y0390769D01*
X0380859Y0391037D01*
X0380767Y0391307D01*
X0380682Y0391580D01*
X0380604Y0391854D01*
X0380532Y0392130D01*
X0380467Y0392408D01*
X0380409Y0392688D01*
X0380358Y0392969D01*
X0380313Y0393250D01*
X0380275Y0393533D01*
X0380244Y0393817D01*
X0380220Y0394101D01*
X0380203Y0394386D01*
X0380192Y0394672D01*
X0380189Y0394957D01*
X0380189Y0454091D01*
X0380139Y0454328D01*
X0380083Y0454565D01*
X0380021Y0454799D01*
X0379953Y0455033D01*
X0379880Y0455264D01*
X0379802Y0455494D01*
X0379717Y0455722D01*
X0379628Y0455948D01*
X0379532Y0456171D01*
X0379432Y0456393D01*
X0379326Y0456611D01*
X0379215Y0456827D01*
X0379099Y0457041D01*
X0378977Y0457251D01*
X0378851Y0457458D01*
X0378719Y0457663D01*
X0378583Y0457864D01*
X0378442Y0458062D01*
X0378296Y0458256D01*
X0378145Y0458446D01*
X0377990Y0458633D01*
X0377831Y0458817D01*
X0377667Y0458996D01*
X0377498Y0459171D01*
X0377326Y0459342D01*
X0377150Y0459509D01*
X0376969Y0459672D01*
X0376785Y0459830D01*
X0376597Y0459984D01*
X0376405Y0460133D01*
X0376209Y0460277D01*
X0376011Y0460417D01*
X0375809Y0460552D01*
X0375603Y0460682D01*
X0375395Y0460806D01*
X0375184Y0460926D01*
X0374969Y0461041D01*
X0374752Y0461150D01*
X0374533Y0461255D01*
X0374311Y0461354D01*
X0374087Y0461447D01*
X0373860Y0461535D01*
X0373632Y0461618D01*
X0373402Y0461695D01*
X0373169Y0461766D01*
X0372936Y0461832D01*
X0372700Y0461892D01*
X0372463Y0461946D01*
X0372225Y0461995D01*
X0371986Y0462038D01*
X0371746Y0462075D01*
X0371505Y0462106D01*
X0371264Y0462132D01*
X0371021Y0462151D01*
X0370779Y0462165D01*
X0370536Y0462173D01*
X0370293Y0462175D01*
X0370050Y0462171D01*
X0369808Y0462161D01*
X0369565Y0462146D01*
X0369323Y0462124D01*
X0369082Y0462097D01*
X0368841Y0462064D01*
X0368601Y0462025D01*
X0368362Y0461980D01*
X0123539Y0461980D01*
X0123539Y0449500D01*
X0101039Y0449500D01*
X0101039Y0461980D01*
X0048421Y0461980D01*
X0048422Y0461980D02*
X0048178Y0462026D01*
X0047933Y0462065D01*
X0047687Y0462098D01*
X0047440Y0462126D01*
X0047193Y0462147D01*
X0046946Y0462162D01*
X0046698Y0462171D01*
X0046450Y0462174D01*
X0046202Y0462171D01*
X0045954Y0462162D01*
X0045706Y0462146D01*
X0045459Y0462125D01*
X0045212Y0462098D01*
X0044967Y0462064D01*
X0044722Y0462025D01*
X0044478Y0461979D01*
X0044235Y0461928D01*
X0043994Y0461870D01*
X0043754Y0461807D01*
X0043516Y0461738D01*
X0043279Y0461663D01*
X0043045Y0461582D01*
X0042812Y0461496D01*
X0042582Y0461403D01*
X0042354Y0461306D01*
X0042129Y0461202D01*
X0041906Y0461093D01*
X0041686Y0460979D01*
X0041468Y0460859D01*
X0041254Y0460734D01*
X0041043Y0460604D01*
X0040835Y0460469D01*
X0040631Y0460328D01*
X0040430Y0460183D01*
X0040232Y0460033D01*
X0040039Y0459878D01*
X0039849Y0459718D01*
X0039663Y0459554D01*
X0039481Y0459385D01*
X0039304Y0459211D01*
X0039131Y0459034D01*
X0038962Y0458852D01*
X0038798Y0458666D01*
X0038638Y0458476D01*
X0038483Y0458283D01*
X0038333Y0458085D01*
X0038188Y0457884D01*
X0038047Y0457679D01*
X0037912Y0457471D01*
X0037782Y0457260D01*
X0037657Y0457046D01*
X0037538Y0456828D01*
X0037424Y0456608D01*
X0037315Y0456385D01*
X0037212Y0456160D01*
X0037114Y0455932D01*
X0037022Y0455701D01*
X0036936Y0455469D01*
X0036855Y0455234D01*
X0036780Y0454998D01*
X0036711Y0454759D01*
X0036648Y0454520D01*
X0036591Y0454278D01*
X0036540Y0454036D01*
X0036539Y0454035D02*
X0036539Y0428209D01*
X0036540Y0428209D02*
X0036537Y0427924D01*
X0036526Y0427640D01*
X0036509Y0427356D01*
X0036485Y0427072D01*
X0036454Y0426789D01*
X0036416Y0426507D01*
X0036372Y0426226D01*
X0036321Y0425946D01*
X0036262Y0425667D01*
X0036198Y0425390D01*
X0036126Y0425114D01*
X0036048Y0424841D01*
X0035963Y0424569D01*
X0035872Y0424299D01*
X0035774Y0424032D01*
X0035670Y0423767D01*
X0035560Y0423504D01*
X0035443Y0423245D01*
X0035320Y0422988D01*
X0035191Y0422735D01*
X0035055Y0422484D01*
X0034914Y0422237D01*
X0034767Y0421993D01*
X0034614Y0421753D01*
X0034455Y0421517D01*
X0034290Y0421285D01*
X0034120Y0421057D01*
X0033945Y0420833D01*
X0033764Y0420613D01*
X0033577Y0420397D01*
X0033386Y0420187D01*
X0033190Y0419981D01*
X0032988Y0419779D01*
X0032782Y0419583D01*
X0032572Y0419392D01*
X0032356Y0419205D01*
X0032136Y0419024D01*
X0031912Y0418849D01*
X0031684Y0418679D01*
X0031452Y0418514D01*
X0031216Y0418355D01*
X0030976Y0418202D01*
X0030732Y0418055D01*
X0030485Y0417914D01*
X0030234Y0417778D01*
X0029981Y0417649D01*
X0029724Y0417526D01*
X0029465Y0417409D01*
X0029202Y0417299D01*
X0028937Y0417195D01*
X0028670Y0417097D01*
X0028400Y0417006D01*
X0028128Y0416921D01*
X0027855Y0416843D01*
X0027579Y0416771D01*
X0027302Y0416707D01*
X0027023Y0416648D01*
X0026743Y0416597D01*
X0026462Y0416553D01*
X0026180Y0416515D01*
X0025897Y0416484D01*
X0025613Y0416460D01*
X0025329Y0416443D01*
X0025045Y0416432D01*
X0024760Y0416429D01*
X0013386Y0416429D01*
X0013096Y0416426D01*
X0012807Y0416415D01*
X0012518Y0416398D01*
X0012229Y0416373D01*
X0011941Y0416342D01*
X0011654Y0416303D01*
X0011368Y0416258D01*
X0011084Y0416206D01*
X0010800Y0416147D01*
X0010518Y0416081D01*
X0010238Y0416008D01*
X0009959Y0415929D01*
X0009683Y0415842D01*
X0009408Y0415750D01*
X0009136Y0415650D01*
X0008867Y0415544D01*
X0008600Y0415432D01*
X0008336Y0415313D01*
X0008075Y0415188D01*
X0007817Y0415056D01*
X0007562Y0414919D01*
X0007311Y0414775D01*
X0007063Y0414625D01*
X0006819Y0414469D01*
X0006578Y0414308D01*
X0006342Y0414140D01*
X0006110Y0413967D01*
X0005882Y0413789D01*
X0005658Y0413605D01*
X0005439Y0413415D01*
X0005225Y0413221D01*
X0005015Y0413021D01*
X0004810Y0412816D01*
X0004610Y0412606D01*
X0004416Y0412392D01*
X0004226Y0412173D01*
X0004042Y0411949D01*
X0003864Y0411721D01*
X0003691Y0411489D01*
X0003523Y0411253D01*
X0003362Y0411012D01*
X0003206Y0410768D01*
X0003056Y0410520D01*
X0002912Y0410269D01*
X0002775Y0410014D01*
X0002643Y0409756D01*
X0002518Y0409495D01*
X0002399Y0409231D01*
X0002287Y0408964D01*
X0002181Y0408695D01*
X0002081Y0408423D01*
X0001989Y0408148D01*
X0001902Y0407872D01*
X0001823Y0407593D01*
X0001750Y0407313D01*
X0001684Y0407031D01*
X0001625Y0406747D01*
X0001573Y0406463D01*
X0001528Y0406177D01*
X0001489Y0405890D01*
X0001458Y0405602D01*
X0001433Y0405313D01*
X0001416Y0405024D01*
X0001405Y0404735D01*
X0001402Y0404445D01*
X0001402Y0335437D01*
X0001405Y0335152D01*
X0001416Y0334868D01*
X0001433Y0334584D01*
X0001457Y0334300D01*
X0001488Y0334017D01*
X0001526Y0333734D01*
X0001570Y0333453D01*
X0001622Y0333173D01*
X0001680Y0332894D01*
X0001744Y0332617D01*
X0001816Y0332342D01*
X0001894Y0332068D01*
X0001979Y0331796D01*
X0002070Y0331526D01*
X0002168Y0331259D01*
X0002272Y0330994D01*
X0002382Y0330731D01*
X0002499Y0330472D01*
X0002622Y0330215D01*
X0002752Y0329961D01*
X0002887Y0329711D01*
X0003028Y0329463D01*
X0003176Y0329220D01*
X0003329Y0328980D01*
X0003488Y0328743D01*
X0003652Y0328511D01*
X0003822Y0328283D01*
X0003998Y0328059D01*
X0004179Y0327839D01*
X0004365Y0327623D01*
X0004557Y0327413D01*
X0004753Y0327206D01*
X0004954Y0327005D01*
X0005161Y0326809D01*
X0005371Y0326617D01*
X0005587Y0326431D01*
X0005807Y0326250D01*
X0006031Y0326074D01*
X0006259Y0325904D01*
X0006491Y0325740D01*
X0006728Y0325581D01*
X0006968Y0325428D01*
X0007211Y0325280D01*
X0007459Y0325139D01*
X0007709Y0325004D01*
X0007963Y0324874D01*
X0008220Y0324751D01*
X0008479Y0324634D01*
X0008742Y0324524D01*
X0009007Y0324420D01*
X0009274Y0324322D01*
X0009544Y0324231D01*
X0009816Y0324146D01*
X0010090Y0324068D01*
X0010365Y0323996D01*
X0010642Y0323932D01*
X0010921Y0323874D01*
X0011201Y0323822D01*
X0011482Y0323778D01*
X0011765Y0323740D01*
X0012048Y0323709D01*
X0012332Y0323685D01*
X0012616Y0323668D01*
X0012900Y0323657D01*
X0013185Y0323654D01*
X0024760Y0323654D01*
X0025045Y0323651D01*
X0025329Y0323640D01*
X0025613Y0323623D01*
X0025897Y0323599D01*
X0026180Y0323568D01*
X0026462Y0323530D01*
X0026743Y0323486D01*
X0027023Y0323435D01*
X0027302Y0323376D01*
X0027579Y0323312D01*
X0027855Y0323240D01*
X0028128Y0323162D01*
X0028400Y0323077D01*
X0028670Y0322986D01*
X0028937Y0322888D01*
X0029202Y0322784D01*
X0029465Y0322674D01*
X0029724Y0322557D01*
X0029981Y0322434D01*
X0030234Y0322305D01*
X0030485Y0322169D01*
X0030732Y0322028D01*
X0030976Y0321881D01*
X0031216Y0321728D01*
X0031452Y0321569D01*
X0031684Y0321404D01*
X0031912Y0321234D01*
X0032136Y0321059D01*
X0032356Y0320878D01*
X0032572Y0320691D01*
X0032782Y0320500D01*
X0032988Y0320304D01*
X0033190Y0320102D01*
X0033386Y0319896D01*
X0033577Y0319686D01*
X0033764Y0319470D01*
X0033945Y0319250D01*
X0034120Y0319026D01*
X0034290Y0318798D01*
X0034455Y0318566D01*
X0034614Y0318330D01*
X0034767Y0318090D01*
X0034914Y0317846D01*
X0035055Y0317599D01*
X0035191Y0317348D01*
X0035320Y0317095D01*
X0035443Y0316838D01*
X0035560Y0316579D01*
X0035670Y0316316D01*
X0035774Y0316051D01*
X0035872Y0315784D01*
X0035963Y0315514D01*
X0036048Y0315242D01*
X0036126Y0314969D01*
X0036198Y0314693D01*
X0036262Y0314416D01*
X0036321Y0314137D01*
X0036372Y0313857D01*
X0036416Y0313576D01*
X0036454Y0313294D01*
X0036485Y0313011D01*
X0036509Y0312727D01*
X0036526Y0312443D01*
X0036537Y0312159D01*
X0036540Y0311874D01*
X0036539Y0311874D02*
X0036539Y0252780D01*
X0036539Y0252779D02*
X0036589Y0252543D01*
X0036645Y0252308D01*
X0036707Y0252074D01*
X0036774Y0251842D01*
X0036847Y0251611D01*
X0036926Y0251382D01*
X0037010Y0251156D01*
X0037100Y0250931D01*
X0037194Y0250709D01*
X0037295Y0250489D01*
X0037400Y0250271D01*
X0037511Y0250056D01*
X0037627Y0249844D01*
X0037748Y0249635D01*
X0037874Y0249428D01*
X0038005Y0249225D01*
X0038141Y0249025D01*
X0038282Y0248828D01*
X0038427Y0248635D01*
X0038577Y0248445D01*
X0038732Y0248259D01*
X0038891Y0248077D01*
X0039054Y0247899D01*
X0039222Y0247725D01*
X0039394Y0247554D01*
X0039569Y0247388D01*
X0039749Y0247227D01*
X0039933Y0247069D01*
X0040120Y0246917D01*
X0040311Y0246768D01*
X0040506Y0246625D01*
X0040704Y0246486D01*
X0040905Y0246352D01*
X0041110Y0246223D01*
X0041317Y0246099D01*
X0041528Y0245980D01*
X0041741Y0245866D01*
X0041957Y0245757D01*
X0042176Y0245653D01*
X0042397Y0245555D01*
X0042620Y0245462D01*
X0042845Y0245375D01*
X0043073Y0245293D01*
X0043302Y0245216D01*
X0043533Y0245146D01*
X0043766Y0245080D01*
X0044001Y0245021D01*
X0044236Y0244967D01*
X0044473Y0244919D01*
X0044711Y0244876D01*
X0044950Y0244839D01*
X0045190Y0244808D01*
X0045431Y0244783D01*
X0045672Y0244764D01*
X0045913Y0244751D01*
X0046155Y0244743D01*
X0046397Y0244741D01*
X0046639Y0244745D01*
X0046880Y0244755D01*
X0047122Y0244771D01*
X0047362Y0244792D01*
X0047603Y0244820D01*
X0047842Y0244853D01*
X0048081Y0244892D01*
X0048319Y0244937D01*
X0049216Y0256748D02*
X0049218Y0256920D01*
X0049224Y0257092D01*
X0049235Y0257264D01*
X0049250Y0257435D01*
X0049269Y0257606D01*
X0049292Y0257776D01*
X0049319Y0257946D01*
X0049351Y0258115D01*
X0049386Y0258283D01*
X0049426Y0258451D01*
X0049470Y0258617D01*
X0049518Y0258782D01*
X0049570Y0258946D01*
X0049626Y0259109D01*
X0049686Y0259270D01*
X0049749Y0259430D01*
X0049817Y0259588D01*
X0049889Y0259744D01*
X0049964Y0259899D01*
X0050043Y0260052D01*
X0050126Y0260202D01*
X0050213Y0260351D01*
X0050303Y0260497D01*
X0050397Y0260641D01*
X0050494Y0260783D01*
X0050595Y0260923D01*
X0050699Y0261060D01*
X0050807Y0261194D01*
X0050917Y0261325D01*
X0051031Y0261454D01*
X0051148Y0261580D01*
X0051269Y0261703D01*
X0051392Y0261824D01*
X0051518Y0261941D01*
X0051647Y0262055D01*
X0051778Y0262165D01*
X0051912Y0262273D01*
X0052049Y0262377D01*
X0052189Y0262478D01*
X0052331Y0262575D01*
X0052475Y0262669D01*
X0052621Y0262759D01*
X0052770Y0262846D01*
X0052920Y0262929D01*
X0053073Y0263008D01*
X0053228Y0263083D01*
X0053384Y0263155D01*
X0053542Y0263223D01*
X0053702Y0263286D01*
X0053863Y0263346D01*
X0054026Y0263402D01*
X0054190Y0263454D01*
X0054355Y0263502D01*
X0054521Y0263546D01*
X0054689Y0263586D01*
X0054857Y0263621D01*
X0055026Y0263653D01*
X0055196Y0263680D01*
X0055366Y0263703D01*
X0055537Y0263722D01*
X0055708Y0263737D01*
X0055880Y0263748D01*
X0056052Y0263754D01*
X0056224Y0263756D01*
X0056396Y0263754D01*
X0056568Y0263748D01*
X0056740Y0263737D01*
X0056911Y0263722D01*
X0057082Y0263703D01*
X0057252Y0263680D01*
X0057422Y0263653D01*
X0057591Y0263621D01*
X0057759Y0263586D01*
X0057927Y0263546D01*
X0058093Y0263502D01*
X0058258Y0263454D01*
X0058422Y0263402D01*
X0058585Y0263346D01*
X0058746Y0263286D01*
X0058906Y0263223D01*
X0059064Y0263155D01*
X0059220Y0263083D01*
X0059375Y0263008D01*
X0059528Y0262929D01*
X0059678Y0262846D01*
X0059827Y0262759D01*
X0059973Y0262669D01*
X0060117Y0262575D01*
X0060259Y0262478D01*
X0060399Y0262377D01*
X0060536Y0262273D01*
X0060670Y0262165D01*
X0060801Y0262055D01*
X0060930Y0261941D01*
X0061056Y0261824D01*
X0061179Y0261703D01*
X0061300Y0261580D01*
X0061417Y0261454D01*
X0061531Y0261325D01*
X0061641Y0261194D01*
X0061749Y0261060D01*
X0061853Y0260923D01*
X0061954Y0260783D01*
X0062051Y0260641D01*
X0062145Y0260497D01*
X0062235Y0260351D01*
X0062322Y0260202D01*
X0062405Y0260052D01*
X0062484Y0259899D01*
X0062559Y0259744D01*
X0062631Y0259588D01*
X0062699Y0259430D01*
X0062762Y0259270D01*
X0062822Y0259109D01*
X0062878Y0258946D01*
X0062930Y0258782D01*
X0062978Y0258617D01*
X0063022Y0258451D01*
X0063062Y0258283D01*
X0063097Y0258115D01*
X0063129Y0257946D01*
X0063156Y0257776D01*
X0063179Y0257606D01*
X0063198Y0257435D01*
X0063213Y0257264D01*
X0063224Y0257092D01*
X0063230Y0256920D01*
X0063232Y0256748D01*
X0063230Y0256576D01*
X0063224Y0256404D01*
X0063213Y0256232D01*
X0063198Y0256061D01*
X0063179Y0255890D01*
X0063156Y0255720D01*
X0063129Y0255550D01*
X0063097Y0255381D01*
X0063062Y0255213D01*
X0063022Y0255045D01*
X0062978Y0254879D01*
X0062930Y0254714D01*
X0062878Y0254550D01*
X0062822Y0254387D01*
X0062762Y0254226D01*
X0062699Y0254066D01*
X0062631Y0253908D01*
X0062559Y0253752D01*
X0062484Y0253597D01*
X0062405Y0253444D01*
X0062322Y0253294D01*
X0062235Y0253145D01*
X0062145Y0252999D01*
X0062051Y0252855D01*
X0061954Y0252713D01*
X0061853Y0252573D01*
X0061749Y0252436D01*
X0061641Y0252302D01*
X0061531Y0252171D01*
X0061417Y0252042D01*
X0061300Y0251916D01*
X0061179Y0251793D01*
X0061056Y0251672D01*
X0060930Y0251555D01*
X0060801Y0251441D01*
X0060670Y0251331D01*
X0060536Y0251223D01*
X0060399Y0251119D01*
X0060259Y0251018D01*
X0060117Y0250921D01*
X0059973Y0250827D01*
X0059827Y0250737D01*
X0059678Y0250650D01*
X0059528Y0250567D01*
X0059375Y0250488D01*
X0059220Y0250413D01*
X0059064Y0250341D01*
X0058906Y0250273D01*
X0058746Y0250210D01*
X0058585Y0250150D01*
X0058422Y0250094D01*
X0058258Y0250042D01*
X0058093Y0249994D01*
X0057927Y0249950D01*
X0057759Y0249910D01*
X0057591Y0249875D01*
X0057422Y0249843D01*
X0057252Y0249816D01*
X0057082Y0249793D01*
X0056911Y0249774D01*
X0056740Y0249759D01*
X0056568Y0249748D01*
X0056396Y0249742D01*
X0056224Y0249740D01*
X0056052Y0249742D01*
X0055880Y0249748D01*
X0055708Y0249759D01*
X0055537Y0249774D01*
X0055366Y0249793D01*
X0055196Y0249816D01*
X0055026Y0249843D01*
X0054857Y0249875D01*
X0054689Y0249910D01*
X0054521Y0249950D01*
X0054355Y0249994D01*
X0054190Y0250042D01*
X0054026Y0250094D01*
X0053863Y0250150D01*
X0053702Y0250210D01*
X0053542Y0250273D01*
X0053384Y0250341D01*
X0053228Y0250413D01*
X0053073Y0250488D01*
X0052920Y0250567D01*
X0052770Y0250650D01*
X0052621Y0250737D01*
X0052475Y0250827D01*
X0052331Y0250921D01*
X0052189Y0251018D01*
X0052049Y0251119D01*
X0051912Y0251223D01*
X0051778Y0251331D01*
X0051647Y0251441D01*
X0051518Y0251555D01*
X0051392Y0251672D01*
X0051269Y0251793D01*
X0051148Y0251916D01*
X0051031Y0252042D01*
X0050917Y0252171D01*
X0050807Y0252302D01*
X0050699Y0252436D01*
X0050595Y0252573D01*
X0050494Y0252713D01*
X0050397Y0252855D01*
X0050303Y0252999D01*
X0050213Y0253145D01*
X0050126Y0253294D01*
X0050043Y0253444D01*
X0049964Y0253597D01*
X0049889Y0253752D01*
X0049817Y0253908D01*
X0049749Y0254066D01*
X0049686Y0254226D01*
X0049626Y0254387D01*
X0049570Y0254550D01*
X0049518Y0254714D01*
X0049470Y0254879D01*
X0049426Y0255045D01*
X0049386Y0255213D01*
X0049351Y0255381D01*
X0049319Y0255550D01*
X0049292Y0255720D01*
X0049269Y0255890D01*
X0049250Y0256061D01*
X0049235Y0256232D01*
X0049224Y0256404D01*
X0049218Y0256576D01*
X0049216Y0256748D01*
X0084707Y0266322D02*
X0084709Y0266403D01*
X0084715Y0266485D01*
X0084725Y0266566D01*
X0084739Y0266646D01*
X0084756Y0266725D01*
X0084778Y0266804D01*
X0084803Y0266881D01*
X0084832Y0266958D01*
X0084865Y0267032D01*
X0084902Y0267105D01*
X0084941Y0267176D01*
X0084985Y0267245D01*
X0085031Y0267312D01*
X0085081Y0267376D01*
X0085134Y0267438D01*
X0085190Y0267498D01*
X0085248Y0267554D01*
X0085310Y0267608D01*
X0085374Y0267659D01*
X0085440Y0267706D01*
X0085508Y0267750D01*
X0085579Y0267791D01*
X0085651Y0267828D01*
X0085726Y0267862D01*
X0085801Y0267892D01*
X0085879Y0267918D01*
X0085957Y0267941D01*
X0086036Y0267959D01*
X0086116Y0267974D01*
X0086197Y0267985D01*
X0086278Y0267992D01*
X0086360Y0267995D01*
X0086441Y0267994D01*
X0086522Y0267989D01*
X0086603Y0267980D01*
X0086684Y0267967D01*
X0086764Y0267950D01*
X0086842Y0267930D01*
X0086920Y0267905D01*
X0086997Y0267877D01*
X0087072Y0267845D01*
X0087145Y0267810D01*
X0087216Y0267771D01*
X0087286Y0267728D01*
X0087353Y0267683D01*
X0087419Y0267634D01*
X0087481Y0267582D01*
X0087541Y0267526D01*
X0087598Y0267468D01*
X0087653Y0267408D01*
X0087704Y0267344D01*
X0087752Y0267279D01*
X0087797Y0267211D01*
X0087839Y0267141D01*
X0087877Y0267069D01*
X0087912Y0266995D01*
X0087943Y0266920D01*
X0087970Y0266843D01*
X0087993Y0266765D01*
X0088013Y0266686D01*
X0088029Y0266606D01*
X0088041Y0266525D01*
X0088049Y0266444D01*
X0088053Y0266363D01*
X0088053Y0266281D01*
X0088049Y0266200D01*
X0088041Y0266119D01*
X0088029Y0266038D01*
X0088013Y0265958D01*
X0087993Y0265879D01*
X0087970Y0265801D01*
X0087943Y0265724D01*
X0087912Y0265649D01*
X0087877Y0265575D01*
X0087839Y0265503D01*
X0087797Y0265433D01*
X0087752Y0265365D01*
X0087704Y0265300D01*
X0087653Y0265236D01*
X0087598Y0265176D01*
X0087541Y0265118D01*
X0087481Y0265062D01*
X0087419Y0265010D01*
X0087353Y0264961D01*
X0087286Y0264916D01*
X0087217Y0264873D01*
X0087145Y0264834D01*
X0087072Y0264799D01*
X0086997Y0264767D01*
X0086920Y0264739D01*
X0086842Y0264714D01*
X0086764Y0264694D01*
X0086684Y0264677D01*
X0086603Y0264664D01*
X0086522Y0264655D01*
X0086441Y0264650D01*
X0086360Y0264649D01*
X0086278Y0264652D01*
X0086197Y0264659D01*
X0086116Y0264670D01*
X0086036Y0264685D01*
X0085957Y0264703D01*
X0085879Y0264726D01*
X0085801Y0264752D01*
X0085726Y0264782D01*
X0085651Y0264816D01*
X0085579Y0264853D01*
X0085508Y0264894D01*
X0085440Y0264938D01*
X0085374Y0264985D01*
X0085310Y0265036D01*
X0085248Y0265090D01*
X0085190Y0265146D01*
X0085134Y0265206D01*
X0085081Y0265268D01*
X0085031Y0265332D01*
X0084985Y0265399D01*
X0084941Y0265468D01*
X0084902Y0265539D01*
X0084865Y0265612D01*
X0084832Y0265686D01*
X0084803Y0265763D01*
X0084778Y0265840D01*
X0084756Y0265919D01*
X0084739Y0265998D01*
X0084725Y0266078D01*
X0084715Y0266159D01*
X0084709Y0266241D01*
X0084707Y0266322D01*
X0102226Y0266322D02*
X0102228Y0266403D01*
X0102234Y0266485D01*
X0102244Y0266566D01*
X0102258Y0266646D01*
X0102275Y0266725D01*
X0102297Y0266804D01*
X0102322Y0266881D01*
X0102351Y0266958D01*
X0102384Y0267032D01*
X0102421Y0267105D01*
X0102460Y0267176D01*
X0102504Y0267245D01*
X0102550Y0267312D01*
X0102600Y0267376D01*
X0102653Y0267438D01*
X0102709Y0267498D01*
X0102767Y0267554D01*
X0102829Y0267608D01*
X0102893Y0267659D01*
X0102959Y0267706D01*
X0103027Y0267750D01*
X0103098Y0267791D01*
X0103170Y0267828D01*
X0103245Y0267862D01*
X0103320Y0267892D01*
X0103398Y0267918D01*
X0103476Y0267941D01*
X0103555Y0267959D01*
X0103635Y0267974D01*
X0103716Y0267985D01*
X0103797Y0267992D01*
X0103879Y0267995D01*
X0103960Y0267994D01*
X0104041Y0267989D01*
X0104122Y0267980D01*
X0104203Y0267967D01*
X0104283Y0267950D01*
X0104361Y0267930D01*
X0104439Y0267905D01*
X0104516Y0267877D01*
X0104591Y0267845D01*
X0104664Y0267810D01*
X0104735Y0267771D01*
X0104805Y0267728D01*
X0104872Y0267683D01*
X0104938Y0267634D01*
X0105000Y0267582D01*
X0105060Y0267526D01*
X0105117Y0267468D01*
X0105172Y0267408D01*
X0105223Y0267344D01*
X0105271Y0267279D01*
X0105316Y0267211D01*
X0105358Y0267141D01*
X0105396Y0267069D01*
X0105431Y0266995D01*
X0105462Y0266920D01*
X0105489Y0266843D01*
X0105512Y0266765D01*
X0105532Y0266686D01*
X0105548Y0266606D01*
X0105560Y0266525D01*
X0105568Y0266444D01*
X0105572Y0266363D01*
X0105572Y0266281D01*
X0105568Y0266200D01*
X0105560Y0266119D01*
X0105548Y0266038D01*
X0105532Y0265958D01*
X0105512Y0265879D01*
X0105489Y0265801D01*
X0105462Y0265724D01*
X0105431Y0265649D01*
X0105396Y0265575D01*
X0105358Y0265503D01*
X0105316Y0265433D01*
X0105271Y0265365D01*
X0105223Y0265300D01*
X0105172Y0265236D01*
X0105117Y0265176D01*
X0105060Y0265118D01*
X0105000Y0265062D01*
X0104938Y0265010D01*
X0104872Y0264961D01*
X0104805Y0264916D01*
X0104736Y0264873D01*
X0104664Y0264834D01*
X0104591Y0264799D01*
X0104516Y0264767D01*
X0104439Y0264739D01*
X0104361Y0264714D01*
X0104283Y0264694D01*
X0104203Y0264677D01*
X0104122Y0264664D01*
X0104041Y0264655D01*
X0103960Y0264650D01*
X0103879Y0264649D01*
X0103797Y0264652D01*
X0103716Y0264659D01*
X0103635Y0264670D01*
X0103555Y0264685D01*
X0103476Y0264703D01*
X0103398Y0264726D01*
X0103320Y0264752D01*
X0103245Y0264782D01*
X0103170Y0264816D01*
X0103098Y0264853D01*
X0103027Y0264894D01*
X0102959Y0264938D01*
X0102893Y0264985D01*
X0102829Y0265036D01*
X0102767Y0265090D01*
X0102709Y0265146D01*
X0102653Y0265206D01*
X0102600Y0265268D01*
X0102550Y0265332D01*
X0102504Y0265399D01*
X0102460Y0265468D01*
X0102421Y0265539D01*
X0102384Y0265612D01*
X0102351Y0265686D01*
X0102322Y0265763D01*
X0102297Y0265840D01*
X0102275Y0265919D01*
X0102258Y0265998D01*
X0102244Y0266078D01*
X0102234Y0266159D01*
X0102228Y0266241D01*
X0102226Y0266322D01*
X0131220Y0256748D02*
X0131222Y0256920D01*
X0131228Y0257092D01*
X0131239Y0257264D01*
X0131254Y0257435D01*
X0131273Y0257606D01*
X0131296Y0257776D01*
X0131323Y0257946D01*
X0131355Y0258115D01*
X0131390Y0258283D01*
X0131430Y0258451D01*
X0131474Y0258617D01*
X0131522Y0258782D01*
X0131574Y0258946D01*
X0131630Y0259109D01*
X0131690Y0259270D01*
X0131753Y0259430D01*
X0131821Y0259588D01*
X0131893Y0259744D01*
X0131968Y0259899D01*
X0132047Y0260052D01*
X0132130Y0260202D01*
X0132217Y0260351D01*
X0132307Y0260497D01*
X0132401Y0260641D01*
X0132498Y0260783D01*
X0132599Y0260923D01*
X0132703Y0261060D01*
X0132811Y0261194D01*
X0132921Y0261325D01*
X0133035Y0261454D01*
X0133152Y0261580D01*
X0133273Y0261703D01*
X0133396Y0261824D01*
X0133522Y0261941D01*
X0133651Y0262055D01*
X0133782Y0262165D01*
X0133916Y0262273D01*
X0134053Y0262377D01*
X0134193Y0262478D01*
X0134335Y0262575D01*
X0134479Y0262669D01*
X0134625Y0262759D01*
X0134774Y0262846D01*
X0134924Y0262929D01*
X0135077Y0263008D01*
X0135232Y0263083D01*
X0135388Y0263155D01*
X0135546Y0263223D01*
X0135706Y0263286D01*
X0135867Y0263346D01*
X0136030Y0263402D01*
X0136194Y0263454D01*
X0136359Y0263502D01*
X0136525Y0263546D01*
X0136693Y0263586D01*
X0136861Y0263621D01*
X0137030Y0263653D01*
X0137200Y0263680D01*
X0137370Y0263703D01*
X0137541Y0263722D01*
X0137712Y0263737D01*
X0137884Y0263748D01*
X0138056Y0263754D01*
X0138228Y0263756D01*
X0138400Y0263754D01*
X0138572Y0263748D01*
X0138744Y0263737D01*
X0138915Y0263722D01*
X0139086Y0263703D01*
X0139256Y0263680D01*
X0139426Y0263653D01*
X0139595Y0263621D01*
X0139763Y0263586D01*
X0139931Y0263546D01*
X0140097Y0263502D01*
X0140262Y0263454D01*
X0140426Y0263402D01*
X0140589Y0263346D01*
X0140750Y0263286D01*
X0140910Y0263223D01*
X0141068Y0263155D01*
X0141224Y0263083D01*
X0141379Y0263008D01*
X0141532Y0262929D01*
X0141682Y0262846D01*
X0141831Y0262759D01*
X0141977Y0262669D01*
X0142121Y0262575D01*
X0142263Y0262478D01*
X0142403Y0262377D01*
X0142540Y0262273D01*
X0142674Y0262165D01*
X0142805Y0262055D01*
X0142934Y0261941D01*
X0143060Y0261824D01*
X0143183Y0261703D01*
X0143304Y0261580D01*
X0143421Y0261454D01*
X0143535Y0261325D01*
X0143645Y0261194D01*
X0143753Y0261060D01*
X0143857Y0260923D01*
X0143958Y0260783D01*
X0144055Y0260641D01*
X0144149Y0260497D01*
X0144239Y0260351D01*
X0144326Y0260202D01*
X0144409Y0260052D01*
X0144488Y0259899D01*
X0144563Y0259744D01*
X0144635Y0259588D01*
X0144703Y0259430D01*
X0144766Y0259270D01*
X0144826Y0259109D01*
X0144882Y0258946D01*
X0144934Y0258782D01*
X0144982Y0258617D01*
X0145026Y0258451D01*
X0145066Y0258283D01*
X0145101Y0258115D01*
X0145133Y0257946D01*
X0145160Y0257776D01*
X0145183Y0257606D01*
X0145202Y0257435D01*
X0145217Y0257264D01*
X0145228Y0257092D01*
X0145234Y0256920D01*
X0145236Y0256748D01*
X0145234Y0256576D01*
X0145228Y0256404D01*
X0145217Y0256232D01*
X0145202Y0256061D01*
X0145183Y0255890D01*
X0145160Y0255720D01*
X0145133Y0255550D01*
X0145101Y0255381D01*
X0145066Y0255213D01*
X0145026Y0255045D01*
X0144982Y0254879D01*
X0144934Y0254714D01*
X0144882Y0254550D01*
X0144826Y0254387D01*
X0144766Y0254226D01*
X0144703Y0254066D01*
X0144635Y0253908D01*
X0144563Y0253752D01*
X0144488Y0253597D01*
X0144409Y0253444D01*
X0144326Y0253294D01*
X0144239Y0253145D01*
X0144149Y0252999D01*
X0144055Y0252855D01*
X0143958Y0252713D01*
X0143857Y0252573D01*
X0143753Y0252436D01*
X0143645Y0252302D01*
X0143535Y0252171D01*
X0143421Y0252042D01*
X0143304Y0251916D01*
X0143183Y0251793D01*
X0143060Y0251672D01*
X0142934Y0251555D01*
X0142805Y0251441D01*
X0142674Y0251331D01*
X0142540Y0251223D01*
X0142403Y0251119D01*
X0142263Y0251018D01*
X0142121Y0250921D01*
X0141977Y0250827D01*
X0141831Y0250737D01*
X0141682Y0250650D01*
X0141532Y0250567D01*
X0141379Y0250488D01*
X0141224Y0250413D01*
X0141068Y0250341D01*
X0140910Y0250273D01*
X0140750Y0250210D01*
X0140589Y0250150D01*
X0140426Y0250094D01*
X0140262Y0250042D01*
X0140097Y0249994D01*
X0139931Y0249950D01*
X0139763Y0249910D01*
X0139595Y0249875D01*
X0139426Y0249843D01*
X0139256Y0249816D01*
X0139086Y0249793D01*
X0138915Y0249774D01*
X0138744Y0249759D01*
X0138572Y0249748D01*
X0138400Y0249742D01*
X0138228Y0249740D01*
X0138056Y0249742D01*
X0137884Y0249748D01*
X0137712Y0249759D01*
X0137541Y0249774D01*
X0137370Y0249793D01*
X0137200Y0249816D01*
X0137030Y0249843D01*
X0136861Y0249875D01*
X0136693Y0249910D01*
X0136525Y0249950D01*
X0136359Y0249994D01*
X0136194Y0250042D01*
X0136030Y0250094D01*
X0135867Y0250150D01*
X0135706Y0250210D01*
X0135546Y0250273D01*
X0135388Y0250341D01*
X0135232Y0250413D01*
X0135077Y0250488D01*
X0134924Y0250567D01*
X0134774Y0250650D01*
X0134625Y0250737D01*
X0134479Y0250827D01*
X0134335Y0250921D01*
X0134193Y0251018D01*
X0134053Y0251119D01*
X0133916Y0251223D01*
X0133782Y0251331D01*
X0133651Y0251441D01*
X0133522Y0251555D01*
X0133396Y0251672D01*
X0133273Y0251793D01*
X0133152Y0251916D01*
X0133035Y0252042D01*
X0132921Y0252171D01*
X0132811Y0252302D01*
X0132703Y0252436D01*
X0132599Y0252573D01*
X0132498Y0252713D01*
X0132401Y0252855D01*
X0132307Y0252999D01*
X0132217Y0253145D01*
X0132130Y0253294D01*
X0132047Y0253444D01*
X0131968Y0253597D01*
X0131893Y0253752D01*
X0131821Y0253908D01*
X0131753Y0254066D01*
X0131690Y0254226D01*
X0131630Y0254387D01*
X0131574Y0254550D01*
X0131522Y0254714D01*
X0131474Y0254879D01*
X0131430Y0255045D01*
X0131390Y0255213D01*
X0131355Y0255381D01*
X0131323Y0255550D01*
X0131296Y0255720D01*
X0131273Y0255890D01*
X0131254Y0256061D01*
X0131239Y0256232D01*
X0131228Y0256404D01*
X0131222Y0256576D01*
X0131220Y0256748D01*
X0131291Y0444591D02*
X0131293Y0444763D01*
X0131299Y0444935D01*
X0131310Y0445107D01*
X0131325Y0445278D01*
X0131344Y0445449D01*
X0131367Y0445619D01*
X0131394Y0445789D01*
X0131426Y0445958D01*
X0131461Y0446126D01*
X0131501Y0446294D01*
X0131545Y0446460D01*
X0131593Y0446625D01*
X0131645Y0446789D01*
X0131701Y0446952D01*
X0131761Y0447113D01*
X0131824Y0447273D01*
X0131892Y0447431D01*
X0131964Y0447587D01*
X0132039Y0447742D01*
X0132118Y0447895D01*
X0132201Y0448045D01*
X0132288Y0448194D01*
X0132378Y0448340D01*
X0132472Y0448484D01*
X0132569Y0448626D01*
X0132670Y0448766D01*
X0132774Y0448903D01*
X0132882Y0449037D01*
X0132992Y0449168D01*
X0133106Y0449297D01*
X0133223Y0449423D01*
X0133344Y0449546D01*
X0133467Y0449667D01*
X0133593Y0449784D01*
X0133722Y0449898D01*
X0133853Y0450008D01*
X0133987Y0450116D01*
X0134124Y0450220D01*
X0134264Y0450321D01*
X0134406Y0450418D01*
X0134550Y0450512D01*
X0134696Y0450602D01*
X0134845Y0450689D01*
X0134995Y0450772D01*
X0135148Y0450851D01*
X0135303Y0450926D01*
X0135459Y0450998D01*
X0135617Y0451066D01*
X0135777Y0451129D01*
X0135938Y0451189D01*
X0136101Y0451245D01*
X0136265Y0451297D01*
X0136430Y0451345D01*
X0136596Y0451389D01*
X0136764Y0451429D01*
X0136932Y0451464D01*
X0137101Y0451496D01*
X0137271Y0451523D01*
X0137441Y0451546D01*
X0137612Y0451565D01*
X0137783Y0451580D01*
X0137955Y0451591D01*
X0138127Y0451597D01*
X0138299Y0451599D01*
X0138471Y0451597D01*
X0138643Y0451591D01*
X0138815Y0451580D01*
X0138986Y0451565D01*
X0139157Y0451546D01*
X0139327Y0451523D01*
X0139497Y0451496D01*
X0139666Y0451464D01*
X0139834Y0451429D01*
X0140002Y0451389D01*
X0140168Y0451345D01*
X0140333Y0451297D01*
X0140497Y0451245D01*
X0140660Y0451189D01*
X0140821Y0451129D01*
X0140981Y0451066D01*
X0141139Y0450998D01*
X0141295Y0450926D01*
X0141450Y0450851D01*
X0141603Y0450772D01*
X0141753Y0450689D01*
X0141902Y0450602D01*
X0142048Y0450512D01*
X0142192Y0450418D01*
X0142334Y0450321D01*
X0142474Y0450220D01*
X0142611Y0450116D01*
X0142745Y0450008D01*
X0142876Y0449898D01*
X0143005Y0449784D01*
X0143131Y0449667D01*
X0143254Y0449546D01*
X0143375Y0449423D01*
X0143492Y0449297D01*
X0143606Y0449168D01*
X0143716Y0449037D01*
X0143824Y0448903D01*
X0143928Y0448766D01*
X0144029Y0448626D01*
X0144126Y0448484D01*
X0144220Y0448340D01*
X0144310Y0448194D01*
X0144397Y0448045D01*
X0144480Y0447895D01*
X0144559Y0447742D01*
X0144634Y0447587D01*
X0144706Y0447431D01*
X0144774Y0447273D01*
X0144837Y0447113D01*
X0144897Y0446952D01*
X0144953Y0446789D01*
X0145005Y0446625D01*
X0145053Y0446460D01*
X0145097Y0446294D01*
X0145137Y0446126D01*
X0145172Y0445958D01*
X0145204Y0445789D01*
X0145231Y0445619D01*
X0145254Y0445449D01*
X0145273Y0445278D01*
X0145288Y0445107D01*
X0145299Y0444935D01*
X0145305Y0444763D01*
X0145307Y0444591D01*
X0145305Y0444419D01*
X0145299Y0444247D01*
X0145288Y0444075D01*
X0145273Y0443904D01*
X0145254Y0443733D01*
X0145231Y0443563D01*
X0145204Y0443393D01*
X0145172Y0443224D01*
X0145137Y0443056D01*
X0145097Y0442888D01*
X0145053Y0442722D01*
X0145005Y0442557D01*
X0144953Y0442393D01*
X0144897Y0442230D01*
X0144837Y0442069D01*
X0144774Y0441909D01*
X0144706Y0441751D01*
X0144634Y0441595D01*
X0144559Y0441440D01*
X0144480Y0441287D01*
X0144397Y0441137D01*
X0144310Y0440988D01*
X0144220Y0440842D01*
X0144126Y0440698D01*
X0144029Y0440556D01*
X0143928Y0440416D01*
X0143824Y0440279D01*
X0143716Y0440145D01*
X0143606Y0440014D01*
X0143492Y0439885D01*
X0143375Y0439759D01*
X0143254Y0439636D01*
X0143131Y0439515D01*
X0143005Y0439398D01*
X0142876Y0439284D01*
X0142745Y0439174D01*
X0142611Y0439066D01*
X0142474Y0438962D01*
X0142334Y0438861D01*
X0142192Y0438764D01*
X0142048Y0438670D01*
X0141902Y0438580D01*
X0141753Y0438493D01*
X0141603Y0438410D01*
X0141450Y0438331D01*
X0141295Y0438256D01*
X0141139Y0438184D01*
X0140981Y0438116D01*
X0140821Y0438053D01*
X0140660Y0437993D01*
X0140497Y0437937D01*
X0140333Y0437885D01*
X0140168Y0437837D01*
X0140002Y0437793D01*
X0139834Y0437753D01*
X0139666Y0437718D01*
X0139497Y0437686D01*
X0139327Y0437659D01*
X0139157Y0437636D01*
X0138986Y0437617D01*
X0138815Y0437602D01*
X0138643Y0437591D01*
X0138471Y0437585D01*
X0138299Y0437583D01*
X0138127Y0437585D01*
X0137955Y0437591D01*
X0137783Y0437602D01*
X0137612Y0437617D01*
X0137441Y0437636D01*
X0137271Y0437659D01*
X0137101Y0437686D01*
X0136932Y0437718D01*
X0136764Y0437753D01*
X0136596Y0437793D01*
X0136430Y0437837D01*
X0136265Y0437885D01*
X0136101Y0437937D01*
X0135938Y0437993D01*
X0135777Y0438053D01*
X0135617Y0438116D01*
X0135459Y0438184D01*
X0135303Y0438256D01*
X0135148Y0438331D01*
X0134995Y0438410D01*
X0134845Y0438493D01*
X0134696Y0438580D01*
X0134550Y0438670D01*
X0134406Y0438764D01*
X0134264Y0438861D01*
X0134124Y0438962D01*
X0133987Y0439066D01*
X0133853Y0439174D01*
X0133722Y0439284D01*
X0133593Y0439398D01*
X0133467Y0439515D01*
X0133344Y0439636D01*
X0133223Y0439759D01*
X0133106Y0439885D01*
X0132992Y0440014D01*
X0132882Y0440145D01*
X0132774Y0440279D01*
X0132670Y0440416D01*
X0132569Y0440556D01*
X0132472Y0440698D01*
X0132378Y0440842D01*
X0132288Y0440988D01*
X0132201Y0441137D01*
X0132118Y0441287D01*
X0132039Y0441440D01*
X0131964Y0441595D01*
X0131892Y0441751D01*
X0131824Y0441909D01*
X0131761Y0442069D01*
X0131701Y0442230D01*
X0131645Y0442393D01*
X0131593Y0442557D01*
X0131545Y0442722D01*
X0131501Y0442888D01*
X0131461Y0443056D01*
X0131426Y0443224D01*
X0131394Y0443393D01*
X0131367Y0443563D01*
X0131344Y0443733D01*
X0131325Y0443904D01*
X0131310Y0444075D01*
X0131299Y0444247D01*
X0131293Y0444419D01*
X0131291Y0444591D01*
X0049216Y0445724D02*
X0049218Y0445896D01*
X0049224Y0446068D01*
X0049235Y0446240D01*
X0049250Y0446411D01*
X0049269Y0446582D01*
X0049292Y0446752D01*
X0049319Y0446922D01*
X0049351Y0447091D01*
X0049386Y0447259D01*
X0049426Y0447427D01*
X0049470Y0447593D01*
X0049518Y0447758D01*
X0049570Y0447922D01*
X0049626Y0448085D01*
X0049686Y0448246D01*
X0049749Y0448406D01*
X0049817Y0448564D01*
X0049889Y0448720D01*
X0049964Y0448875D01*
X0050043Y0449028D01*
X0050126Y0449178D01*
X0050213Y0449327D01*
X0050303Y0449473D01*
X0050397Y0449617D01*
X0050494Y0449759D01*
X0050595Y0449899D01*
X0050699Y0450036D01*
X0050807Y0450170D01*
X0050917Y0450301D01*
X0051031Y0450430D01*
X0051148Y0450556D01*
X0051269Y0450679D01*
X0051392Y0450800D01*
X0051518Y0450917D01*
X0051647Y0451031D01*
X0051778Y0451141D01*
X0051912Y0451249D01*
X0052049Y0451353D01*
X0052189Y0451454D01*
X0052331Y0451551D01*
X0052475Y0451645D01*
X0052621Y0451735D01*
X0052770Y0451822D01*
X0052920Y0451905D01*
X0053073Y0451984D01*
X0053228Y0452059D01*
X0053384Y0452131D01*
X0053542Y0452199D01*
X0053702Y0452262D01*
X0053863Y0452322D01*
X0054026Y0452378D01*
X0054190Y0452430D01*
X0054355Y0452478D01*
X0054521Y0452522D01*
X0054689Y0452562D01*
X0054857Y0452597D01*
X0055026Y0452629D01*
X0055196Y0452656D01*
X0055366Y0452679D01*
X0055537Y0452698D01*
X0055708Y0452713D01*
X0055880Y0452724D01*
X0056052Y0452730D01*
X0056224Y0452732D01*
X0056396Y0452730D01*
X0056568Y0452724D01*
X0056740Y0452713D01*
X0056911Y0452698D01*
X0057082Y0452679D01*
X0057252Y0452656D01*
X0057422Y0452629D01*
X0057591Y0452597D01*
X0057759Y0452562D01*
X0057927Y0452522D01*
X0058093Y0452478D01*
X0058258Y0452430D01*
X0058422Y0452378D01*
X0058585Y0452322D01*
X0058746Y0452262D01*
X0058906Y0452199D01*
X0059064Y0452131D01*
X0059220Y0452059D01*
X0059375Y0451984D01*
X0059528Y0451905D01*
X0059678Y0451822D01*
X0059827Y0451735D01*
X0059973Y0451645D01*
X0060117Y0451551D01*
X0060259Y0451454D01*
X0060399Y0451353D01*
X0060536Y0451249D01*
X0060670Y0451141D01*
X0060801Y0451031D01*
X0060930Y0450917D01*
X0061056Y0450800D01*
X0061179Y0450679D01*
X0061300Y0450556D01*
X0061417Y0450430D01*
X0061531Y0450301D01*
X0061641Y0450170D01*
X0061749Y0450036D01*
X0061853Y0449899D01*
X0061954Y0449759D01*
X0062051Y0449617D01*
X0062145Y0449473D01*
X0062235Y0449327D01*
X0062322Y0449178D01*
X0062405Y0449028D01*
X0062484Y0448875D01*
X0062559Y0448720D01*
X0062631Y0448564D01*
X0062699Y0448406D01*
X0062762Y0448246D01*
X0062822Y0448085D01*
X0062878Y0447922D01*
X0062930Y0447758D01*
X0062978Y0447593D01*
X0063022Y0447427D01*
X0063062Y0447259D01*
X0063097Y0447091D01*
X0063129Y0446922D01*
X0063156Y0446752D01*
X0063179Y0446582D01*
X0063198Y0446411D01*
X0063213Y0446240D01*
X0063224Y0446068D01*
X0063230Y0445896D01*
X0063232Y0445724D01*
X0063230Y0445552D01*
X0063224Y0445380D01*
X0063213Y0445208D01*
X0063198Y0445037D01*
X0063179Y0444866D01*
X0063156Y0444696D01*
X0063129Y0444526D01*
X0063097Y0444357D01*
X0063062Y0444189D01*
X0063022Y0444021D01*
X0062978Y0443855D01*
X0062930Y0443690D01*
X0062878Y0443526D01*
X0062822Y0443363D01*
X0062762Y0443202D01*
X0062699Y0443042D01*
X0062631Y0442884D01*
X0062559Y0442728D01*
X0062484Y0442573D01*
X0062405Y0442420D01*
X0062322Y0442270D01*
X0062235Y0442121D01*
X0062145Y0441975D01*
X0062051Y0441831D01*
X0061954Y0441689D01*
X0061853Y0441549D01*
X0061749Y0441412D01*
X0061641Y0441278D01*
X0061531Y0441147D01*
X0061417Y0441018D01*
X0061300Y0440892D01*
X0061179Y0440769D01*
X0061056Y0440648D01*
X0060930Y0440531D01*
X0060801Y0440417D01*
X0060670Y0440307D01*
X0060536Y0440199D01*
X0060399Y0440095D01*
X0060259Y0439994D01*
X0060117Y0439897D01*
X0059973Y0439803D01*
X0059827Y0439713D01*
X0059678Y0439626D01*
X0059528Y0439543D01*
X0059375Y0439464D01*
X0059220Y0439389D01*
X0059064Y0439317D01*
X0058906Y0439249D01*
X0058746Y0439186D01*
X0058585Y0439126D01*
X0058422Y0439070D01*
X0058258Y0439018D01*
X0058093Y0438970D01*
X0057927Y0438926D01*
X0057759Y0438886D01*
X0057591Y0438851D01*
X0057422Y0438819D01*
X0057252Y0438792D01*
X0057082Y0438769D01*
X0056911Y0438750D01*
X0056740Y0438735D01*
X0056568Y0438724D01*
X0056396Y0438718D01*
X0056224Y0438716D01*
X0056052Y0438718D01*
X0055880Y0438724D01*
X0055708Y0438735D01*
X0055537Y0438750D01*
X0055366Y0438769D01*
X0055196Y0438792D01*
X0055026Y0438819D01*
X0054857Y0438851D01*
X0054689Y0438886D01*
X0054521Y0438926D01*
X0054355Y0438970D01*
X0054190Y0439018D01*
X0054026Y0439070D01*
X0053863Y0439126D01*
X0053702Y0439186D01*
X0053542Y0439249D01*
X0053384Y0439317D01*
X0053228Y0439389D01*
X0053073Y0439464D01*
X0052920Y0439543D01*
X0052770Y0439626D01*
X0052621Y0439713D01*
X0052475Y0439803D01*
X0052331Y0439897D01*
X0052189Y0439994D01*
X0052049Y0440095D01*
X0051912Y0440199D01*
X0051778Y0440307D01*
X0051647Y0440417D01*
X0051518Y0440531D01*
X0051392Y0440648D01*
X0051269Y0440769D01*
X0051148Y0440892D01*
X0051031Y0441018D01*
X0050917Y0441147D01*
X0050807Y0441278D01*
X0050699Y0441412D01*
X0050595Y0441549D01*
X0050494Y0441689D01*
X0050397Y0441831D01*
X0050303Y0441975D01*
X0050213Y0442121D01*
X0050126Y0442270D01*
X0050043Y0442420D01*
X0049964Y0442573D01*
X0049889Y0442728D01*
X0049817Y0442884D01*
X0049749Y0443042D01*
X0049686Y0443202D01*
X0049626Y0443363D01*
X0049570Y0443526D01*
X0049518Y0443690D01*
X0049470Y0443855D01*
X0049426Y0444021D01*
X0049386Y0444189D01*
X0049351Y0444357D01*
X0049319Y0444526D01*
X0049292Y0444696D01*
X0049269Y0444866D01*
X0049250Y0445037D01*
X0049235Y0445208D01*
X0049224Y0445380D01*
X0049218Y0445552D01*
X0049216Y0445724D01*
X0356342Y0445724D02*
X0356344Y0445895D01*
X0356350Y0446066D01*
X0356361Y0446237D01*
X0356376Y0446407D01*
X0356394Y0446577D01*
X0356417Y0446747D01*
X0356445Y0446915D01*
X0356476Y0447084D01*
X0356511Y0447251D01*
X0356551Y0447417D01*
X0356594Y0447583D01*
X0356642Y0447747D01*
X0356694Y0447910D01*
X0356749Y0448072D01*
X0356809Y0448232D01*
X0356872Y0448391D01*
X0356940Y0448548D01*
X0357011Y0448704D01*
X0357086Y0448857D01*
X0357165Y0449009D01*
X0357247Y0449159D01*
X0357333Y0449307D01*
X0357423Y0449452D01*
X0357516Y0449596D01*
X0357613Y0449737D01*
X0357713Y0449875D01*
X0357817Y0450012D01*
X0357924Y0450145D01*
X0358034Y0450276D01*
X0358147Y0450404D01*
X0358264Y0450529D01*
X0358383Y0450652D01*
X0358506Y0450771D01*
X0358631Y0450888D01*
X0358759Y0451001D01*
X0358890Y0451111D01*
X0359023Y0451218D01*
X0359160Y0451322D01*
X0359298Y0451422D01*
X0359439Y0451519D01*
X0359583Y0451612D01*
X0359728Y0451702D01*
X0359876Y0451788D01*
X0360026Y0451870D01*
X0360178Y0451949D01*
X0360331Y0452024D01*
X0360487Y0452095D01*
X0360644Y0452163D01*
X0360803Y0452226D01*
X0360963Y0452286D01*
X0361125Y0452341D01*
X0361288Y0452393D01*
X0361452Y0452441D01*
X0361618Y0452484D01*
X0361784Y0452524D01*
X0361951Y0452559D01*
X0362120Y0452590D01*
X0362288Y0452618D01*
X0362458Y0452641D01*
X0362628Y0452659D01*
X0362798Y0452674D01*
X0362969Y0452685D01*
X0363140Y0452691D01*
X0363311Y0452693D01*
X0363482Y0452691D01*
X0363653Y0452685D01*
X0363824Y0452674D01*
X0363994Y0452659D01*
X0364164Y0452641D01*
X0364334Y0452618D01*
X0364502Y0452590D01*
X0364671Y0452559D01*
X0364838Y0452524D01*
X0365004Y0452484D01*
X0365170Y0452441D01*
X0365334Y0452393D01*
X0365497Y0452341D01*
X0365659Y0452286D01*
X0365819Y0452226D01*
X0365978Y0452163D01*
X0366135Y0452095D01*
X0366291Y0452024D01*
X0366444Y0451949D01*
X0366596Y0451870D01*
X0366746Y0451788D01*
X0366894Y0451702D01*
X0367039Y0451612D01*
X0367183Y0451519D01*
X0367324Y0451422D01*
X0367462Y0451322D01*
X0367599Y0451218D01*
X0367732Y0451111D01*
X0367863Y0451001D01*
X0367991Y0450888D01*
X0368116Y0450771D01*
X0368239Y0450652D01*
X0368358Y0450529D01*
X0368475Y0450404D01*
X0368588Y0450276D01*
X0368698Y0450145D01*
X0368805Y0450012D01*
X0368909Y0449875D01*
X0369009Y0449737D01*
X0369106Y0449596D01*
X0369199Y0449452D01*
X0369289Y0449307D01*
X0369375Y0449159D01*
X0369457Y0449009D01*
X0369536Y0448857D01*
X0369611Y0448704D01*
X0369682Y0448548D01*
X0369750Y0448391D01*
X0369813Y0448232D01*
X0369873Y0448072D01*
X0369928Y0447910D01*
X0369980Y0447747D01*
X0370028Y0447583D01*
X0370071Y0447417D01*
X0370111Y0447251D01*
X0370146Y0447084D01*
X0370177Y0446915D01*
X0370205Y0446747D01*
X0370228Y0446577D01*
X0370246Y0446407D01*
X0370261Y0446237D01*
X0370272Y0446066D01*
X0370278Y0445895D01*
X0370280Y0445724D01*
X0370278Y0445553D01*
X0370272Y0445382D01*
X0370261Y0445211D01*
X0370246Y0445041D01*
X0370228Y0444871D01*
X0370205Y0444701D01*
X0370177Y0444533D01*
X0370146Y0444364D01*
X0370111Y0444197D01*
X0370071Y0444031D01*
X0370028Y0443865D01*
X0369980Y0443701D01*
X0369928Y0443538D01*
X0369873Y0443376D01*
X0369813Y0443216D01*
X0369750Y0443057D01*
X0369682Y0442900D01*
X0369611Y0442744D01*
X0369536Y0442591D01*
X0369457Y0442439D01*
X0369375Y0442289D01*
X0369289Y0442141D01*
X0369199Y0441996D01*
X0369106Y0441852D01*
X0369009Y0441711D01*
X0368909Y0441573D01*
X0368805Y0441436D01*
X0368698Y0441303D01*
X0368588Y0441172D01*
X0368475Y0441044D01*
X0368358Y0440919D01*
X0368239Y0440796D01*
X0368116Y0440677D01*
X0367991Y0440560D01*
X0367863Y0440447D01*
X0367732Y0440337D01*
X0367599Y0440230D01*
X0367462Y0440126D01*
X0367324Y0440026D01*
X0367183Y0439929D01*
X0367039Y0439836D01*
X0366894Y0439746D01*
X0366746Y0439660D01*
X0366596Y0439578D01*
X0366444Y0439499D01*
X0366291Y0439424D01*
X0366135Y0439353D01*
X0365978Y0439285D01*
X0365819Y0439222D01*
X0365659Y0439162D01*
X0365497Y0439107D01*
X0365334Y0439055D01*
X0365170Y0439007D01*
X0365004Y0438964D01*
X0364838Y0438924D01*
X0364671Y0438889D01*
X0364502Y0438858D01*
X0364334Y0438830D01*
X0364164Y0438807D01*
X0363994Y0438789D01*
X0363824Y0438774D01*
X0363653Y0438763D01*
X0363482Y0438757D01*
X0363311Y0438755D01*
X0363140Y0438757D01*
X0362969Y0438763D01*
X0362798Y0438774D01*
X0362628Y0438789D01*
X0362458Y0438807D01*
X0362288Y0438830D01*
X0362120Y0438858D01*
X0361951Y0438889D01*
X0361784Y0438924D01*
X0361618Y0438964D01*
X0361452Y0439007D01*
X0361288Y0439055D01*
X0361125Y0439107D01*
X0360963Y0439162D01*
X0360803Y0439222D01*
X0360644Y0439285D01*
X0360487Y0439353D01*
X0360331Y0439424D01*
X0360178Y0439499D01*
X0360026Y0439578D01*
X0359876Y0439660D01*
X0359728Y0439746D01*
X0359583Y0439836D01*
X0359439Y0439929D01*
X0359298Y0440026D01*
X0359160Y0440126D01*
X0359023Y0440230D01*
X0358890Y0440337D01*
X0358759Y0440447D01*
X0358631Y0440560D01*
X0358506Y0440677D01*
X0358383Y0440796D01*
X0358264Y0440919D01*
X0358147Y0441044D01*
X0358034Y0441172D01*
X0357924Y0441303D01*
X0357817Y0441436D01*
X0357713Y0441573D01*
X0357613Y0441711D01*
X0357516Y0441852D01*
X0357423Y0441996D01*
X0357333Y0442141D01*
X0357247Y0442289D01*
X0357165Y0442439D01*
X0357086Y0442591D01*
X0357011Y0442744D01*
X0356940Y0442900D01*
X0356872Y0443057D01*
X0356809Y0443216D01*
X0356749Y0443376D01*
X0356694Y0443538D01*
X0356642Y0443701D01*
X0356594Y0443865D01*
X0356551Y0444031D01*
X0356511Y0444197D01*
X0356476Y0444364D01*
X0356445Y0444533D01*
X0356417Y0444701D01*
X0356394Y0444871D01*
X0356376Y0445041D01*
X0356361Y0445211D01*
X0356350Y0445382D01*
X0356344Y0445553D01*
X0356342Y0445724D01*
X0356303Y0256748D02*
X0356305Y0256920D01*
X0356311Y0257092D01*
X0356322Y0257264D01*
X0356337Y0257435D01*
X0356356Y0257606D01*
X0356379Y0257776D01*
X0356406Y0257946D01*
X0356438Y0258115D01*
X0356473Y0258283D01*
X0356513Y0258451D01*
X0356557Y0258617D01*
X0356605Y0258782D01*
X0356657Y0258946D01*
X0356713Y0259109D01*
X0356773Y0259270D01*
X0356836Y0259430D01*
X0356904Y0259588D01*
X0356976Y0259744D01*
X0357051Y0259899D01*
X0357130Y0260052D01*
X0357213Y0260202D01*
X0357300Y0260351D01*
X0357390Y0260497D01*
X0357484Y0260641D01*
X0357581Y0260783D01*
X0357682Y0260923D01*
X0357786Y0261060D01*
X0357894Y0261194D01*
X0358004Y0261325D01*
X0358118Y0261454D01*
X0358235Y0261580D01*
X0358356Y0261703D01*
X0358479Y0261824D01*
X0358605Y0261941D01*
X0358734Y0262055D01*
X0358865Y0262165D01*
X0358999Y0262273D01*
X0359136Y0262377D01*
X0359276Y0262478D01*
X0359418Y0262575D01*
X0359562Y0262669D01*
X0359708Y0262759D01*
X0359857Y0262846D01*
X0360007Y0262929D01*
X0360160Y0263008D01*
X0360315Y0263083D01*
X0360471Y0263155D01*
X0360629Y0263223D01*
X0360789Y0263286D01*
X0360950Y0263346D01*
X0361113Y0263402D01*
X0361277Y0263454D01*
X0361442Y0263502D01*
X0361608Y0263546D01*
X0361776Y0263586D01*
X0361944Y0263621D01*
X0362113Y0263653D01*
X0362283Y0263680D01*
X0362453Y0263703D01*
X0362624Y0263722D01*
X0362795Y0263737D01*
X0362967Y0263748D01*
X0363139Y0263754D01*
X0363311Y0263756D01*
X0363483Y0263754D01*
X0363655Y0263748D01*
X0363827Y0263737D01*
X0363998Y0263722D01*
X0364169Y0263703D01*
X0364339Y0263680D01*
X0364509Y0263653D01*
X0364678Y0263621D01*
X0364846Y0263586D01*
X0365014Y0263546D01*
X0365180Y0263502D01*
X0365345Y0263454D01*
X0365509Y0263402D01*
X0365672Y0263346D01*
X0365833Y0263286D01*
X0365993Y0263223D01*
X0366151Y0263155D01*
X0366307Y0263083D01*
X0366462Y0263008D01*
X0366615Y0262929D01*
X0366765Y0262846D01*
X0366914Y0262759D01*
X0367060Y0262669D01*
X0367204Y0262575D01*
X0367346Y0262478D01*
X0367486Y0262377D01*
X0367623Y0262273D01*
X0367757Y0262165D01*
X0367888Y0262055D01*
X0368017Y0261941D01*
X0368143Y0261824D01*
X0368266Y0261703D01*
X0368387Y0261580D01*
X0368504Y0261454D01*
X0368618Y0261325D01*
X0368728Y0261194D01*
X0368836Y0261060D01*
X0368940Y0260923D01*
X0369041Y0260783D01*
X0369138Y0260641D01*
X0369232Y0260497D01*
X0369322Y0260351D01*
X0369409Y0260202D01*
X0369492Y0260052D01*
X0369571Y0259899D01*
X0369646Y0259744D01*
X0369718Y0259588D01*
X0369786Y0259430D01*
X0369849Y0259270D01*
X0369909Y0259109D01*
X0369965Y0258946D01*
X0370017Y0258782D01*
X0370065Y0258617D01*
X0370109Y0258451D01*
X0370149Y0258283D01*
X0370184Y0258115D01*
X0370216Y0257946D01*
X0370243Y0257776D01*
X0370266Y0257606D01*
X0370285Y0257435D01*
X0370300Y0257264D01*
X0370311Y0257092D01*
X0370317Y0256920D01*
X0370319Y0256748D01*
X0370317Y0256576D01*
X0370311Y0256404D01*
X0370300Y0256232D01*
X0370285Y0256061D01*
X0370266Y0255890D01*
X0370243Y0255720D01*
X0370216Y0255550D01*
X0370184Y0255381D01*
X0370149Y0255213D01*
X0370109Y0255045D01*
X0370065Y0254879D01*
X0370017Y0254714D01*
X0369965Y0254550D01*
X0369909Y0254387D01*
X0369849Y0254226D01*
X0369786Y0254066D01*
X0369718Y0253908D01*
X0369646Y0253752D01*
X0369571Y0253597D01*
X0369492Y0253444D01*
X0369409Y0253294D01*
X0369322Y0253145D01*
X0369232Y0252999D01*
X0369138Y0252855D01*
X0369041Y0252713D01*
X0368940Y0252573D01*
X0368836Y0252436D01*
X0368728Y0252302D01*
X0368618Y0252171D01*
X0368504Y0252042D01*
X0368387Y0251916D01*
X0368266Y0251793D01*
X0368143Y0251672D01*
X0368017Y0251555D01*
X0367888Y0251441D01*
X0367757Y0251331D01*
X0367623Y0251223D01*
X0367486Y0251119D01*
X0367346Y0251018D01*
X0367204Y0250921D01*
X0367060Y0250827D01*
X0366914Y0250737D01*
X0366765Y0250650D01*
X0366615Y0250567D01*
X0366462Y0250488D01*
X0366307Y0250413D01*
X0366151Y0250341D01*
X0365993Y0250273D01*
X0365833Y0250210D01*
X0365672Y0250150D01*
X0365509Y0250094D01*
X0365345Y0250042D01*
X0365180Y0249994D01*
X0365014Y0249950D01*
X0364846Y0249910D01*
X0364678Y0249875D01*
X0364509Y0249843D01*
X0364339Y0249816D01*
X0364169Y0249793D01*
X0363998Y0249774D01*
X0363827Y0249759D01*
X0363655Y0249748D01*
X0363483Y0249742D01*
X0363311Y0249740D01*
X0363139Y0249742D01*
X0362967Y0249748D01*
X0362795Y0249759D01*
X0362624Y0249774D01*
X0362453Y0249793D01*
X0362283Y0249816D01*
X0362113Y0249843D01*
X0361944Y0249875D01*
X0361776Y0249910D01*
X0361608Y0249950D01*
X0361442Y0249994D01*
X0361277Y0250042D01*
X0361113Y0250094D01*
X0360950Y0250150D01*
X0360789Y0250210D01*
X0360629Y0250273D01*
X0360471Y0250341D01*
X0360315Y0250413D01*
X0360160Y0250488D01*
X0360007Y0250567D01*
X0359857Y0250650D01*
X0359708Y0250737D01*
X0359562Y0250827D01*
X0359418Y0250921D01*
X0359276Y0251018D01*
X0359136Y0251119D01*
X0358999Y0251223D01*
X0358865Y0251331D01*
X0358734Y0251441D01*
X0358605Y0251555D01*
X0358479Y0251672D01*
X0358356Y0251793D01*
X0358235Y0251916D01*
X0358118Y0252042D01*
X0358004Y0252171D01*
X0357894Y0252302D01*
X0357786Y0252436D01*
X0357682Y0252573D01*
X0357581Y0252713D01*
X0357484Y0252855D01*
X0357390Y0252999D01*
X0357300Y0253145D01*
X0357213Y0253294D01*
X0357130Y0253444D01*
X0357051Y0253597D01*
X0356976Y0253752D01*
X0356904Y0253908D01*
X0356836Y0254066D01*
X0356773Y0254226D01*
X0356713Y0254387D01*
X0356657Y0254550D01*
X0356605Y0254714D01*
X0356557Y0254879D01*
X0356513Y0255045D01*
X0356473Y0255213D01*
X0356438Y0255381D01*
X0356406Y0255550D01*
X0356379Y0255720D01*
X0356356Y0255890D01*
X0356337Y0256061D01*
X0356322Y0256232D01*
X0356311Y0256404D01*
X0356305Y0256576D01*
X0356303Y0256748D01*
M02*
