G75*
%MOIN*%
%OFA0B0*%
%FSLAX25Y25*%
%IPPOS*%
%LPD*%
%AMOC8*
5,1,8,0,0,1.08239X$1,22.5*
%
%ADD10C,0.00400*%
%ADD11C,0.00600*%
%ADD12C,0.00300*%
%ADD13R,0.00787X0.00787*%
%ADD14R,0.00591X0.00984*%
%ADD15C,0.00100*%
%ADD16C,0.00500*%
%ADD17C,0.00800*%
%ADD18C,0.03200*%
D10*
X0336200Y0640200D02*
X0336200Y0644800D01*
X0337478Y0644800D01*
X0337548Y0644798D01*
X0337619Y0644792D01*
X0337688Y0644783D01*
X0337757Y0644769D01*
X0337826Y0644752D01*
X0337893Y0644731D01*
X0337959Y0644706D01*
X0338023Y0644678D01*
X0338086Y0644646D01*
X0338147Y0644611D01*
X0338206Y0644572D01*
X0338263Y0644531D01*
X0338317Y0644486D01*
X0338369Y0644438D01*
X0338418Y0644388D01*
X0338465Y0644334D01*
X0338508Y0644279D01*
X0338548Y0644221D01*
X0338585Y0644161D01*
X0338618Y0644099D01*
X0338648Y0644035D01*
X0338675Y0643970D01*
X0338698Y0643904D01*
X0338717Y0643836D01*
X0338732Y0643767D01*
X0338744Y0643698D01*
X0338752Y0643628D01*
X0338756Y0643557D01*
X0338756Y0643487D01*
X0338752Y0643416D01*
X0338744Y0643346D01*
X0338732Y0643277D01*
X0338717Y0643208D01*
X0338698Y0643140D01*
X0338675Y0643074D01*
X0338648Y0643009D01*
X0338618Y0642945D01*
X0338585Y0642883D01*
X0338548Y0642823D01*
X0338508Y0642765D01*
X0338465Y0642710D01*
X0338418Y0642656D01*
X0338369Y0642606D01*
X0338317Y0642558D01*
X0338263Y0642513D01*
X0338206Y0642472D01*
X0338147Y0642433D01*
X0338086Y0642398D01*
X0338023Y0642366D01*
X0337959Y0642338D01*
X0337893Y0642313D01*
X0337826Y0642292D01*
X0337757Y0642275D01*
X0337688Y0642261D01*
X0337619Y0642252D01*
X0337548Y0642246D01*
X0337478Y0642244D01*
X0336200Y0642244D01*
X0340317Y0644800D02*
X0341339Y0640200D01*
X0342361Y0643267D01*
X0343383Y0640200D01*
X0344406Y0644800D01*
X0346362Y0644800D02*
X0347640Y0644800D01*
X0346362Y0644800D02*
X0346362Y0640200D01*
X0346362Y0642244D02*
X0347640Y0642244D01*
X0347896Y0642244D02*
X0348918Y0640200D01*
X0350833Y0640200D02*
X0353389Y0640200D01*
X0352111Y0640200D02*
X0352111Y0644800D01*
X0350833Y0643778D01*
X0347640Y0644800D02*
X0347710Y0644798D01*
X0347781Y0644792D01*
X0347850Y0644783D01*
X0347919Y0644769D01*
X0347988Y0644752D01*
X0348055Y0644731D01*
X0348121Y0644706D01*
X0348185Y0644678D01*
X0348248Y0644646D01*
X0348309Y0644611D01*
X0348368Y0644572D01*
X0348425Y0644531D01*
X0348479Y0644486D01*
X0348531Y0644438D01*
X0348580Y0644388D01*
X0348627Y0644334D01*
X0348670Y0644279D01*
X0348710Y0644221D01*
X0348747Y0644161D01*
X0348780Y0644099D01*
X0348810Y0644035D01*
X0348837Y0643970D01*
X0348860Y0643904D01*
X0348879Y0643836D01*
X0348894Y0643767D01*
X0348906Y0643698D01*
X0348914Y0643628D01*
X0348918Y0643557D01*
X0348918Y0643487D01*
X0348914Y0643416D01*
X0348906Y0643346D01*
X0348894Y0643277D01*
X0348879Y0643208D01*
X0348860Y0643140D01*
X0348837Y0643074D01*
X0348810Y0643009D01*
X0348780Y0642945D01*
X0348747Y0642883D01*
X0348710Y0642823D01*
X0348670Y0642765D01*
X0348627Y0642710D01*
X0348580Y0642656D01*
X0348531Y0642606D01*
X0348479Y0642558D01*
X0348425Y0642513D01*
X0348368Y0642472D01*
X0348309Y0642433D01*
X0348248Y0642398D01*
X0348185Y0642366D01*
X0348121Y0642338D01*
X0348055Y0642313D01*
X0347988Y0642292D01*
X0347919Y0642275D01*
X0347850Y0642261D01*
X0347781Y0642252D01*
X0347710Y0642246D01*
X0347640Y0642244D01*
X0355283Y0642628D02*
X0355539Y0642628D01*
X0355539Y0642883D01*
X0355283Y0642883D01*
X0355283Y0642628D01*
X0355283Y0640839D02*
X0355539Y0640839D01*
X0355539Y0640583D01*
X0355283Y0640583D01*
X0355283Y0640839D01*
X0357612Y0640200D02*
X0357612Y0644800D01*
X0358890Y0644800D01*
X0358960Y0644798D01*
X0359031Y0644792D01*
X0359100Y0644783D01*
X0359169Y0644769D01*
X0359238Y0644752D01*
X0359305Y0644731D01*
X0359371Y0644706D01*
X0359435Y0644678D01*
X0359498Y0644646D01*
X0359559Y0644611D01*
X0359618Y0644572D01*
X0359675Y0644531D01*
X0359729Y0644486D01*
X0359781Y0644438D01*
X0359830Y0644388D01*
X0359877Y0644334D01*
X0359920Y0644279D01*
X0359960Y0644221D01*
X0359997Y0644161D01*
X0360030Y0644099D01*
X0360060Y0644035D01*
X0360087Y0643970D01*
X0360110Y0643904D01*
X0360129Y0643836D01*
X0360144Y0643767D01*
X0360156Y0643698D01*
X0360164Y0643628D01*
X0360168Y0643557D01*
X0360168Y0643487D01*
X0360164Y0643416D01*
X0360156Y0643346D01*
X0360144Y0643277D01*
X0360129Y0643208D01*
X0360110Y0643140D01*
X0360087Y0643074D01*
X0360060Y0643009D01*
X0360030Y0642945D01*
X0359997Y0642883D01*
X0359960Y0642823D01*
X0359920Y0642765D01*
X0359877Y0642710D01*
X0359830Y0642656D01*
X0359781Y0642606D01*
X0359729Y0642558D01*
X0359675Y0642513D01*
X0359618Y0642472D01*
X0359559Y0642433D01*
X0359498Y0642398D01*
X0359435Y0642366D01*
X0359371Y0642338D01*
X0359305Y0642313D01*
X0359238Y0642292D01*
X0359169Y0642275D01*
X0359100Y0642261D01*
X0359031Y0642252D01*
X0358960Y0642246D01*
X0358890Y0642244D01*
X0357612Y0642244D01*
X0359146Y0642244D02*
X0360168Y0640200D01*
X0362083Y0640200D02*
X0364639Y0640200D01*
X0363361Y0640200D02*
X0363361Y0644800D01*
X0362083Y0643778D01*
X0362537Y0656200D02*
X0360492Y0656200D01*
X0360492Y0660800D01*
X0362537Y0660800D01*
X0364383Y0660800D02*
X0365661Y0660800D01*
X0364383Y0660800D02*
X0364383Y0656200D01*
X0365661Y0656200D01*
X0365730Y0656202D01*
X0365799Y0656207D01*
X0365868Y0656217D01*
X0365936Y0656230D01*
X0366003Y0656247D01*
X0366069Y0656267D01*
X0366134Y0656291D01*
X0366198Y0656318D01*
X0366260Y0656349D01*
X0366320Y0656383D01*
X0366378Y0656420D01*
X0366434Y0656461D01*
X0366488Y0656504D01*
X0366540Y0656550D01*
X0366589Y0656599D01*
X0366635Y0656651D01*
X0366678Y0656705D01*
X0366719Y0656761D01*
X0366756Y0656819D01*
X0366790Y0656879D01*
X0366821Y0656941D01*
X0366848Y0657005D01*
X0366872Y0657070D01*
X0366892Y0657136D01*
X0366909Y0657203D01*
X0366922Y0657271D01*
X0366932Y0657340D01*
X0366937Y0657409D01*
X0366939Y0657478D01*
X0366939Y0659522D01*
X0366937Y0659591D01*
X0366932Y0659660D01*
X0366922Y0659729D01*
X0366909Y0659797D01*
X0366892Y0659864D01*
X0366872Y0659930D01*
X0366848Y0659995D01*
X0366821Y0660059D01*
X0366790Y0660121D01*
X0366756Y0660181D01*
X0366719Y0660239D01*
X0366678Y0660295D01*
X0366635Y0660349D01*
X0366589Y0660401D01*
X0366540Y0660450D01*
X0366488Y0660496D01*
X0366434Y0660539D01*
X0366378Y0660580D01*
X0366320Y0660617D01*
X0366260Y0660651D01*
X0366198Y0660682D01*
X0366134Y0660709D01*
X0366069Y0660733D01*
X0366003Y0660753D01*
X0365936Y0660770D01*
X0365868Y0660783D01*
X0365799Y0660793D01*
X0365730Y0660798D01*
X0365661Y0660800D01*
X0369033Y0659778D02*
X0370311Y0660800D01*
X0370311Y0656200D01*
X0369033Y0656200D02*
X0371589Y0656200D01*
X0362026Y0658756D02*
X0360492Y0658756D01*
X0358637Y0656200D02*
X0356592Y0656200D01*
X0356592Y0660800D01*
X0354539Y0658883D02*
X0354539Y0658628D01*
X0354283Y0658628D01*
X0354283Y0658883D01*
X0354539Y0658883D01*
X0354539Y0656839D02*
X0354539Y0656583D01*
X0354283Y0656583D01*
X0354283Y0656839D01*
X0354539Y0656839D01*
X0352389Y0656200D02*
X0349833Y0656200D01*
X0351111Y0656200D02*
X0351111Y0660800D01*
X0349833Y0659778D01*
X0346640Y0660800D02*
X0346710Y0660798D01*
X0346781Y0660792D01*
X0346850Y0660783D01*
X0346919Y0660769D01*
X0346988Y0660752D01*
X0347055Y0660731D01*
X0347121Y0660706D01*
X0347185Y0660678D01*
X0347248Y0660646D01*
X0347309Y0660611D01*
X0347368Y0660572D01*
X0347425Y0660531D01*
X0347479Y0660486D01*
X0347531Y0660438D01*
X0347580Y0660388D01*
X0347627Y0660334D01*
X0347670Y0660279D01*
X0347710Y0660221D01*
X0347747Y0660161D01*
X0347780Y0660099D01*
X0347810Y0660035D01*
X0347837Y0659970D01*
X0347860Y0659904D01*
X0347879Y0659836D01*
X0347894Y0659767D01*
X0347906Y0659698D01*
X0347914Y0659628D01*
X0347918Y0659557D01*
X0347918Y0659487D01*
X0347914Y0659416D01*
X0347906Y0659346D01*
X0347894Y0659277D01*
X0347879Y0659208D01*
X0347860Y0659140D01*
X0347837Y0659074D01*
X0347810Y0659009D01*
X0347780Y0658945D01*
X0347747Y0658883D01*
X0347710Y0658823D01*
X0347670Y0658765D01*
X0347627Y0658710D01*
X0347580Y0658656D01*
X0347531Y0658606D01*
X0347479Y0658558D01*
X0347425Y0658513D01*
X0347368Y0658472D01*
X0347309Y0658433D01*
X0347248Y0658398D01*
X0347185Y0658366D01*
X0347121Y0658338D01*
X0347055Y0658313D01*
X0346988Y0658292D01*
X0346919Y0658275D01*
X0346850Y0658261D01*
X0346781Y0658252D01*
X0346710Y0658246D01*
X0346640Y0658244D01*
X0345362Y0658244D01*
X0346896Y0658244D02*
X0347918Y0656200D01*
X0345362Y0656200D02*
X0345362Y0660800D01*
X0346640Y0660800D01*
X0343406Y0660800D02*
X0342383Y0656200D01*
X0341361Y0659267D01*
X0340339Y0656200D01*
X0339317Y0660800D01*
X0336478Y0660800D02*
X0335200Y0660800D01*
X0335200Y0656200D01*
X0335200Y0658244D02*
X0336478Y0658244D01*
X0336548Y0658246D01*
X0336619Y0658252D01*
X0336688Y0658261D01*
X0336757Y0658275D01*
X0336826Y0658292D01*
X0336893Y0658313D01*
X0336959Y0658338D01*
X0337023Y0658366D01*
X0337086Y0658398D01*
X0337147Y0658433D01*
X0337206Y0658472D01*
X0337263Y0658513D01*
X0337317Y0658558D01*
X0337369Y0658606D01*
X0337418Y0658656D01*
X0337465Y0658710D01*
X0337508Y0658765D01*
X0337548Y0658823D01*
X0337585Y0658883D01*
X0337618Y0658945D01*
X0337648Y0659009D01*
X0337675Y0659074D01*
X0337698Y0659140D01*
X0337717Y0659208D01*
X0337732Y0659277D01*
X0337744Y0659346D01*
X0337752Y0659416D01*
X0337756Y0659487D01*
X0337756Y0659557D01*
X0337752Y0659628D01*
X0337744Y0659698D01*
X0337732Y0659767D01*
X0337717Y0659836D01*
X0337698Y0659904D01*
X0337675Y0659970D01*
X0337648Y0660035D01*
X0337618Y0660099D01*
X0337585Y0660161D01*
X0337548Y0660221D01*
X0337508Y0660279D01*
X0337465Y0660334D01*
X0337418Y0660388D01*
X0337369Y0660438D01*
X0337317Y0660486D01*
X0337263Y0660531D01*
X0337206Y0660572D01*
X0337147Y0660611D01*
X0337086Y0660646D01*
X0337023Y0660678D01*
X0336959Y0660706D01*
X0336893Y0660731D01*
X0336826Y0660752D01*
X0336757Y0660769D01*
X0336688Y0660783D01*
X0336619Y0660792D01*
X0336548Y0660798D01*
X0336478Y0660800D01*
X0337224Y0668405D02*
X0336202Y0670449D01*
X0335947Y0670449D02*
X0334669Y0670449D01*
X0335947Y0670449D02*
X0336017Y0670451D01*
X0336088Y0670457D01*
X0336157Y0670466D01*
X0336226Y0670480D01*
X0336295Y0670497D01*
X0336362Y0670518D01*
X0336428Y0670543D01*
X0336492Y0670571D01*
X0336555Y0670603D01*
X0336616Y0670638D01*
X0336675Y0670677D01*
X0336732Y0670718D01*
X0336786Y0670763D01*
X0336838Y0670811D01*
X0336887Y0670861D01*
X0336934Y0670915D01*
X0336977Y0670970D01*
X0337017Y0671028D01*
X0337054Y0671088D01*
X0337087Y0671150D01*
X0337117Y0671214D01*
X0337144Y0671279D01*
X0337167Y0671345D01*
X0337186Y0671413D01*
X0337201Y0671482D01*
X0337213Y0671551D01*
X0337221Y0671621D01*
X0337225Y0671692D01*
X0337225Y0671762D01*
X0337221Y0671833D01*
X0337213Y0671903D01*
X0337201Y0671972D01*
X0337186Y0672041D01*
X0337167Y0672109D01*
X0337144Y0672175D01*
X0337117Y0672240D01*
X0337087Y0672304D01*
X0337054Y0672366D01*
X0337017Y0672426D01*
X0336977Y0672484D01*
X0336934Y0672539D01*
X0336887Y0672593D01*
X0336838Y0672643D01*
X0336786Y0672691D01*
X0336732Y0672736D01*
X0336675Y0672777D01*
X0336616Y0672816D01*
X0336555Y0672851D01*
X0336492Y0672883D01*
X0336428Y0672911D01*
X0336362Y0672936D01*
X0336295Y0672957D01*
X0336226Y0672974D01*
X0336157Y0672988D01*
X0336088Y0672997D01*
X0336017Y0673003D01*
X0335947Y0673005D01*
X0334669Y0673005D01*
X0334669Y0668405D01*
X0339629Y0671088D02*
X0341034Y0670321D01*
X0340523Y0668405D02*
X0340433Y0668407D01*
X0340344Y0668412D01*
X0340255Y0668422D01*
X0340166Y0668435D01*
X0340078Y0668451D01*
X0339990Y0668472D01*
X0339904Y0668496D01*
X0339818Y0668523D01*
X0339734Y0668554D01*
X0339651Y0668589D01*
X0339570Y0668627D01*
X0339490Y0668668D01*
X0339413Y0668712D01*
X0339337Y0668760D01*
X0339263Y0668811D01*
X0339191Y0668865D01*
X0339122Y0668922D01*
X0339054Y0668981D01*
X0338990Y0669044D01*
X0341034Y0670321D02*
X0341088Y0670287D01*
X0341139Y0670250D01*
X0341188Y0670210D01*
X0341235Y0670167D01*
X0341278Y0670121D01*
X0341319Y0670073D01*
X0341357Y0670022D01*
X0341392Y0669969D01*
X0341424Y0669914D01*
X0341452Y0669857D01*
X0341476Y0669799D01*
X0341497Y0669739D01*
X0341514Y0669678D01*
X0341528Y0669616D01*
X0341537Y0669553D01*
X0341543Y0669490D01*
X0341545Y0669427D01*
X0341543Y0669365D01*
X0341538Y0669304D01*
X0341528Y0669243D01*
X0341515Y0669182D01*
X0341499Y0669123D01*
X0341479Y0669065D01*
X0341455Y0669008D01*
X0341428Y0668952D01*
X0341398Y0668898D01*
X0341364Y0668846D01*
X0341328Y0668797D01*
X0341288Y0668749D01*
X0341246Y0668704D01*
X0341201Y0668662D01*
X0341153Y0668622D01*
X0341104Y0668586D01*
X0341052Y0668552D01*
X0340998Y0668522D01*
X0340942Y0668495D01*
X0340885Y0668471D01*
X0340827Y0668451D01*
X0340768Y0668435D01*
X0340707Y0668422D01*
X0340646Y0668412D01*
X0340585Y0668407D01*
X0340523Y0668405D01*
X0341290Y0672622D02*
X0341223Y0672670D01*
X0341155Y0672715D01*
X0341084Y0672757D01*
X0341011Y0672795D01*
X0340937Y0672831D01*
X0340862Y0672864D01*
X0340785Y0672893D01*
X0340707Y0672919D01*
X0340628Y0672942D01*
X0340548Y0672961D01*
X0340467Y0672977D01*
X0340386Y0672989D01*
X0340304Y0672998D01*
X0340222Y0673003D01*
X0340140Y0673005D01*
X0340140Y0673004D02*
X0340078Y0673002D01*
X0340017Y0672997D01*
X0339956Y0672987D01*
X0339895Y0672974D01*
X0339836Y0672958D01*
X0339778Y0672938D01*
X0339721Y0672914D01*
X0339665Y0672887D01*
X0339611Y0672857D01*
X0339559Y0672823D01*
X0339510Y0672787D01*
X0339462Y0672747D01*
X0339417Y0672705D01*
X0339375Y0672660D01*
X0339336Y0672612D01*
X0339299Y0672563D01*
X0339265Y0672511D01*
X0339235Y0672457D01*
X0339208Y0672401D01*
X0339184Y0672344D01*
X0339164Y0672286D01*
X0339148Y0672227D01*
X0339135Y0672166D01*
X0339125Y0672105D01*
X0339120Y0672044D01*
X0339118Y0671982D01*
X0339120Y0671919D01*
X0339126Y0671856D01*
X0339135Y0671793D01*
X0339149Y0671731D01*
X0339166Y0671670D01*
X0339187Y0671610D01*
X0339211Y0671552D01*
X0339239Y0671495D01*
X0339271Y0671440D01*
X0339306Y0671387D01*
X0339344Y0671336D01*
X0339385Y0671288D01*
X0339428Y0671242D01*
X0339475Y0671199D01*
X0339524Y0671159D01*
X0339575Y0671122D01*
X0339629Y0671088D01*
X0343040Y0673005D02*
X0345595Y0673005D01*
X0344318Y0673005D02*
X0344318Y0668405D01*
X0347240Y0668405D02*
X0349795Y0668405D01*
X0348518Y0668405D02*
X0348518Y0673005D01*
X0347240Y0671982D01*
X0351690Y0671088D02*
X0351945Y0671088D01*
X0351945Y0670832D01*
X0351690Y0670832D01*
X0351690Y0671088D01*
X0351690Y0669044D02*
X0351945Y0669044D01*
X0351945Y0668788D01*
X0351690Y0668788D01*
X0351690Y0669044D01*
X0354329Y0671088D02*
X0355734Y0670321D01*
X0355223Y0668405D02*
X0355133Y0668407D01*
X0355044Y0668412D01*
X0354955Y0668422D01*
X0354866Y0668435D01*
X0354778Y0668451D01*
X0354690Y0668472D01*
X0354604Y0668496D01*
X0354518Y0668523D01*
X0354434Y0668554D01*
X0354351Y0668589D01*
X0354270Y0668627D01*
X0354190Y0668668D01*
X0354113Y0668712D01*
X0354037Y0668760D01*
X0353963Y0668811D01*
X0353891Y0668865D01*
X0353822Y0668922D01*
X0353754Y0668981D01*
X0353690Y0669044D01*
X0355734Y0670321D02*
X0355788Y0670287D01*
X0355839Y0670250D01*
X0355888Y0670210D01*
X0355935Y0670167D01*
X0355978Y0670121D01*
X0356019Y0670073D01*
X0356057Y0670022D01*
X0356092Y0669969D01*
X0356124Y0669914D01*
X0356152Y0669857D01*
X0356176Y0669799D01*
X0356197Y0669739D01*
X0356214Y0669678D01*
X0356228Y0669616D01*
X0356237Y0669553D01*
X0356243Y0669490D01*
X0356245Y0669427D01*
X0356243Y0669365D01*
X0356238Y0669304D01*
X0356228Y0669243D01*
X0356215Y0669182D01*
X0356199Y0669123D01*
X0356179Y0669065D01*
X0356155Y0669008D01*
X0356128Y0668952D01*
X0356098Y0668898D01*
X0356064Y0668846D01*
X0356028Y0668797D01*
X0355988Y0668749D01*
X0355946Y0668704D01*
X0355901Y0668662D01*
X0355853Y0668622D01*
X0355804Y0668586D01*
X0355752Y0668552D01*
X0355698Y0668522D01*
X0355642Y0668495D01*
X0355585Y0668471D01*
X0355527Y0668451D01*
X0355468Y0668435D01*
X0355407Y0668422D01*
X0355346Y0668412D01*
X0355285Y0668407D01*
X0355223Y0668405D01*
X0355990Y0672622D02*
X0355923Y0672670D01*
X0355855Y0672715D01*
X0355784Y0672757D01*
X0355711Y0672795D01*
X0355637Y0672831D01*
X0355562Y0672864D01*
X0355485Y0672893D01*
X0355407Y0672919D01*
X0355328Y0672942D01*
X0355248Y0672961D01*
X0355167Y0672977D01*
X0355086Y0672989D01*
X0355004Y0672998D01*
X0354922Y0673003D01*
X0354840Y0673005D01*
X0354840Y0673004D02*
X0354778Y0673002D01*
X0354717Y0672997D01*
X0354656Y0672987D01*
X0354595Y0672974D01*
X0354536Y0672958D01*
X0354478Y0672938D01*
X0354421Y0672914D01*
X0354365Y0672887D01*
X0354311Y0672857D01*
X0354259Y0672823D01*
X0354210Y0672787D01*
X0354162Y0672747D01*
X0354117Y0672705D01*
X0354075Y0672660D01*
X0354036Y0672612D01*
X0353999Y0672563D01*
X0353965Y0672511D01*
X0353935Y0672457D01*
X0353908Y0672401D01*
X0353884Y0672344D01*
X0353864Y0672286D01*
X0353848Y0672227D01*
X0353835Y0672166D01*
X0353825Y0672105D01*
X0353820Y0672044D01*
X0353818Y0671982D01*
X0353820Y0671919D01*
X0353826Y0671856D01*
X0353835Y0671793D01*
X0353849Y0671731D01*
X0353866Y0671670D01*
X0353887Y0671610D01*
X0353911Y0671552D01*
X0353939Y0671495D01*
X0353971Y0671440D01*
X0354006Y0671387D01*
X0354044Y0671336D01*
X0354085Y0671288D01*
X0354128Y0671242D01*
X0354175Y0671199D01*
X0354224Y0671159D01*
X0354275Y0671122D01*
X0354329Y0671088D01*
X0358040Y0671982D02*
X0359317Y0673005D01*
X0359317Y0668405D01*
X0358040Y0668405D02*
X0360595Y0668405D01*
X0342165Y0652968D02*
X0342092Y0653045D01*
X0342017Y0653120D01*
X0341939Y0653191D01*
X0341858Y0653260D01*
X0341775Y0653326D01*
X0341690Y0653389D01*
X0341602Y0653448D01*
X0341513Y0653505D01*
X0341421Y0653558D01*
X0341327Y0653608D01*
X0341232Y0653654D01*
X0341135Y0653697D01*
X0341037Y0653736D01*
X0340937Y0653772D01*
X0340836Y0653804D01*
X0340734Y0653832D01*
X0340631Y0653857D01*
X0340527Y0653878D01*
X0340422Y0653895D01*
X0340317Y0653909D01*
X0340212Y0653918D01*
X0340106Y0653924D01*
X0340000Y0653926D01*
X0339894Y0653924D01*
X0339788Y0653918D01*
X0339683Y0653909D01*
X0339578Y0653895D01*
X0339473Y0653878D01*
X0339369Y0653857D01*
X0339266Y0653832D01*
X0339164Y0653804D01*
X0339063Y0653772D01*
X0338963Y0653736D01*
X0338865Y0653697D01*
X0338768Y0653654D01*
X0338673Y0653608D01*
X0338579Y0653558D01*
X0338487Y0653505D01*
X0338398Y0653448D01*
X0338310Y0653389D01*
X0338225Y0653326D01*
X0338142Y0653260D01*
X0338061Y0653191D01*
X0337983Y0653120D01*
X0337908Y0653045D01*
X0337835Y0652968D01*
X0337835Y0649032D02*
X0337908Y0648955D01*
X0337983Y0648880D01*
X0338061Y0648809D01*
X0338142Y0648740D01*
X0338225Y0648674D01*
X0338310Y0648611D01*
X0338398Y0648552D01*
X0338487Y0648495D01*
X0338579Y0648442D01*
X0338673Y0648392D01*
X0338768Y0648346D01*
X0338865Y0648303D01*
X0338963Y0648264D01*
X0339063Y0648228D01*
X0339164Y0648196D01*
X0339266Y0648168D01*
X0339369Y0648143D01*
X0339473Y0648122D01*
X0339578Y0648105D01*
X0339683Y0648091D01*
X0339788Y0648082D01*
X0339894Y0648076D01*
X0340000Y0648074D01*
X0340106Y0648076D01*
X0340212Y0648082D01*
X0340317Y0648091D01*
X0340422Y0648105D01*
X0340527Y0648122D01*
X0340631Y0648143D01*
X0340734Y0648168D01*
X0340836Y0648196D01*
X0340937Y0648228D01*
X0341037Y0648264D01*
X0341135Y0648303D01*
X0341232Y0648346D01*
X0341327Y0648392D01*
X0341421Y0648442D01*
X0341513Y0648495D01*
X0341602Y0648552D01*
X0341690Y0648611D01*
X0341775Y0648674D01*
X0341858Y0648740D01*
X0341939Y0648809D01*
X0342017Y0648880D01*
X0342092Y0648955D01*
X0342165Y0649032D01*
X0318800Y0658231D02*
X0316244Y0658231D01*
X0317522Y0658231D02*
X0317522Y0662831D01*
X0316244Y0661809D01*
X0313961Y0660148D02*
X0313322Y0660531D01*
X0312683Y0660915D01*
X0312300Y0658998D02*
X0312375Y0658955D01*
X0312451Y0658916D01*
X0312529Y0658879D01*
X0312608Y0658847D01*
X0312689Y0658817D01*
X0312771Y0658791D01*
X0312854Y0658769D01*
X0312938Y0658750D01*
X0313022Y0658734D01*
X0313107Y0658723D01*
X0313193Y0658715D01*
X0313278Y0658710D01*
X0313364Y0658709D01*
X0313450Y0658712D01*
X0313536Y0658718D01*
X0313621Y0658728D01*
X0313706Y0658742D01*
X0313322Y0658231D02*
X0313322Y0662831D01*
X0312939Y0662320D02*
X0312886Y0662308D01*
X0312834Y0662293D01*
X0312783Y0662273D01*
X0312734Y0662251D01*
X0312686Y0662225D01*
X0312640Y0662195D01*
X0312597Y0662163D01*
X0312556Y0662127D01*
X0312517Y0662089D01*
X0312482Y0662048D01*
X0312449Y0662004D01*
X0312420Y0661959D01*
X0312394Y0661911D01*
X0312371Y0661861D01*
X0312352Y0661811D01*
X0312337Y0661759D01*
X0312325Y0661705D01*
X0312318Y0661652D01*
X0312314Y0661598D01*
X0312313Y0661543D01*
X0312317Y0661489D01*
X0312325Y0661435D01*
X0312336Y0661382D01*
X0312351Y0661330D01*
X0312370Y0661279D01*
X0312393Y0661230D01*
X0312418Y0661182D01*
X0312448Y0661136D01*
X0312480Y0661093D01*
X0312515Y0661051D01*
X0312554Y0661013D01*
X0312595Y0660977D01*
X0312638Y0660944D01*
X0312683Y0660915D01*
X0312939Y0662321D02*
X0313024Y0662335D01*
X0313109Y0662345D01*
X0313195Y0662351D01*
X0313281Y0662354D01*
X0313367Y0662353D01*
X0313452Y0662348D01*
X0313538Y0662340D01*
X0313623Y0662329D01*
X0313707Y0662313D01*
X0313791Y0662294D01*
X0313874Y0662272D01*
X0313956Y0662246D01*
X0314037Y0662216D01*
X0314116Y0662184D01*
X0314194Y0662147D01*
X0314270Y0662108D01*
X0314345Y0662065D01*
X0313961Y0660148D02*
X0314006Y0660119D01*
X0314049Y0660086D01*
X0314090Y0660050D01*
X0314129Y0660012D01*
X0314164Y0659970D01*
X0314196Y0659927D01*
X0314226Y0659881D01*
X0314251Y0659833D01*
X0314274Y0659784D01*
X0314293Y0659733D01*
X0314308Y0659681D01*
X0314319Y0659628D01*
X0314327Y0659574D01*
X0314331Y0659520D01*
X0314330Y0659465D01*
X0314326Y0659411D01*
X0314319Y0659358D01*
X0314307Y0659304D01*
X0314292Y0659252D01*
X0314273Y0659202D01*
X0314250Y0659152D01*
X0314224Y0659104D01*
X0314195Y0659059D01*
X0314162Y0659015D01*
X0314127Y0658974D01*
X0314088Y0658936D01*
X0314047Y0658900D01*
X0314004Y0658868D01*
X0313958Y0658838D01*
X0313910Y0658812D01*
X0313861Y0658790D01*
X0313810Y0658770D01*
X0313758Y0658755D01*
X0313705Y0658743D01*
X0310250Y0659509D02*
X0310250Y0662831D01*
X0307694Y0662831D02*
X0307694Y0659509D01*
X0307696Y0659439D01*
X0307702Y0659368D01*
X0307711Y0659299D01*
X0307725Y0659230D01*
X0307742Y0659161D01*
X0307763Y0659094D01*
X0307788Y0659028D01*
X0307816Y0658964D01*
X0307848Y0658901D01*
X0307883Y0658840D01*
X0307922Y0658781D01*
X0307963Y0658724D01*
X0308008Y0658670D01*
X0308056Y0658618D01*
X0308106Y0658569D01*
X0308160Y0658522D01*
X0308215Y0658479D01*
X0308273Y0658439D01*
X0308333Y0658402D01*
X0308395Y0658369D01*
X0308459Y0658339D01*
X0308524Y0658312D01*
X0308590Y0658289D01*
X0308658Y0658270D01*
X0308727Y0658255D01*
X0308796Y0658243D01*
X0308866Y0658235D01*
X0308937Y0658231D01*
X0309007Y0658231D01*
X0309078Y0658235D01*
X0309148Y0658243D01*
X0309217Y0658255D01*
X0309286Y0658270D01*
X0309354Y0658289D01*
X0309420Y0658312D01*
X0309485Y0658339D01*
X0309549Y0658369D01*
X0309611Y0658402D01*
X0309671Y0658439D01*
X0309729Y0658479D01*
X0309784Y0658522D01*
X0309838Y0658569D01*
X0309888Y0658618D01*
X0309936Y0658670D01*
X0309981Y0658724D01*
X0310022Y0658781D01*
X0310061Y0658840D01*
X0310096Y0658901D01*
X0310128Y0658964D01*
X0310156Y0659028D01*
X0310181Y0659094D01*
X0310202Y0659161D01*
X0310219Y0659230D01*
X0310233Y0659299D01*
X0310242Y0659368D01*
X0310248Y0659439D01*
X0310250Y0659509D01*
X0305650Y0658870D02*
X0305650Y0658615D01*
X0305394Y0658615D01*
X0305394Y0658870D01*
X0305650Y0658870D01*
X0305650Y0660659D02*
X0305394Y0660659D01*
X0305394Y0660915D01*
X0305650Y0660915D01*
X0305650Y0660659D01*
X0303500Y0658231D02*
X0300944Y0658231D01*
X0302222Y0658231D02*
X0302222Y0662831D01*
X0300944Y0661809D01*
X0299256Y0662831D02*
X0297722Y0658231D01*
X0296189Y0662831D01*
X0294756Y0662831D02*
X0291689Y0658231D01*
X0290000Y0658231D02*
X0287445Y0658231D01*
X0289617Y0660787D01*
X0288850Y0662831D02*
X0288776Y0662829D01*
X0288702Y0662824D01*
X0288628Y0662814D01*
X0288555Y0662801D01*
X0288482Y0662785D01*
X0288411Y0662764D01*
X0288341Y0662740D01*
X0288272Y0662713D01*
X0288204Y0662682D01*
X0288138Y0662648D01*
X0288074Y0662611D01*
X0288012Y0662570D01*
X0287952Y0662526D01*
X0287894Y0662480D01*
X0287838Y0662430D01*
X0287785Y0662378D01*
X0287735Y0662323D01*
X0287688Y0662266D01*
X0287644Y0662206D01*
X0287602Y0662144D01*
X0287564Y0662081D01*
X0287529Y0662015D01*
X0287498Y0661948D01*
X0287470Y0661879D01*
X0287445Y0661809D01*
X0289617Y0660787D02*
X0289664Y0660834D01*
X0289708Y0660884D01*
X0289750Y0660936D01*
X0289789Y0660990D01*
X0289824Y0661046D01*
X0289857Y0661104D01*
X0289887Y0661164D01*
X0289913Y0661225D01*
X0289936Y0661288D01*
X0289955Y0661352D01*
X0289971Y0661416D01*
X0289984Y0661482D01*
X0289993Y0661548D01*
X0289998Y0661614D01*
X0290000Y0661681D01*
X0289998Y0661748D01*
X0289992Y0661815D01*
X0289983Y0661881D01*
X0289969Y0661946D01*
X0289952Y0662011D01*
X0289931Y0662074D01*
X0289906Y0662136D01*
X0289878Y0662197D01*
X0289846Y0662256D01*
X0289811Y0662313D01*
X0289772Y0662368D01*
X0289731Y0662420D01*
X0289686Y0662470D01*
X0289639Y0662517D01*
X0289589Y0662562D01*
X0289537Y0662603D01*
X0289482Y0662642D01*
X0289425Y0662677D01*
X0289366Y0662709D01*
X0289305Y0662737D01*
X0289243Y0662762D01*
X0289180Y0662783D01*
X0289115Y0662800D01*
X0289050Y0662814D01*
X0288984Y0662823D01*
X0288917Y0662829D01*
X0288850Y0662831D01*
X0291689Y0662831D02*
X0294756Y0658231D01*
X0285500Y0659254D02*
X0282945Y0659254D01*
X0283967Y0662831D01*
X0284733Y0660276D02*
X0284733Y0658231D01*
X0280850Y0658231D02*
X0280850Y0662831D01*
X0278295Y0662831D02*
X0280850Y0658231D01*
X0278295Y0658231D02*
X0278295Y0662831D01*
X0274951Y0662831D02*
X0273674Y0662831D01*
X0273674Y0658231D01*
X0273674Y0660276D02*
X0274951Y0660276D01*
X0275207Y0660276D02*
X0276229Y0658231D01*
X0274951Y0660276D02*
X0275021Y0660278D01*
X0275092Y0660284D01*
X0275161Y0660293D01*
X0275230Y0660307D01*
X0275299Y0660324D01*
X0275366Y0660345D01*
X0275432Y0660370D01*
X0275496Y0660398D01*
X0275559Y0660430D01*
X0275620Y0660465D01*
X0275679Y0660504D01*
X0275736Y0660545D01*
X0275790Y0660590D01*
X0275842Y0660638D01*
X0275891Y0660688D01*
X0275938Y0660742D01*
X0275981Y0660797D01*
X0276021Y0660855D01*
X0276058Y0660915D01*
X0276091Y0660977D01*
X0276121Y0661041D01*
X0276148Y0661106D01*
X0276171Y0661172D01*
X0276190Y0661240D01*
X0276205Y0661309D01*
X0276217Y0661378D01*
X0276225Y0661448D01*
X0276229Y0661519D01*
X0276229Y0661589D01*
X0276225Y0661660D01*
X0276217Y0661730D01*
X0276205Y0661799D01*
X0276190Y0661868D01*
X0276171Y0661936D01*
X0276148Y0662002D01*
X0276121Y0662067D01*
X0276091Y0662131D01*
X0276058Y0662193D01*
X0276021Y0662253D01*
X0275981Y0662311D01*
X0275938Y0662366D01*
X0275891Y0662420D01*
X0275842Y0662470D01*
X0275790Y0662518D01*
X0275736Y0662563D01*
X0275679Y0662604D01*
X0275620Y0662643D01*
X0275559Y0662678D01*
X0275496Y0662710D01*
X0275432Y0662738D01*
X0275366Y0662763D01*
X0275299Y0662784D01*
X0275230Y0662801D01*
X0275161Y0662815D01*
X0275092Y0662824D01*
X0275021Y0662830D01*
X0274951Y0662832D01*
X0372222Y0822200D02*
X0373756Y0822200D01*
X0373756Y0824756D01*
X0372989Y0824756D01*
X0371200Y0825778D02*
X0371202Y0825840D01*
X0371207Y0825901D01*
X0371217Y0825962D01*
X0371230Y0826023D01*
X0371246Y0826082D01*
X0371266Y0826140D01*
X0371290Y0826197D01*
X0371317Y0826253D01*
X0371347Y0826307D01*
X0371381Y0826359D01*
X0371417Y0826408D01*
X0371457Y0826456D01*
X0371499Y0826501D01*
X0371544Y0826543D01*
X0371592Y0826582D01*
X0371641Y0826619D01*
X0371693Y0826653D01*
X0371747Y0826683D01*
X0371803Y0826710D01*
X0371860Y0826734D01*
X0371918Y0826754D01*
X0371977Y0826770D01*
X0372038Y0826783D01*
X0372099Y0826793D01*
X0372160Y0826798D01*
X0372222Y0826800D01*
X0373756Y0826800D01*
X0376009Y0826800D02*
X0376009Y0822200D01*
X0378053Y0822200D01*
X0379737Y0823222D02*
X0379737Y0825778D01*
X0379739Y0825840D01*
X0379744Y0825901D01*
X0379754Y0825962D01*
X0379767Y0826023D01*
X0379783Y0826082D01*
X0379803Y0826140D01*
X0379827Y0826197D01*
X0379854Y0826253D01*
X0379884Y0826307D01*
X0379918Y0826359D01*
X0379954Y0826408D01*
X0379994Y0826456D01*
X0380036Y0826501D01*
X0380081Y0826543D01*
X0380129Y0826582D01*
X0380178Y0826619D01*
X0380230Y0826653D01*
X0380284Y0826683D01*
X0380340Y0826710D01*
X0380397Y0826734D01*
X0380455Y0826754D01*
X0380514Y0826770D01*
X0380575Y0826783D01*
X0380636Y0826793D01*
X0380697Y0826798D01*
X0380759Y0826800D01*
X0381781Y0826800D01*
X0383650Y0826800D02*
X0384928Y0826800D01*
X0384997Y0826798D01*
X0385066Y0826793D01*
X0385135Y0826783D01*
X0385203Y0826770D01*
X0385270Y0826753D01*
X0385336Y0826733D01*
X0385401Y0826709D01*
X0385465Y0826682D01*
X0385527Y0826651D01*
X0385587Y0826617D01*
X0385645Y0826580D01*
X0385701Y0826539D01*
X0385755Y0826496D01*
X0385807Y0826450D01*
X0385856Y0826401D01*
X0385902Y0826349D01*
X0385945Y0826295D01*
X0385986Y0826239D01*
X0386023Y0826181D01*
X0386057Y0826121D01*
X0386088Y0826059D01*
X0386115Y0825995D01*
X0386139Y0825930D01*
X0386159Y0825864D01*
X0386176Y0825797D01*
X0386189Y0825729D01*
X0386199Y0825660D01*
X0386204Y0825591D01*
X0386206Y0825522D01*
X0386206Y0823478D01*
X0386204Y0823409D01*
X0386199Y0823340D01*
X0386189Y0823271D01*
X0386176Y0823203D01*
X0386159Y0823136D01*
X0386139Y0823070D01*
X0386115Y0823005D01*
X0386088Y0822941D01*
X0386057Y0822879D01*
X0386023Y0822819D01*
X0385986Y0822761D01*
X0385945Y0822705D01*
X0385902Y0822651D01*
X0385856Y0822599D01*
X0385807Y0822550D01*
X0385755Y0822504D01*
X0385701Y0822461D01*
X0385645Y0822420D01*
X0385587Y0822383D01*
X0385527Y0822349D01*
X0385465Y0822318D01*
X0385401Y0822291D01*
X0385336Y0822267D01*
X0385270Y0822247D01*
X0385203Y0822230D01*
X0385135Y0822217D01*
X0385066Y0822207D01*
X0384997Y0822202D01*
X0384928Y0822200D01*
X0383650Y0822200D01*
X0383650Y0826800D01*
X0379737Y0823222D02*
X0379739Y0823160D01*
X0379744Y0823099D01*
X0379754Y0823038D01*
X0379767Y0822977D01*
X0379783Y0822918D01*
X0379803Y0822860D01*
X0379827Y0822803D01*
X0379854Y0822747D01*
X0379884Y0822693D01*
X0379918Y0822641D01*
X0379954Y0822592D01*
X0379994Y0822544D01*
X0380036Y0822499D01*
X0380081Y0822457D01*
X0380129Y0822417D01*
X0380178Y0822381D01*
X0380230Y0822347D01*
X0380284Y0822317D01*
X0380340Y0822290D01*
X0380397Y0822266D01*
X0380455Y0822246D01*
X0380514Y0822230D01*
X0380575Y0822217D01*
X0380636Y0822207D01*
X0380697Y0822202D01*
X0380759Y0822200D01*
X0381781Y0822200D01*
X0388300Y0822200D02*
X0390856Y0822200D01*
X0389578Y0822200D02*
X0389578Y0826800D01*
X0388300Y0825778D01*
X0392750Y0824883D02*
X0393006Y0824883D01*
X0393006Y0824628D01*
X0392750Y0824628D01*
X0392750Y0824883D01*
X0392750Y0822839D02*
X0393006Y0822839D01*
X0393006Y0822583D01*
X0392750Y0822583D01*
X0392750Y0822839D01*
X0395050Y0823222D02*
X0395050Y0825778D01*
X0395052Y0825840D01*
X0395057Y0825901D01*
X0395067Y0825962D01*
X0395080Y0826023D01*
X0395096Y0826082D01*
X0395116Y0826140D01*
X0395140Y0826197D01*
X0395167Y0826253D01*
X0395197Y0826307D01*
X0395231Y0826359D01*
X0395267Y0826408D01*
X0395307Y0826456D01*
X0395349Y0826501D01*
X0395394Y0826543D01*
X0395442Y0826582D01*
X0395491Y0826619D01*
X0395543Y0826653D01*
X0395597Y0826683D01*
X0395653Y0826710D01*
X0395710Y0826734D01*
X0395768Y0826754D01*
X0395827Y0826770D01*
X0395888Y0826783D01*
X0395949Y0826793D01*
X0396010Y0826798D01*
X0396072Y0826800D01*
X0397605Y0826800D01*
X0397605Y0824756D02*
X0397605Y0822200D01*
X0396072Y0822200D01*
X0396010Y0822202D01*
X0395949Y0822207D01*
X0395888Y0822217D01*
X0395827Y0822230D01*
X0395768Y0822246D01*
X0395710Y0822266D01*
X0395653Y0822290D01*
X0395597Y0822317D01*
X0395543Y0822347D01*
X0395491Y0822381D01*
X0395442Y0822417D01*
X0395394Y0822457D01*
X0395349Y0822499D01*
X0395307Y0822544D01*
X0395267Y0822592D01*
X0395231Y0822641D01*
X0395197Y0822693D01*
X0395167Y0822747D01*
X0395140Y0822803D01*
X0395116Y0822860D01*
X0395096Y0822918D01*
X0395080Y0822977D01*
X0395067Y0823038D01*
X0395057Y0823099D01*
X0395052Y0823160D01*
X0395050Y0823222D01*
X0396839Y0824756D02*
X0397605Y0824756D01*
X0399859Y0826800D02*
X0399859Y0822200D01*
X0401903Y0822200D01*
X0403587Y0823222D02*
X0403587Y0825778D01*
X0403589Y0825840D01*
X0403594Y0825901D01*
X0403604Y0825962D01*
X0403617Y0826023D01*
X0403633Y0826082D01*
X0403653Y0826140D01*
X0403677Y0826197D01*
X0403704Y0826253D01*
X0403734Y0826307D01*
X0403768Y0826359D01*
X0403804Y0826408D01*
X0403844Y0826456D01*
X0403886Y0826501D01*
X0403931Y0826543D01*
X0403979Y0826582D01*
X0404028Y0826619D01*
X0404080Y0826653D01*
X0404134Y0826683D01*
X0404190Y0826710D01*
X0404247Y0826734D01*
X0404305Y0826754D01*
X0404364Y0826770D01*
X0404425Y0826783D01*
X0404486Y0826793D01*
X0404547Y0826798D01*
X0404609Y0826800D01*
X0405631Y0826800D01*
X0407500Y0826800D02*
X0407500Y0822200D01*
X0408778Y0822200D01*
X0408847Y0822202D01*
X0408916Y0822207D01*
X0408985Y0822217D01*
X0409053Y0822230D01*
X0409120Y0822247D01*
X0409186Y0822267D01*
X0409251Y0822291D01*
X0409315Y0822318D01*
X0409377Y0822349D01*
X0409437Y0822383D01*
X0409495Y0822420D01*
X0409551Y0822461D01*
X0409605Y0822504D01*
X0409657Y0822550D01*
X0409706Y0822599D01*
X0409752Y0822651D01*
X0409795Y0822705D01*
X0409836Y0822761D01*
X0409873Y0822819D01*
X0409907Y0822879D01*
X0409938Y0822941D01*
X0409965Y0823005D01*
X0409989Y0823070D01*
X0410009Y0823136D01*
X0410026Y0823203D01*
X0410039Y0823271D01*
X0410049Y0823340D01*
X0410054Y0823409D01*
X0410056Y0823478D01*
X0410055Y0823478D02*
X0410055Y0825522D01*
X0410056Y0825522D02*
X0410054Y0825591D01*
X0410049Y0825660D01*
X0410039Y0825729D01*
X0410026Y0825797D01*
X0410009Y0825864D01*
X0409989Y0825930D01*
X0409965Y0825995D01*
X0409938Y0826059D01*
X0409907Y0826121D01*
X0409873Y0826181D01*
X0409836Y0826239D01*
X0409795Y0826295D01*
X0409752Y0826349D01*
X0409706Y0826401D01*
X0409657Y0826450D01*
X0409605Y0826496D01*
X0409551Y0826539D01*
X0409495Y0826580D01*
X0409437Y0826617D01*
X0409377Y0826651D01*
X0409315Y0826682D01*
X0409251Y0826709D01*
X0409186Y0826733D01*
X0409120Y0826753D01*
X0409053Y0826770D01*
X0408985Y0826783D01*
X0408916Y0826793D01*
X0408847Y0826798D01*
X0408778Y0826800D01*
X0407500Y0826800D01*
X0403587Y0823222D02*
X0403589Y0823160D01*
X0403594Y0823099D01*
X0403604Y0823038D01*
X0403617Y0822977D01*
X0403633Y0822918D01*
X0403653Y0822860D01*
X0403677Y0822803D01*
X0403704Y0822747D01*
X0403734Y0822693D01*
X0403768Y0822641D01*
X0403804Y0822592D01*
X0403844Y0822544D01*
X0403886Y0822499D01*
X0403931Y0822457D01*
X0403979Y0822417D01*
X0404028Y0822381D01*
X0404080Y0822347D01*
X0404134Y0822317D01*
X0404190Y0822290D01*
X0404247Y0822266D01*
X0404305Y0822246D01*
X0404364Y0822230D01*
X0404425Y0822217D01*
X0404486Y0822207D01*
X0404547Y0822202D01*
X0404609Y0822200D01*
X0405631Y0822200D01*
X0412150Y0822200D02*
X0414705Y0822200D01*
X0413428Y0822200D02*
X0413428Y0826800D01*
X0412150Y0825778D01*
X0372222Y0822200D02*
X0372160Y0822202D01*
X0372099Y0822207D01*
X0372038Y0822217D01*
X0371977Y0822230D01*
X0371918Y0822246D01*
X0371860Y0822266D01*
X0371803Y0822290D01*
X0371747Y0822317D01*
X0371693Y0822347D01*
X0371641Y0822381D01*
X0371592Y0822417D01*
X0371544Y0822457D01*
X0371499Y0822499D01*
X0371457Y0822544D01*
X0371417Y0822592D01*
X0371381Y0822641D01*
X0371347Y0822693D01*
X0371317Y0822747D01*
X0371290Y0822803D01*
X0371266Y0822860D01*
X0371246Y0822918D01*
X0371230Y0822977D01*
X0371217Y0823038D01*
X0371207Y0823099D01*
X0371202Y0823160D01*
X0371200Y0823222D01*
X0371200Y0825778D01*
X0443200Y0730522D02*
X0447800Y0730522D01*
X0447800Y0729244D02*
X0447800Y0731800D01*
X0447800Y0727526D02*
X0447800Y0726504D01*
X0447798Y0726442D01*
X0447793Y0726381D01*
X0447783Y0726320D01*
X0447770Y0726259D01*
X0447754Y0726200D01*
X0447734Y0726142D01*
X0447710Y0726085D01*
X0447683Y0726029D01*
X0447653Y0725975D01*
X0447619Y0725923D01*
X0447583Y0725874D01*
X0447543Y0725826D01*
X0447501Y0725781D01*
X0447456Y0725739D01*
X0447408Y0725699D01*
X0447359Y0725663D01*
X0447307Y0725629D01*
X0447253Y0725599D01*
X0447197Y0725572D01*
X0447140Y0725548D01*
X0447082Y0725528D01*
X0447023Y0725512D01*
X0446962Y0725499D01*
X0446901Y0725489D01*
X0446840Y0725484D01*
X0446778Y0725482D01*
X0446778Y0725481D02*
X0444222Y0725481D01*
X0444222Y0725482D02*
X0444160Y0725484D01*
X0444099Y0725489D01*
X0444038Y0725499D01*
X0443977Y0725512D01*
X0443918Y0725528D01*
X0443860Y0725548D01*
X0443803Y0725572D01*
X0443747Y0725599D01*
X0443693Y0725629D01*
X0443641Y0725663D01*
X0443592Y0725699D01*
X0443544Y0725739D01*
X0443499Y0725781D01*
X0443457Y0725826D01*
X0443418Y0725874D01*
X0443381Y0725923D01*
X0443347Y0725975D01*
X0443317Y0726029D01*
X0443290Y0726085D01*
X0443266Y0726142D01*
X0443246Y0726200D01*
X0443230Y0726259D01*
X0443217Y0726320D01*
X0443207Y0726381D01*
X0443202Y0726442D01*
X0443200Y0726504D01*
X0443200Y0727526D01*
X0444222Y0729244D02*
X0443200Y0730522D01*
X0442299Y0693800D02*
X0442299Y0689200D01*
X0443576Y0689200D02*
X0441021Y0689200D01*
X0439105Y0689200D02*
X0438083Y0691244D01*
X0437828Y0691244D02*
X0436550Y0691244D01*
X0437828Y0691244D02*
X0437898Y0691246D01*
X0437969Y0691252D01*
X0438038Y0691261D01*
X0438107Y0691275D01*
X0438176Y0691292D01*
X0438243Y0691313D01*
X0438309Y0691338D01*
X0438373Y0691366D01*
X0438436Y0691398D01*
X0438497Y0691433D01*
X0438556Y0691472D01*
X0438613Y0691513D01*
X0438667Y0691558D01*
X0438719Y0691606D01*
X0438768Y0691656D01*
X0438815Y0691710D01*
X0438858Y0691765D01*
X0438898Y0691823D01*
X0438935Y0691883D01*
X0438968Y0691945D01*
X0438998Y0692009D01*
X0439025Y0692074D01*
X0439048Y0692140D01*
X0439067Y0692208D01*
X0439082Y0692277D01*
X0439094Y0692346D01*
X0439102Y0692416D01*
X0439106Y0692487D01*
X0439106Y0692557D01*
X0439102Y0692628D01*
X0439094Y0692698D01*
X0439082Y0692767D01*
X0439067Y0692836D01*
X0439048Y0692904D01*
X0439025Y0692970D01*
X0438998Y0693035D01*
X0438968Y0693099D01*
X0438935Y0693161D01*
X0438898Y0693221D01*
X0438858Y0693279D01*
X0438815Y0693334D01*
X0438768Y0693388D01*
X0438719Y0693438D01*
X0438667Y0693486D01*
X0438613Y0693531D01*
X0438556Y0693572D01*
X0438497Y0693611D01*
X0438436Y0693646D01*
X0438373Y0693678D01*
X0438309Y0693706D01*
X0438243Y0693731D01*
X0438176Y0693752D01*
X0438107Y0693769D01*
X0438038Y0693783D01*
X0437969Y0693792D01*
X0437898Y0693798D01*
X0437828Y0693800D01*
X0436550Y0693800D01*
X0436550Y0689200D01*
X0434477Y0689583D02*
X0434221Y0689583D01*
X0434221Y0689839D01*
X0434477Y0689839D01*
X0434477Y0689583D01*
X0434477Y0691628D02*
X0434221Y0691628D01*
X0434221Y0691883D01*
X0434477Y0691883D01*
X0434477Y0691628D01*
X0432327Y0689200D02*
X0429771Y0689200D01*
X0431049Y0689200D02*
X0431049Y0693800D01*
X0429771Y0692778D01*
X0428127Y0693800D02*
X0425571Y0693800D01*
X0426849Y0693800D02*
X0426849Y0689200D01*
X0423565Y0691117D02*
X0422160Y0691883D01*
X0422671Y0693800D02*
X0422753Y0693798D01*
X0422835Y0693793D01*
X0422917Y0693784D01*
X0422998Y0693772D01*
X0423079Y0693756D01*
X0423159Y0693737D01*
X0423238Y0693714D01*
X0423316Y0693688D01*
X0423393Y0693659D01*
X0423468Y0693626D01*
X0423542Y0693590D01*
X0423615Y0693552D01*
X0423686Y0693510D01*
X0423754Y0693465D01*
X0423821Y0693417D01*
X0422160Y0691884D02*
X0422106Y0691918D01*
X0422055Y0691955D01*
X0422006Y0691995D01*
X0421959Y0692038D01*
X0421916Y0692084D01*
X0421875Y0692132D01*
X0421837Y0692183D01*
X0421802Y0692236D01*
X0421770Y0692291D01*
X0421742Y0692348D01*
X0421718Y0692406D01*
X0421697Y0692466D01*
X0421680Y0692527D01*
X0421666Y0692589D01*
X0421657Y0692652D01*
X0421651Y0692715D01*
X0421649Y0692778D01*
X0421651Y0692840D01*
X0421656Y0692901D01*
X0421666Y0692962D01*
X0421679Y0693023D01*
X0421695Y0693082D01*
X0421715Y0693140D01*
X0421739Y0693197D01*
X0421766Y0693253D01*
X0421796Y0693307D01*
X0421830Y0693359D01*
X0421867Y0693408D01*
X0421906Y0693456D01*
X0421948Y0693501D01*
X0421993Y0693543D01*
X0422041Y0693583D01*
X0422090Y0693619D01*
X0422142Y0693653D01*
X0422196Y0693683D01*
X0422252Y0693710D01*
X0422309Y0693734D01*
X0422367Y0693754D01*
X0422426Y0693770D01*
X0422487Y0693783D01*
X0422548Y0693793D01*
X0422609Y0693798D01*
X0422671Y0693800D01*
X0421521Y0689839D02*
X0421585Y0689776D01*
X0421653Y0689717D01*
X0421722Y0689660D01*
X0421794Y0689606D01*
X0421868Y0689555D01*
X0421944Y0689507D01*
X0422021Y0689463D01*
X0422101Y0689422D01*
X0422182Y0689384D01*
X0422265Y0689349D01*
X0422349Y0689318D01*
X0422435Y0689291D01*
X0422521Y0689267D01*
X0422609Y0689246D01*
X0422697Y0689230D01*
X0422786Y0689217D01*
X0422875Y0689207D01*
X0422964Y0689202D01*
X0423054Y0689200D01*
X0423116Y0689202D01*
X0423177Y0689207D01*
X0423238Y0689217D01*
X0423299Y0689230D01*
X0423358Y0689246D01*
X0423416Y0689266D01*
X0423473Y0689290D01*
X0423529Y0689317D01*
X0423583Y0689347D01*
X0423635Y0689381D01*
X0423684Y0689417D01*
X0423732Y0689457D01*
X0423777Y0689499D01*
X0423819Y0689544D01*
X0423859Y0689592D01*
X0423895Y0689641D01*
X0423929Y0689693D01*
X0423959Y0689747D01*
X0423986Y0689803D01*
X0424010Y0689860D01*
X0424030Y0689918D01*
X0424046Y0689977D01*
X0424059Y0690038D01*
X0424069Y0690099D01*
X0424074Y0690160D01*
X0424076Y0690222D01*
X0424074Y0690285D01*
X0424068Y0690348D01*
X0424059Y0690411D01*
X0424045Y0690473D01*
X0424028Y0690534D01*
X0424007Y0690594D01*
X0423983Y0690652D01*
X0423955Y0690709D01*
X0423923Y0690764D01*
X0423888Y0690817D01*
X0423850Y0690868D01*
X0423809Y0690916D01*
X0423766Y0690962D01*
X0423719Y0691005D01*
X0423670Y0691045D01*
X0423619Y0691082D01*
X0423565Y0691116D01*
X0419756Y0689200D02*
X0418733Y0691244D01*
X0418478Y0691244D02*
X0417200Y0691244D01*
X0418478Y0691244D02*
X0418548Y0691246D01*
X0418619Y0691252D01*
X0418688Y0691261D01*
X0418757Y0691275D01*
X0418826Y0691292D01*
X0418893Y0691313D01*
X0418959Y0691338D01*
X0419023Y0691366D01*
X0419086Y0691398D01*
X0419147Y0691433D01*
X0419206Y0691472D01*
X0419263Y0691513D01*
X0419317Y0691558D01*
X0419369Y0691606D01*
X0419418Y0691656D01*
X0419465Y0691710D01*
X0419508Y0691765D01*
X0419548Y0691823D01*
X0419585Y0691883D01*
X0419618Y0691945D01*
X0419648Y0692009D01*
X0419675Y0692074D01*
X0419698Y0692140D01*
X0419717Y0692208D01*
X0419732Y0692277D01*
X0419744Y0692346D01*
X0419752Y0692416D01*
X0419756Y0692487D01*
X0419756Y0692557D01*
X0419752Y0692628D01*
X0419744Y0692698D01*
X0419732Y0692767D01*
X0419717Y0692836D01*
X0419698Y0692904D01*
X0419675Y0692970D01*
X0419648Y0693035D01*
X0419618Y0693099D01*
X0419585Y0693161D01*
X0419548Y0693221D01*
X0419508Y0693279D01*
X0419465Y0693334D01*
X0419418Y0693388D01*
X0419369Y0693438D01*
X0419317Y0693486D01*
X0419263Y0693531D01*
X0419206Y0693572D01*
X0419147Y0693611D01*
X0419086Y0693646D01*
X0419023Y0693678D01*
X0418959Y0693706D01*
X0418893Y0693731D01*
X0418826Y0693752D01*
X0418757Y0693769D01*
X0418688Y0693783D01*
X0418619Y0693792D01*
X0418548Y0693798D01*
X0418478Y0693800D01*
X0417200Y0693800D01*
X0417200Y0689200D01*
X0417200Y0673800D02*
X0418478Y0673800D01*
X0418548Y0673798D01*
X0418619Y0673792D01*
X0418688Y0673783D01*
X0418757Y0673769D01*
X0418826Y0673752D01*
X0418893Y0673731D01*
X0418959Y0673706D01*
X0419023Y0673678D01*
X0419086Y0673646D01*
X0419147Y0673611D01*
X0419206Y0673572D01*
X0419263Y0673531D01*
X0419317Y0673486D01*
X0419369Y0673438D01*
X0419418Y0673388D01*
X0419465Y0673334D01*
X0419508Y0673279D01*
X0419548Y0673221D01*
X0419585Y0673161D01*
X0419618Y0673099D01*
X0419648Y0673035D01*
X0419675Y0672970D01*
X0419698Y0672904D01*
X0419717Y0672836D01*
X0419732Y0672767D01*
X0419744Y0672698D01*
X0419752Y0672628D01*
X0419756Y0672557D01*
X0419756Y0672487D01*
X0419752Y0672416D01*
X0419744Y0672346D01*
X0419732Y0672277D01*
X0419717Y0672208D01*
X0419698Y0672140D01*
X0419675Y0672074D01*
X0419648Y0672009D01*
X0419618Y0671945D01*
X0419585Y0671883D01*
X0419548Y0671823D01*
X0419508Y0671765D01*
X0419465Y0671710D01*
X0419418Y0671656D01*
X0419369Y0671606D01*
X0419317Y0671558D01*
X0419263Y0671513D01*
X0419206Y0671472D01*
X0419147Y0671433D01*
X0419086Y0671398D01*
X0419023Y0671366D01*
X0418959Y0671338D01*
X0418893Y0671313D01*
X0418826Y0671292D01*
X0418757Y0671275D01*
X0418688Y0671261D01*
X0418619Y0671252D01*
X0418548Y0671246D01*
X0418478Y0671244D01*
X0417200Y0671244D01*
X0418733Y0671244D02*
X0419756Y0669200D01*
X0417200Y0669200D02*
X0417200Y0673800D01*
X0422160Y0671883D02*
X0423565Y0671117D01*
X0423054Y0669200D02*
X0422964Y0669202D01*
X0422875Y0669207D01*
X0422786Y0669217D01*
X0422697Y0669230D01*
X0422609Y0669246D01*
X0422521Y0669267D01*
X0422435Y0669291D01*
X0422349Y0669318D01*
X0422265Y0669349D01*
X0422182Y0669384D01*
X0422101Y0669422D01*
X0422021Y0669463D01*
X0421944Y0669507D01*
X0421868Y0669555D01*
X0421794Y0669606D01*
X0421722Y0669660D01*
X0421653Y0669717D01*
X0421585Y0669776D01*
X0421521Y0669839D01*
X0423565Y0671116D02*
X0423619Y0671082D01*
X0423670Y0671045D01*
X0423719Y0671005D01*
X0423766Y0670962D01*
X0423809Y0670916D01*
X0423850Y0670868D01*
X0423888Y0670817D01*
X0423923Y0670764D01*
X0423955Y0670709D01*
X0423983Y0670652D01*
X0424007Y0670594D01*
X0424028Y0670534D01*
X0424045Y0670473D01*
X0424059Y0670411D01*
X0424068Y0670348D01*
X0424074Y0670285D01*
X0424076Y0670222D01*
X0424074Y0670160D01*
X0424069Y0670099D01*
X0424059Y0670038D01*
X0424046Y0669977D01*
X0424030Y0669918D01*
X0424010Y0669860D01*
X0423986Y0669803D01*
X0423959Y0669747D01*
X0423929Y0669693D01*
X0423895Y0669641D01*
X0423859Y0669592D01*
X0423819Y0669544D01*
X0423777Y0669499D01*
X0423732Y0669457D01*
X0423684Y0669417D01*
X0423635Y0669381D01*
X0423583Y0669347D01*
X0423529Y0669317D01*
X0423473Y0669290D01*
X0423416Y0669266D01*
X0423358Y0669246D01*
X0423299Y0669230D01*
X0423238Y0669217D01*
X0423177Y0669207D01*
X0423116Y0669202D01*
X0423054Y0669200D01*
X0423821Y0673417D02*
X0423754Y0673465D01*
X0423686Y0673510D01*
X0423615Y0673552D01*
X0423542Y0673590D01*
X0423468Y0673626D01*
X0423393Y0673659D01*
X0423316Y0673688D01*
X0423238Y0673714D01*
X0423159Y0673737D01*
X0423079Y0673756D01*
X0422998Y0673772D01*
X0422917Y0673784D01*
X0422835Y0673793D01*
X0422753Y0673798D01*
X0422671Y0673800D01*
X0422609Y0673798D01*
X0422548Y0673793D01*
X0422487Y0673783D01*
X0422426Y0673770D01*
X0422367Y0673754D01*
X0422309Y0673734D01*
X0422252Y0673710D01*
X0422196Y0673683D01*
X0422142Y0673653D01*
X0422090Y0673619D01*
X0422041Y0673583D01*
X0421993Y0673543D01*
X0421948Y0673501D01*
X0421906Y0673456D01*
X0421867Y0673408D01*
X0421830Y0673359D01*
X0421796Y0673307D01*
X0421766Y0673253D01*
X0421739Y0673197D01*
X0421715Y0673140D01*
X0421695Y0673082D01*
X0421679Y0673023D01*
X0421666Y0672962D01*
X0421656Y0672901D01*
X0421651Y0672840D01*
X0421649Y0672778D01*
X0421651Y0672715D01*
X0421657Y0672652D01*
X0421666Y0672589D01*
X0421680Y0672527D01*
X0421697Y0672466D01*
X0421718Y0672406D01*
X0421742Y0672348D01*
X0421770Y0672291D01*
X0421802Y0672236D01*
X0421837Y0672183D01*
X0421875Y0672132D01*
X0421916Y0672084D01*
X0421959Y0672038D01*
X0422006Y0671995D01*
X0422055Y0671955D01*
X0422106Y0671918D01*
X0422160Y0671884D01*
X0425571Y0673800D02*
X0428127Y0673800D01*
X0426849Y0673800D02*
X0426849Y0669200D01*
X0429771Y0669200D02*
X0432327Y0669200D01*
X0431049Y0669200D02*
X0431049Y0673800D01*
X0429771Y0672778D01*
X0434221Y0671883D02*
X0434477Y0671883D01*
X0434477Y0671628D01*
X0434221Y0671628D01*
X0434221Y0671883D01*
X0434221Y0669839D02*
X0434477Y0669839D01*
X0434477Y0669583D01*
X0434221Y0669583D01*
X0434221Y0669839D01*
X0436358Y0670222D02*
X0436358Y0672778D01*
X0436360Y0672840D01*
X0436365Y0672901D01*
X0436375Y0672962D01*
X0436388Y0673023D01*
X0436404Y0673082D01*
X0436424Y0673140D01*
X0436448Y0673197D01*
X0436475Y0673253D01*
X0436505Y0673307D01*
X0436539Y0673359D01*
X0436575Y0673408D01*
X0436615Y0673456D01*
X0436657Y0673501D01*
X0436702Y0673543D01*
X0436750Y0673582D01*
X0436799Y0673619D01*
X0436851Y0673653D01*
X0436905Y0673683D01*
X0436961Y0673710D01*
X0437018Y0673734D01*
X0437076Y0673754D01*
X0437135Y0673770D01*
X0437196Y0673783D01*
X0437257Y0673793D01*
X0437318Y0673798D01*
X0437380Y0673800D01*
X0438402Y0673800D01*
X0440121Y0672778D02*
X0441399Y0673800D01*
X0441399Y0669200D01*
X0440121Y0669200D02*
X0442677Y0669200D01*
X0438402Y0669200D02*
X0437380Y0669200D01*
X0437318Y0669202D01*
X0437257Y0669207D01*
X0437196Y0669217D01*
X0437135Y0669230D01*
X0437076Y0669246D01*
X0437018Y0669266D01*
X0436961Y0669290D01*
X0436905Y0669317D01*
X0436851Y0669347D01*
X0436799Y0669381D01*
X0436750Y0669417D01*
X0436702Y0669457D01*
X0436657Y0669499D01*
X0436615Y0669544D01*
X0436575Y0669592D01*
X0436539Y0669641D01*
X0436505Y0669693D01*
X0436475Y0669747D01*
X0436448Y0669803D01*
X0436424Y0669860D01*
X0436404Y0669918D01*
X0436388Y0669977D01*
X0436375Y0670038D01*
X0436365Y0670099D01*
X0436360Y0670160D01*
X0436358Y0670222D01*
X0448200Y0669200D02*
X0448200Y0673800D01*
X0449478Y0673800D01*
X0449548Y0673798D01*
X0449619Y0673792D01*
X0449688Y0673783D01*
X0449757Y0673769D01*
X0449826Y0673752D01*
X0449893Y0673731D01*
X0449959Y0673706D01*
X0450023Y0673678D01*
X0450086Y0673646D01*
X0450147Y0673611D01*
X0450206Y0673572D01*
X0450263Y0673531D01*
X0450317Y0673486D01*
X0450369Y0673438D01*
X0450418Y0673388D01*
X0450465Y0673334D01*
X0450508Y0673279D01*
X0450548Y0673221D01*
X0450585Y0673161D01*
X0450618Y0673099D01*
X0450648Y0673035D01*
X0450675Y0672970D01*
X0450698Y0672904D01*
X0450717Y0672836D01*
X0450732Y0672767D01*
X0450744Y0672698D01*
X0450752Y0672628D01*
X0450756Y0672557D01*
X0450756Y0672487D01*
X0450752Y0672416D01*
X0450744Y0672346D01*
X0450732Y0672277D01*
X0450717Y0672208D01*
X0450698Y0672140D01*
X0450675Y0672074D01*
X0450648Y0672009D01*
X0450618Y0671945D01*
X0450585Y0671883D01*
X0450548Y0671823D01*
X0450508Y0671765D01*
X0450465Y0671710D01*
X0450418Y0671656D01*
X0450369Y0671606D01*
X0450317Y0671558D01*
X0450263Y0671513D01*
X0450206Y0671472D01*
X0450147Y0671433D01*
X0450086Y0671398D01*
X0450023Y0671366D01*
X0449959Y0671338D01*
X0449893Y0671313D01*
X0449826Y0671292D01*
X0449757Y0671275D01*
X0449688Y0671261D01*
X0449619Y0671252D01*
X0449548Y0671246D01*
X0449478Y0671244D01*
X0448200Y0671244D01*
X0452317Y0673800D02*
X0453339Y0669200D01*
X0454361Y0672267D01*
X0455383Y0669200D01*
X0456406Y0673800D01*
X0458362Y0673800D02*
X0459640Y0673800D01*
X0458362Y0673800D02*
X0458362Y0669200D01*
X0458362Y0671244D02*
X0459640Y0671244D01*
X0459896Y0671244D02*
X0460918Y0669200D01*
X0462833Y0669200D02*
X0465389Y0669200D01*
X0464111Y0669200D02*
X0464111Y0673800D01*
X0462833Y0672778D01*
X0459640Y0673800D02*
X0459710Y0673798D01*
X0459781Y0673792D01*
X0459850Y0673783D01*
X0459919Y0673769D01*
X0459988Y0673752D01*
X0460055Y0673731D01*
X0460121Y0673706D01*
X0460185Y0673678D01*
X0460248Y0673646D01*
X0460309Y0673611D01*
X0460368Y0673572D01*
X0460425Y0673531D01*
X0460479Y0673486D01*
X0460531Y0673438D01*
X0460580Y0673388D01*
X0460627Y0673334D01*
X0460670Y0673279D01*
X0460710Y0673221D01*
X0460747Y0673161D01*
X0460780Y0673099D01*
X0460810Y0673035D01*
X0460837Y0672970D01*
X0460860Y0672904D01*
X0460879Y0672836D01*
X0460894Y0672767D01*
X0460906Y0672698D01*
X0460914Y0672628D01*
X0460918Y0672557D01*
X0460918Y0672487D01*
X0460914Y0672416D01*
X0460906Y0672346D01*
X0460894Y0672277D01*
X0460879Y0672208D01*
X0460860Y0672140D01*
X0460837Y0672074D01*
X0460810Y0672009D01*
X0460780Y0671945D01*
X0460747Y0671883D01*
X0460710Y0671823D01*
X0460670Y0671765D01*
X0460627Y0671710D01*
X0460580Y0671656D01*
X0460531Y0671606D01*
X0460479Y0671558D01*
X0460425Y0671513D01*
X0460368Y0671472D01*
X0460309Y0671433D01*
X0460248Y0671398D01*
X0460185Y0671366D01*
X0460121Y0671338D01*
X0460055Y0671313D01*
X0459988Y0671292D01*
X0459919Y0671275D01*
X0459850Y0671261D01*
X0459781Y0671252D01*
X0459710Y0671246D01*
X0459640Y0671244D01*
X0467283Y0671628D02*
X0467539Y0671628D01*
X0467539Y0671883D01*
X0467283Y0671883D01*
X0467283Y0671628D01*
X0467283Y0669839D02*
X0467539Y0669839D01*
X0467539Y0669583D01*
X0467283Y0669583D01*
X0467283Y0669839D01*
X0469420Y0670222D02*
X0469420Y0672778D01*
X0469422Y0672840D01*
X0469427Y0672901D01*
X0469437Y0672962D01*
X0469450Y0673023D01*
X0469466Y0673082D01*
X0469486Y0673140D01*
X0469510Y0673197D01*
X0469537Y0673253D01*
X0469567Y0673307D01*
X0469601Y0673359D01*
X0469637Y0673408D01*
X0469677Y0673456D01*
X0469719Y0673501D01*
X0469764Y0673543D01*
X0469812Y0673582D01*
X0469861Y0673619D01*
X0469913Y0673653D01*
X0469967Y0673683D01*
X0470023Y0673710D01*
X0470080Y0673734D01*
X0470138Y0673754D01*
X0470197Y0673770D01*
X0470258Y0673783D01*
X0470319Y0673793D01*
X0470380Y0673798D01*
X0470442Y0673800D01*
X0471465Y0673800D01*
X0473183Y0672778D02*
X0474461Y0673800D01*
X0474461Y0669200D01*
X0473183Y0669200D02*
X0475739Y0669200D01*
X0471465Y0669200D02*
X0470442Y0669200D01*
X0470380Y0669202D01*
X0470319Y0669207D01*
X0470258Y0669217D01*
X0470197Y0669230D01*
X0470138Y0669246D01*
X0470080Y0669266D01*
X0470023Y0669290D01*
X0469967Y0669317D01*
X0469913Y0669347D01*
X0469861Y0669381D01*
X0469812Y0669417D01*
X0469764Y0669457D01*
X0469719Y0669499D01*
X0469677Y0669544D01*
X0469637Y0669592D01*
X0469601Y0669641D01*
X0469567Y0669693D01*
X0469537Y0669747D01*
X0469510Y0669803D01*
X0469486Y0669860D01*
X0469466Y0669918D01*
X0469450Y0669977D01*
X0469437Y0670038D01*
X0469427Y0670099D01*
X0469422Y0670160D01*
X0469420Y0670222D01*
X0442299Y0693800D02*
X0441021Y0692778D01*
X0616200Y0708200D02*
X0616200Y0710244D01*
X0616200Y0712100D02*
X0620800Y0712100D01*
X0620800Y0714144D01*
X0620800Y0716020D02*
X0616200Y0716020D01*
X0616200Y0717298D01*
X0616202Y0717368D01*
X0616208Y0717439D01*
X0616217Y0717508D01*
X0616231Y0717577D01*
X0616248Y0717646D01*
X0616269Y0717713D01*
X0616294Y0717779D01*
X0616322Y0717843D01*
X0616354Y0717906D01*
X0616389Y0717967D01*
X0616428Y0718026D01*
X0616469Y0718083D01*
X0616514Y0718137D01*
X0616562Y0718189D01*
X0616612Y0718238D01*
X0616666Y0718285D01*
X0616721Y0718328D01*
X0616779Y0718368D01*
X0616839Y0718405D01*
X0616901Y0718438D01*
X0616965Y0718468D01*
X0617030Y0718495D01*
X0617096Y0718518D01*
X0617164Y0718537D01*
X0617233Y0718552D01*
X0617302Y0718564D01*
X0617372Y0718572D01*
X0617443Y0718576D01*
X0617513Y0718576D01*
X0617584Y0718572D01*
X0617654Y0718564D01*
X0617723Y0718552D01*
X0617792Y0718537D01*
X0617860Y0718518D01*
X0617926Y0718495D01*
X0617991Y0718468D01*
X0618055Y0718438D01*
X0618117Y0718405D01*
X0618177Y0718368D01*
X0618235Y0718328D01*
X0618290Y0718285D01*
X0618344Y0718238D01*
X0618394Y0718189D01*
X0618442Y0718137D01*
X0618487Y0718083D01*
X0618528Y0718026D01*
X0618567Y0717967D01*
X0618602Y0717906D01*
X0618634Y0717843D01*
X0618662Y0717779D01*
X0618687Y0717713D01*
X0618708Y0717646D01*
X0618725Y0717577D01*
X0618739Y0717508D01*
X0618748Y0717439D01*
X0618754Y0717368D01*
X0618756Y0717298D01*
X0618756Y0716020D01*
X0618756Y0717553D02*
X0620800Y0718576D01*
X0620800Y0720491D02*
X0620800Y0723047D01*
X0620800Y0721769D02*
X0616200Y0721769D01*
X0617222Y0720491D01*
X0618117Y0724941D02*
X0618117Y0725197D01*
X0618372Y0725197D01*
X0618372Y0724941D01*
X0618117Y0724941D01*
X0620161Y0724941D02*
X0620161Y0725197D01*
X0620417Y0725197D01*
X0620417Y0724941D01*
X0620161Y0724941D01*
X0620800Y0727270D02*
X0616200Y0727270D01*
X0616200Y0728548D01*
X0616202Y0728618D01*
X0616208Y0728689D01*
X0616217Y0728758D01*
X0616231Y0728827D01*
X0616248Y0728896D01*
X0616269Y0728963D01*
X0616294Y0729029D01*
X0616322Y0729093D01*
X0616354Y0729156D01*
X0616389Y0729217D01*
X0616428Y0729276D01*
X0616469Y0729333D01*
X0616514Y0729387D01*
X0616562Y0729439D01*
X0616612Y0729488D01*
X0616666Y0729535D01*
X0616721Y0729578D01*
X0616779Y0729618D01*
X0616839Y0729655D01*
X0616901Y0729688D01*
X0616965Y0729718D01*
X0617030Y0729745D01*
X0617096Y0729768D01*
X0617164Y0729787D01*
X0617233Y0729802D01*
X0617302Y0729814D01*
X0617372Y0729822D01*
X0617443Y0729826D01*
X0617513Y0729826D01*
X0617584Y0729822D01*
X0617654Y0729814D01*
X0617723Y0729802D01*
X0617792Y0729787D01*
X0617860Y0729768D01*
X0617926Y0729745D01*
X0617991Y0729718D01*
X0618055Y0729688D01*
X0618117Y0729655D01*
X0618177Y0729618D01*
X0618235Y0729578D01*
X0618290Y0729535D01*
X0618344Y0729488D01*
X0618394Y0729439D01*
X0618442Y0729387D01*
X0618487Y0729333D01*
X0618528Y0729276D01*
X0618567Y0729217D01*
X0618602Y0729156D01*
X0618634Y0729093D01*
X0618662Y0729029D01*
X0618687Y0728963D01*
X0618708Y0728896D01*
X0618725Y0728827D01*
X0618739Y0728758D01*
X0618748Y0728689D01*
X0618754Y0728618D01*
X0618756Y0728548D01*
X0618756Y0727270D01*
X0618756Y0728803D02*
X0620800Y0729826D01*
X0620800Y0731741D02*
X0620800Y0734297D01*
X0620800Y0733019D02*
X0616200Y0733019D01*
X0617222Y0731741D01*
X0618244Y0710244D02*
X0618244Y0708200D01*
X0616200Y0708200D02*
X0620800Y0708200D01*
D11*
X0646315Y0702000D02*
X0646315Y0727591D01*
X0666000Y0727591D01*
X0666000Y0702000D01*
X0646315Y0702000D01*
X0514900Y0664800D02*
X0514900Y0663200D01*
X0506000Y0655800D02*
X0498000Y0655800D01*
X0489100Y0663200D02*
X0489100Y0664800D01*
X0498000Y0672200D02*
X0506000Y0672200D01*
X0499400Y0707100D02*
X0495400Y0707100D01*
X0476500Y0735400D02*
X0476500Y0739400D01*
X0454600Y0710300D02*
X0450500Y0710300D01*
X0462900Y0704500D02*
X0464500Y0702900D01*
X0345000Y0619717D02*
X0345000Y0602000D01*
X0331220Y0602000D01*
X0331220Y0619717D01*
X0345000Y0619717D01*
D12*
X0459856Y0692686D02*
X0461422Y0692686D01*
X0460900Y0691250D01*
X0461422Y0692686D01*
X0460900Y0694122D01*
X0461422Y0692686D01*
X0462597Y0691772D01*
X0461422Y0692686D01*
X0462597Y0693600D01*
X0461422Y0692686D01*
X0459856Y0692686D01*
X0499650Y0675706D02*
X0499650Y0674661D01*
X0499650Y0675706D02*
X0499652Y0675769D01*
X0499658Y0675832D01*
X0499667Y0675894D01*
X0499680Y0675956D01*
X0499697Y0676017D01*
X0499718Y0676076D01*
X0499742Y0676134D01*
X0499770Y0676191D01*
X0499801Y0676246D01*
X0499835Y0676299D01*
X0499872Y0676350D01*
X0499913Y0676398D01*
X0499956Y0676444D01*
X0500002Y0676487D01*
X0500050Y0676528D01*
X0500101Y0676565D01*
X0500154Y0676599D01*
X0500209Y0676630D01*
X0500266Y0676658D01*
X0500324Y0676682D01*
X0500383Y0676703D01*
X0500444Y0676720D01*
X0500506Y0676733D01*
X0500568Y0676742D01*
X0500631Y0676748D01*
X0500694Y0676750D01*
X0503306Y0676750D01*
X0503369Y0676748D01*
X0503432Y0676742D01*
X0503494Y0676733D01*
X0503556Y0676720D01*
X0503617Y0676703D01*
X0503676Y0676682D01*
X0503734Y0676658D01*
X0503791Y0676630D01*
X0503846Y0676599D01*
X0503899Y0676565D01*
X0503950Y0676528D01*
X0503998Y0676487D01*
X0504044Y0676444D01*
X0504087Y0676398D01*
X0504128Y0676350D01*
X0504165Y0676299D01*
X0504199Y0676246D01*
X0504230Y0676191D01*
X0504258Y0676134D01*
X0504282Y0676076D01*
X0504303Y0676017D01*
X0504320Y0675956D01*
X0504333Y0675894D01*
X0504342Y0675832D01*
X0504348Y0675769D01*
X0504350Y0675706D01*
X0504350Y0674661D01*
X0504350Y0672831D02*
X0499650Y0672831D01*
X0499650Y0670742D01*
X0499650Y0668880D02*
X0504350Y0668880D01*
X0502522Y0667836D02*
X0499650Y0666269D01*
X0499650Y0664589D02*
X0499650Y0661977D01*
X0499650Y0663283D02*
X0504350Y0663283D01*
X0503306Y0664589D01*
X0504350Y0666269D02*
X0501478Y0668880D01*
X0502131Y0660114D02*
X0502131Y0659853D01*
X0502392Y0659853D01*
X0502392Y0660114D01*
X0502131Y0660114D01*
X0500303Y0660114D02*
X0500303Y0659853D01*
X0500042Y0659853D01*
X0500042Y0660114D01*
X0500303Y0660114D01*
X0499650Y0656683D02*
X0502131Y0656683D01*
X0504350Y0655116D01*
X0502131Y0656683D02*
X0504350Y0658250D01*
X0502261Y0651270D02*
X0502309Y0651222D01*
X0502360Y0651176D01*
X0502413Y0651134D01*
X0502469Y0651094D01*
X0502526Y0651057D01*
X0502586Y0651024D01*
X0502647Y0650994D01*
X0502709Y0650967D01*
X0502773Y0650944D01*
X0502838Y0650924D01*
X0502905Y0650907D01*
X0502972Y0650895D01*
X0503039Y0650885D01*
X0503107Y0650880D01*
X0503175Y0650878D01*
X0502261Y0651269D02*
X0499650Y0653489D01*
X0499650Y0650878D01*
X0503305Y0653490D02*
X0503377Y0653464D01*
X0503447Y0653436D01*
X0503516Y0653403D01*
X0503583Y0653368D01*
X0503648Y0653329D01*
X0503711Y0653286D01*
X0503772Y0653241D01*
X0503831Y0653193D01*
X0503887Y0653141D01*
X0503940Y0653087D01*
X0503991Y0653031D01*
X0504038Y0652972D01*
X0504083Y0652910D01*
X0504125Y0652847D01*
X0504163Y0652781D01*
X0504198Y0652714D01*
X0504229Y0652644D01*
X0504257Y0652574D01*
X0504282Y0652502D01*
X0504302Y0652429D01*
X0504320Y0652355D01*
X0504333Y0652280D01*
X0504342Y0652205D01*
X0504348Y0652129D01*
X0504350Y0652053D01*
X0504348Y0651987D01*
X0504343Y0651921D01*
X0504333Y0651856D01*
X0504321Y0651792D01*
X0504304Y0651728D01*
X0504284Y0651665D01*
X0504261Y0651603D01*
X0504234Y0651543D01*
X0504203Y0651485D01*
X0504170Y0651428D01*
X0504133Y0651373D01*
X0504094Y0651320D01*
X0504051Y0651270D01*
X0504006Y0651222D01*
X0503958Y0651177D01*
X0503908Y0651134D01*
X0503855Y0651095D01*
X0503800Y0651058D01*
X0503743Y0651025D01*
X0503685Y0650994D01*
X0503625Y0650967D01*
X0503563Y0650944D01*
X0503500Y0650924D01*
X0503436Y0650907D01*
X0503372Y0650895D01*
X0503307Y0650885D01*
X0503241Y0650880D01*
X0503175Y0650878D01*
X0641100Y0702150D02*
X0641100Y0703439D01*
X0641100Y0704646D02*
X0644000Y0704646D01*
X0644000Y0705935D01*
X0644000Y0707156D02*
X0641100Y0707156D01*
X0641100Y0707961D01*
X0641099Y0707961D02*
X0641101Y0708016D01*
X0641107Y0708071D01*
X0641116Y0708125D01*
X0641129Y0708178D01*
X0641146Y0708231D01*
X0641166Y0708282D01*
X0641189Y0708332D01*
X0641216Y0708380D01*
X0641247Y0708426D01*
X0641280Y0708470D01*
X0641316Y0708511D01*
X0641355Y0708550D01*
X0641396Y0708586D01*
X0641440Y0708619D01*
X0641486Y0708650D01*
X0641534Y0708677D01*
X0641584Y0708700D01*
X0641635Y0708720D01*
X0641688Y0708737D01*
X0641741Y0708750D01*
X0641795Y0708759D01*
X0641850Y0708765D01*
X0641905Y0708767D01*
X0641960Y0708765D01*
X0642015Y0708759D01*
X0642069Y0708750D01*
X0642122Y0708737D01*
X0642175Y0708720D01*
X0642226Y0708700D01*
X0642276Y0708677D01*
X0642324Y0708650D01*
X0642370Y0708619D01*
X0642414Y0708586D01*
X0642455Y0708550D01*
X0642494Y0708511D01*
X0642530Y0708470D01*
X0642563Y0708426D01*
X0642594Y0708380D01*
X0642621Y0708332D01*
X0642644Y0708282D01*
X0642664Y0708231D01*
X0642681Y0708178D01*
X0642694Y0708125D01*
X0642703Y0708071D01*
X0642709Y0708016D01*
X0642711Y0707961D01*
X0642711Y0707156D01*
X0642711Y0708123D02*
X0644000Y0708767D01*
X0644000Y0710016D02*
X0644000Y0711627D01*
X0644000Y0710821D02*
X0641100Y0710821D01*
X0641744Y0710016D01*
X0642308Y0712853D02*
X0642308Y0713014D01*
X0642469Y0713014D01*
X0642469Y0712853D01*
X0642308Y0712853D01*
X0643597Y0712853D02*
X0643597Y0713014D01*
X0643758Y0713014D01*
X0643758Y0712853D01*
X0643597Y0712853D01*
X0643194Y0714336D02*
X0641100Y0714336D01*
X0641100Y0715947D02*
X0643194Y0715947D01*
X0643249Y0715945D01*
X0643304Y0715939D01*
X0643358Y0715930D01*
X0643411Y0715917D01*
X0643464Y0715900D01*
X0643515Y0715880D01*
X0643565Y0715857D01*
X0643613Y0715830D01*
X0643659Y0715799D01*
X0643703Y0715766D01*
X0643744Y0715730D01*
X0643783Y0715691D01*
X0643819Y0715650D01*
X0643852Y0715606D01*
X0643883Y0715560D01*
X0643910Y0715512D01*
X0643933Y0715462D01*
X0643953Y0715411D01*
X0643970Y0715358D01*
X0643983Y0715305D01*
X0643992Y0715251D01*
X0643998Y0715196D01*
X0644000Y0715141D01*
X0643998Y0715086D01*
X0643992Y0715031D01*
X0643983Y0714977D01*
X0643970Y0714924D01*
X0643953Y0714871D01*
X0643933Y0714820D01*
X0643910Y0714770D01*
X0643883Y0714722D01*
X0643852Y0714676D01*
X0643819Y0714632D01*
X0643783Y0714591D01*
X0643744Y0714552D01*
X0643703Y0714516D01*
X0643659Y0714483D01*
X0643613Y0714452D01*
X0643565Y0714425D01*
X0643515Y0714402D01*
X0643464Y0714382D01*
X0643411Y0714365D01*
X0643358Y0714352D01*
X0643304Y0714343D01*
X0643249Y0714337D01*
X0643194Y0714335D01*
X0642308Y0717523D02*
X0642550Y0717925D01*
X0642791Y0718328D01*
X0641583Y0718569D02*
X0641548Y0718508D01*
X0641517Y0718444D01*
X0641489Y0718379D01*
X0641465Y0718313D01*
X0641445Y0718245D01*
X0641428Y0718176D01*
X0641416Y0718106D01*
X0641407Y0718036D01*
X0641402Y0717966D01*
X0641401Y0717895D01*
X0641404Y0717824D01*
X0641411Y0717754D01*
X0641422Y0717684D01*
X0641100Y0717925D02*
X0644000Y0717925D01*
X0643677Y0718166D02*
X0643668Y0718208D01*
X0643654Y0718249D01*
X0643637Y0718289D01*
X0643617Y0718327D01*
X0643593Y0718363D01*
X0643566Y0718397D01*
X0643536Y0718428D01*
X0643504Y0718456D01*
X0643469Y0718481D01*
X0643432Y0718504D01*
X0643393Y0718522D01*
X0643353Y0718537D01*
X0643311Y0718549D01*
X0643269Y0718557D01*
X0643226Y0718561D01*
X0643183Y0718561D01*
X0643140Y0718557D01*
X0643097Y0718549D01*
X0643056Y0718538D01*
X0643015Y0718522D01*
X0642977Y0718504D01*
X0642940Y0718482D01*
X0642905Y0718456D01*
X0642872Y0718428D01*
X0642842Y0718397D01*
X0642815Y0718363D01*
X0642792Y0718327D01*
X0643677Y0718167D02*
X0643688Y0718097D01*
X0643695Y0718027D01*
X0643698Y0717956D01*
X0643697Y0717885D01*
X0643692Y0717815D01*
X0643683Y0717745D01*
X0643671Y0717675D01*
X0643654Y0717606D01*
X0643634Y0717538D01*
X0643610Y0717472D01*
X0643582Y0717407D01*
X0643551Y0717343D01*
X0643516Y0717282D01*
X0642307Y0717523D02*
X0642284Y0717487D01*
X0642257Y0717453D01*
X0642227Y0717422D01*
X0642194Y0717394D01*
X0642159Y0717368D01*
X0642122Y0717346D01*
X0642084Y0717328D01*
X0642043Y0717312D01*
X0642002Y0717301D01*
X0641959Y0717293D01*
X0641916Y0717289D01*
X0641873Y0717289D01*
X0641830Y0717293D01*
X0641788Y0717301D01*
X0641746Y0717313D01*
X0641706Y0717328D01*
X0641667Y0717346D01*
X0641630Y0717369D01*
X0641595Y0717394D01*
X0641563Y0717422D01*
X0641533Y0717453D01*
X0641506Y0717487D01*
X0641482Y0717523D01*
X0641462Y0717561D01*
X0641445Y0717601D01*
X0641431Y0717642D01*
X0641422Y0717684D01*
X0641744Y0719808D02*
X0641100Y0720613D01*
X0644000Y0720613D01*
X0644000Y0719808D02*
X0644000Y0721419D01*
X0642388Y0703439D02*
X0642388Y0702150D01*
X0641100Y0702150D02*
X0644000Y0702150D01*
D13*
X0340000Y0651000D03*
D14*
X0342067Y0648736D03*
D15*
X0327702Y0602467D02*
X0327702Y0602050D01*
X0329202Y0602050D01*
X0328535Y0602050D02*
X0328535Y0602467D01*
X0328536Y0602467D02*
X0328534Y0602507D01*
X0328528Y0602546D01*
X0328519Y0602584D01*
X0328506Y0602622D01*
X0328490Y0602658D01*
X0328470Y0602692D01*
X0328447Y0602725D01*
X0328421Y0602755D01*
X0328392Y0602782D01*
X0328361Y0602807D01*
X0328328Y0602828D01*
X0328292Y0602846D01*
X0328255Y0602861D01*
X0328217Y0602872D01*
X0328178Y0602880D01*
X0328139Y0602884D01*
X0328099Y0602884D01*
X0328060Y0602880D01*
X0328021Y0602872D01*
X0327983Y0602861D01*
X0327946Y0602846D01*
X0327911Y0602828D01*
X0327877Y0602807D01*
X0327846Y0602782D01*
X0327817Y0602755D01*
X0327791Y0602725D01*
X0327768Y0602692D01*
X0327748Y0602658D01*
X0327732Y0602622D01*
X0327719Y0602584D01*
X0327710Y0602546D01*
X0327704Y0602507D01*
X0327702Y0602467D01*
X0327702Y0603365D02*
X0329202Y0603698D01*
X0328202Y0604032D01*
X0329202Y0604365D01*
X0327702Y0604698D01*
X0327702Y0605303D02*
X0327702Y0605720D01*
X0327704Y0605760D01*
X0327710Y0605799D01*
X0327719Y0605837D01*
X0327732Y0605875D01*
X0327748Y0605911D01*
X0327768Y0605945D01*
X0327791Y0605978D01*
X0327817Y0606008D01*
X0327846Y0606035D01*
X0327877Y0606060D01*
X0327911Y0606081D01*
X0327946Y0606099D01*
X0327983Y0606114D01*
X0328021Y0606125D01*
X0328060Y0606133D01*
X0328099Y0606137D01*
X0328139Y0606137D01*
X0328178Y0606133D01*
X0328217Y0606125D01*
X0328255Y0606114D01*
X0328292Y0606099D01*
X0328328Y0606081D01*
X0328361Y0606060D01*
X0328392Y0606035D01*
X0328421Y0606008D01*
X0328447Y0605978D01*
X0328470Y0605945D01*
X0328490Y0605911D01*
X0328506Y0605875D01*
X0328519Y0605837D01*
X0328528Y0605799D01*
X0328534Y0605760D01*
X0328536Y0605720D01*
X0328535Y0605720D02*
X0328535Y0605303D01*
X0328535Y0605803D02*
X0329202Y0606137D01*
X0329202Y0606735D02*
X0329202Y0607568D01*
X0329202Y0607152D02*
X0327702Y0607152D01*
X0328035Y0606735D01*
X0328327Y0608166D02*
X0328327Y0608249D01*
X0328410Y0608249D01*
X0328410Y0608166D01*
X0328327Y0608166D01*
X0328994Y0608166D02*
X0328994Y0608249D01*
X0329077Y0608249D01*
X0329077Y0608166D01*
X0328994Y0608166D01*
X0328785Y0608895D02*
X0327702Y0608895D01*
X0327702Y0609728D02*
X0328785Y0609728D01*
X0328785Y0609729D02*
X0328825Y0609727D01*
X0328864Y0609721D01*
X0328902Y0609712D01*
X0328940Y0609699D01*
X0328976Y0609683D01*
X0329010Y0609663D01*
X0329043Y0609640D01*
X0329073Y0609614D01*
X0329100Y0609585D01*
X0329125Y0609554D01*
X0329146Y0609521D01*
X0329164Y0609485D01*
X0329179Y0609448D01*
X0329190Y0609410D01*
X0329198Y0609371D01*
X0329202Y0609332D01*
X0329202Y0609292D01*
X0329198Y0609253D01*
X0329190Y0609214D01*
X0329179Y0609176D01*
X0329164Y0609139D01*
X0329146Y0609104D01*
X0329125Y0609070D01*
X0329100Y0609039D01*
X0329073Y0609010D01*
X0329043Y0608984D01*
X0329010Y0608961D01*
X0328976Y0608941D01*
X0328940Y0608925D01*
X0328902Y0608912D01*
X0328864Y0608903D01*
X0328825Y0608897D01*
X0328785Y0608895D01*
X0328327Y0610495D02*
X0328452Y0610704D01*
X0328577Y0610912D01*
X0327952Y0611037D02*
X0327929Y0610995D01*
X0327909Y0610952D01*
X0327892Y0610907D01*
X0327879Y0610862D01*
X0327869Y0610815D01*
X0327862Y0610768D01*
X0327858Y0610721D01*
X0327858Y0610673D01*
X0327862Y0610625D01*
X0327869Y0610578D01*
X0327702Y0610704D02*
X0329202Y0610704D01*
X0329035Y0610829D02*
X0329028Y0610858D01*
X0329017Y0610886D01*
X0329003Y0610913D01*
X0328986Y0610938D01*
X0328966Y0610960D01*
X0328943Y0610980D01*
X0328919Y0610997D01*
X0328892Y0611011D01*
X0328864Y0611022D01*
X0328835Y0611029D01*
X0328805Y0611033D01*
X0328775Y0611033D01*
X0328745Y0611029D01*
X0328715Y0611022D01*
X0328687Y0611011D01*
X0328661Y0610997D01*
X0328636Y0610980D01*
X0328613Y0610960D01*
X0328594Y0610937D01*
X0328576Y0610912D01*
X0329035Y0610829D02*
X0329042Y0610782D01*
X0329046Y0610734D01*
X0329046Y0610686D01*
X0329042Y0610639D01*
X0329035Y0610592D01*
X0329025Y0610545D01*
X0329012Y0610500D01*
X0328995Y0610455D01*
X0328975Y0610412D01*
X0328952Y0610370D01*
X0328328Y0610495D02*
X0328310Y0610470D01*
X0328291Y0610447D01*
X0328268Y0610427D01*
X0328243Y0610410D01*
X0328217Y0610396D01*
X0328189Y0610385D01*
X0328159Y0610378D01*
X0328129Y0610374D01*
X0328099Y0610374D01*
X0328069Y0610378D01*
X0328040Y0610385D01*
X0328012Y0610396D01*
X0327985Y0610410D01*
X0327961Y0610427D01*
X0327938Y0610447D01*
X0327918Y0610469D01*
X0327901Y0610494D01*
X0327887Y0610521D01*
X0327876Y0610549D01*
X0327869Y0610578D01*
X0328035Y0611631D02*
X0327702Y0612048D01*
X0329202Y0612048D01*
X0329202Y0612464D02*
X0329202Y0611631D01*
X0329202Y0605303D02*
X0327702Y0605303D01*
D16*
X0371000Y0612000D02*
X0616000Y0612000D01*
X0616000Y0819000D01*
X0371000Y0819000D01*
X0371000Y0612000D01*
X0319000Y0668543D02*
X0319000Y0765000D01*
X0236323Y0765000D01*
X0222543Y0742953D01*
X0222543Y0690984D01*
X0236323Y0668543D01*
X0319000Y0668543D01*
X0338000Y0673500D02*
X0358000Y0673500D01*
X0353000Y0676000D02*
X0343000Y0676000D01*
X0348000Y0676000D02*
X0348000Y0683500D01*
X0345500Y0683500D02*
X0345500Y0686000D01*
X0343000Y0686000D01*
X0345500Y0686000D02*
X0345500Y0688500D01*
X0348000Y0688500D02*
X0348000Y0696000D01*
X0353000Y0696000D01*
X0348000Y0696000D02*
X0343000Y0696000D01*
X0338000Y0698500D02*
X0358000Y0698500D01*
X0360500Y0691000D02*
X0360500Y0681000D01*
X0335500Y0681000D02*
X0335500Y0691000D01*
D17*
X0498600Y0693800D02*
X0503944Y0693800D01*
X0504034Y0693802D01*
X0504123Y0693808D01*
X0504212Y0693818D01*
X0504301Y0693831D01*
X0504389Y0693849D01*
X0504476Y0693870D01*
X0504562Y0693895D01*
X0504647Y0693924D01*
X0504731Y0693957D01*
X0504813Y0693993D01*
X0504893Y0694032D01*
X0504972Y0694075D01*
X0505049Y0694122D01*
X0505123Y0694172D01*
X0505196Y0694225D01*
X0505266Y0694281D01*
X0505333Y0694340D01*
X0505398Y0694402D01*
X0505460Y0694467D01*
X0505519Y0694534D01*
X0505575Y0694604D01*
X0505628Y0694677D01*
X0505678Y0694751D01*
X0505725Y0694828D01*
X0505768Y0694907D01*
X0505807Y0694987D01*
X0505843Y0695069D01*
X0505876Y0695153D01*
X0505905Y0695238D01*
X0505930Y0695324D01*
X0505951Y0695411D01*
X0505969Y0695499D01*
X0505982Y0695588D01*
X0505992Y0695677D01*
X0505998Y0695766D01*
X0506000Y0695856D01*
X0505998Y0695946D01*
X0505992Y0696035D01*
X0505982Y0696124D01*
X0505969Y0696213D01*
X0505951Y0696301D01*
X0505930Y0696388D01*
X0505905Y0696474D01*
X0505876Y0696559D01*
X0505843Y0696643D01*
X0505807Y0696725D01*
X0505768Y0696805D01*
X0505725Y0696884D01*
X0505678Y0696961D01*
X0505628Y0697035D01*
X0505575Y0697108D01*
X0505519Y0697178D01*
X0505460Y0697245D01*
X0505398Y0697310D01*
X0505333Y0697372D01*
X0505266Y0697431D01*
X0505196Y0697487D01*
X0505123Y0697540D01*
X0505049Y0697590D01*
X0504972Y0697637D01*
X0504893Y0697680D01*
X0504813Y0697719D01*
X0504731Y0697755D01*
X0504647Y0697788D01*
X0504562Y0697817D01*
X0504476Y0697842D01*
X0504389Y0697863D01*
X0504301Y0697881D01*
X0504212Y0697894D01*
X0504123Y0697904D01*
X0504034Y0697910D01*
X0503944Y0697912D01*
X0503944Y0697911D02*
X0498600Y0697911D01*
X0501889Y0704550D02*
X0501829Y0704610D01*
X0501767Y0704668D01*
X0501702Y0704723D01*
X0501636Y0704775D01*
X0501567Y0704824D01*
X0501495Y0704870D01*
X0501423Y0704913D01*
X0501348Y0704953D01*
X0501271Y0704989D01*
X0501194Y0705023D01*
X0501114Y0705053D01*
X0501034Y0705079D01*
X0500953Y0705102D01*
X0500870Y0705122D01*
X0500787Y0705138D01*
X0500703Y0705151D01*
X0500619Y0705160D01*
X0500535Y0705165D01*
X0500450Y0705167D01*
X0501889Y0704550D02*
X0506000Y0701056D01*
X0506000Y0705167D01*
X0500245Y0701056D02*
X0500154Y0701087D01*
X0500064Y0701122D01*
X0499976Y0701161D01*
X0499889Y0701204D01*
X0499804Y0701250D01*
X0499721Y0701299D01*
X0499640Y0701351D01*
X0499562Y0701407D01*
X0499485Y0701466D01*
X0499412Y0701528D01*
X0499340Y0701593D01*
X0499272Y0701661D01*
X0499206Y0701731D01*
X0499143Y0701805D01*
X0499083Y0701880D01*
X0499027Y0701958D01*
X0498973Y0702038D01*
X0498923Y0702121D01*
X0498876Y0702205D01*
X0498833Y0702291D01*
X0498793Y0702379D01*
X0498757Y0702468D01*
X0498724Y0702559D01*
X0498695Y0702651D01*
X0498670Y0702744D01*
X0498649Y0702838D01*
X0498631Y0702933D01*
X0498618Y0703028D01*
X0498608Y0703124D01*
X0498602Y0703221D01*
X0498600Y0703317D01*
X0498602Y0703400D01*
X0498607Y0703483D01*
X0498617Y0703565D01*
X0498630Y0703647D01*
X0498646Y0703729D01*
X0498667Y0703809D01*
X0498691Y0703889D01*
X0498718Y0703967D01*
X0498749Y0704044D01*
X0498783Y0704120D01*
X0498821Y0704194D01*
X0498862Y0704266D01*
X0498906Y0704336D01*
X0498953Y0704404D01*
X0499004Y0704470D01*
X0499057Y0704534D01*
X0499113Y0704595D01*
X0499172Y0704654D01*
X0499233Y0704710D01*
X0499297Y0704763D01*
X0499363Y0704814D01*
X0499431Y0704861D01*
X0499501Y0704905D01*
X0499573Y0704946D01*
X0499647Y0704984D01*
X0499723Y0705018D01*
X0499800Y0705049D01*
X0499878Y0705076D01*
X0499958Y0705100D01*
X0500038Y0705121D01*
X0500120Y0705137D01*
X0500202Y0705150D01*
X0500284Y0705160D01*
X0500367Y0705165D01*
X0500450Y0705167D01*
D18*
X0599597Y0622000D02*
X0599599Y0622160D01*
X0599605Y0622319D01*
X0599615Y0622478D01*
X0599629Y0622638D01*
X0599647Y0622796D01*
X0599669Y0622954D01*
X0599694Y0623112D01*
X0599724Y0623269D01*
X0599758Y0623425D01*
X0599795Y0623580D01*
X0599836Y0623734D01*
X0599881Y0623887D01*
X0599930Y0624039D01*
X0599983Y0624190D01*
X0600040Y0624339D01*
X0600100Y0624487D01*
X0600164Y0624633D01*
X0600231Y0624778D01*
X0600302Y0624921D01*
X0600377Y0625062D01*
X0600455Y0625202D01*
X0600536Y0625339D01*
X0600621Y0625474D01*
X0600710Y0625607D01*
X0600801Y0625738D01*
X0600896Y0625866D01*
X0600994Y0625992D01*
X0601095Y0626116D01*
X0601199Y0626237D01*
X0601306Y0626355D01*
X0601416Y0626471D01*
X0601529Y0626584D01*
X0601645Y0626694D01*
X0601763Y0626801D01*
X0601884Y0626905D01*
X0602008Y0627006D01*
X0602134Y0627104D01*
X0602262Y0627199D01*
X0602393Y0627290D01*
X0602526Y0627379D01*
X0602661Y0627464D01*
X0602799Y0627545D01*
X0602938Y0627623D01*
X0603079Y0627698D01*
X0603222Y0627769D01*
X0603367Y0627836D01*
X0603513Y0627900D01*
X0603661Y0627960D01*
X0603810Y0628017D01*
X0603961Y0628070D01*
X0604113Y0628119D01*
X0604266Y0628164D01*
X0604420Y0628205D01*
X0604575Y0628242D01*
X0604731Y0628276D01*
X0604888Y0628306D01*
X0605046Y0628331D01*
X0605204Y0628353D01*
X0605362Y0628371D01*
X0605522Y0628385D01*
X0605681Y0628395D01*
X0605840Y0628401D01*
X0606000Y0628403D01*
X0606160Y0628401D01*
X0606319Y0628395D01*
X0606478Y0628385D01*
X0606638Y0628371D01*
X0606796Y0628353D01*
X0606954Y0628331D01*
X0607112Y0628306D01*
X0607269Y0628276D01*
X0607425Y0628242D01*
X0607580Y0628205D01*
X0607734Y0628164D01*
X0607887Y0628119D01*
X0608039Y0628070D01*
X0608190Y0628017D01*
X0608339Y0627960D01*
X0608487Y0627900D01*
X0608633Y0627836D01*
X0608778Y0627769D01*
X0608921Y0627698D01*
X0609062Y0627623D01*
X0609202Y0627545D01*
X0609339Y0627464D01*
X0609474Y0627379D01*
X0609607Y0627290D01*
X0609738Y0627199D01*
X0609866Y0627104D01*
X0609992Y0627006D01*
X0610116Y0626905D01*
X0610237Y0626801D01*
X0610355Y0626694D01*
X0610471Y0626584D01*
X0610584Y0626471D01*
X0610694Y0626355D01*
X0610801Y0626237D01*
X0610905Y0626116D01*
X0611006Y0625992D01*
X0611104Y0625866D01*
X0611199Y0625738D01*
X0611290Y0625607D01*
X0611379Y0625474D01*
X0611464Y0625339D01*
X0611545Y0625201D01*
X0611623Y0625062D01*
X0611698Y0624921D01*
X0611769Y0624778D01*
X0611836Y0624633D01*
X0611900Y0624487D01*
X0611960Y0624339D01*
X0612017Y0624190D01*
X0612070Y0624039D01*
X0612119Y0623887D01*
X0612164Y0623734D01*
X0612205Y0623580D01*
X0612242Y0623425D01*
X0612276Y0623269D01*
X0612306Y0623112D01*
X0612331Y0622954D01*
X0612353Y0622796D01*
X0612371Y0622638D01*
X0612385Y0622478D01*
X0612395Y0622319D01*
X0612401Y0622160D01*
X0612403Y0622000D01*
X0612401Y0621840D01*
X0612395Y0621681D01*
X0612385Y0621522D01*
X0612371Y0621362D01*
X0612353Y0621204D01*
X0612331Y0621046D01*
X0612306Y0620888D01*
X0612276Y0620731D01*
X0612242Y0620575D01*
X0612205Y0620420D01*
X0612164Y0620266D01*
X0612119Y0620113D01*
X0612070Y0619961D01*
X0612017Y0619810D01*
X0611960Y0619661D01*
X0611900Y0619513D01*
X0611836Y0619367D01*
X0611769Y0619222D01*
X0611698Y0619079D01*
X0611623Y0618938D01*
X0611545Y0618798D01*
X0611464Y0618661D01*
X0611379Y0618526D01*
X0611290Y0618393D01*
X0611199Y0618262D01*
X0611104Y0618134D01*
X0611006Y0618008D01*
X0610905Y0617884D01*
X0610801Y0617763D01*
X0610694Y0617645D01*
X0610584Y0617529D01*
X0610471Y0617416D01*
X0610355Y0617306D01*
X0610237Y0617199D01*
X0610116Y0617095D01*
X0609992Y0616994D01*
X0609866Y0616896D01*
X0609738Y0616801D01*
X0609607Y0616710D01*
X0609474Y0616621D01*
X0609339Y0616536D01*
X0609201Y0616455D01*
X0609062Y0616377D01*
X0608921Y0616302D01*
X0608778Y0616231D01*
X0608633Y0616164D01*
X0608487Y0616100D01*
X0608339Y0616040D01*
X0608190Y0615983D01*
X0608039Y0615930D01*
X0607887Y0615881D01*
X0607734Y0615836D01*
X0607580Y0615795D01*
X0607425Y0615758D01*
X0607269Y0615724D01*
X0607112Y0615694D01*
X0606954Y0615669D01*
X0606796Y0615647D01*
X0606638Y0615629D01*
X0606478Y0615615D01*
X0606319Y0615605D01*
X0606160Y0615599D01*
X0606000Y0615597D01*
X0605840Y0615599D01*
X0605681Y0615605D01*
X0605522Y0615615D01*
X0605362Y0615629D01*
X0605204Y0615647D01*
X0605046Y0615669D01*
X0604888Y0615694D01*
X0604731Y0615724D01*
X0604575Y0615758D01*
X0604420Y0615795D01*
X0604266Y0615836D01*
X0604113Y0615881D01*
X0603961Y0615930D01*
X0603810Y0615983D01*
X0603661Y0616040D01*
X0603513Y0616100D01*
X0603367Y0616164D01*
X0603222Y0616231D01*
X0603079Y0616302D01*
X0602938Y0616377D01*
X0602798Y0616455D01*
X0602661Y0616536D01*
X0602526Y0616621D01*
X0602393Y0616710D01*
X0602262Y0616801D01*
X0602134Y0616896D01*
X0602008Y0616994D01*
X0601884Y0617095D01*
X0601763Y0617199D01*
X0601645Y0617306D01*
X0601529Y0617416D01*
X0601416Y0617529D01*
X0601306Y0617645D01*
X0601199Y0617763D01*
X0601095Y0617884D01*
X0600994Y0618008D01*
X0600896Y0618134D01*
X0600801Y0618262D01*
X0600710Y0618393D01*
X0600621Y0618526D01*
X0600536Y0618661D01*
X0600455Y0618799D01*
X0600377Y0618938D01*
X0600302Y0619079D01*
X0600231Y0619222D01*
X0600164Y0619367D01*
X0600100Y0619513D01*
X0600040Y0619661D01*
X0599983Y0619810D01*
X0599930Y0619961D01*
X0599881Y0620113D01*
X0599836Y0620266D01*
X0599795Y0620420D01*
X0599758Y0620575D01*
X0599724Y0620731D01*
X0599694Y0620888D01*
X0599669Y0621046D01*
X0599647Y0621204D01*
X0599629Y0621362D01*
X0599615Y0621522D01*
X0599605Y0621681D01*
X0599599Y0621840D01*
X0599597Y0622000D01*
X0599597Y0809000D02*
X0599599Y0809160D01*
X0599605Y0809319D01*
X0599615Y0809478D01*
X0599629Y0809638D01*
X0599647Y0809796D01*
X0599669Y0809954D01*
X0599694Y0810112D01*
X0599724Y0810269D01*
X0599758Y0810425D01*
X0599795Y0810580D01*
X0599836Y0810734D01*
X0599881Y0810887D01*
X0599930Y0811039D01*
X0599983Y0811190D01*
X0600040Y0811339D01*
X0600100Y0811487D01*
X0600164Y0811633D01*
X0600231Y0811778D01*
X0600302Y0811921D01*
X0600377Y0812062D01*
X0600455Y0812202D01*
X0600536Y0812339D01*
X0600621Y0812474D01*
X0600710Y0812607D01*
X0600801Y0812738D01*
X0600896Y0812866D01*
X0600994Y0812992D01*
X0601095Y0813116D01*
X0601199Y0813237D01*
X0601306Y0813355D01*
X0601416Y0813471D01*
X0601529Y0813584D01*
X0601645Y0813694D01*
X0601763Y0813801D01*
X0601884Y0813905D01*
X0602008Y0814006D01*
X0602134Y0814104D01*
X0602262Y0814199D01*
X0602393Y0814290D01*
X0602526Y0814379D01*
X0602661Y0814464D01*
X0602799Y0814545D01*
X0602938Y0814623D01*
X0603079Y0814698D01*
X0603222Y0814769D01*
X0603367Y0814836D01*
X0603513Y0814900D01*
X0603661Y0814960D01*
X0603810Y0815017D01*
X0603961Y0815070D01*
X0604113Y0815119D01*
X0604266Y0815164D01*
X0604420Y0815205D01*
X0604575Y0815242D01*
X0604731Y0815276D01*
X0604888Y0815306D01*
X0605046Y0815331D01*
X0605204Y0815353D01*
X0605362Y0815371D01*
X0605522Y0815385D01*
X0605681Y0815395D01*
X0605840Y0815401D01*
X0606000Y0815403D01*
X0606160Y0815401D01*
X0606319Y0815395D01*
X0606478Y0815385D01*
X0606638Y0815371D01*
X0606796Y0815353D01*
X0606954Y0815331D01*
X0607112Y0815306D01*
X0607269Y0815276D01*
X0607425Y0815242D01*
X0607580Y0815205D01*
X0607734Y0815164D01*
X0607887Y0815119D01*
X0608039Y0815070D01*
X0608190Y0815017D01*
X0608339Y0814960D01*
X0608487Y0814900D01*
X0608633Y0814836D01*
X0608778Y0814769D01*
X0608921Y0814698D01*
X0609062Y0814623D01*
X0609202Y0814545D01*
X0609339Y0814464D01*
X0609474Y0814379D01*
X0609607Y0814290D01*
X0609738Y0814199D01*
X0609866Y0814104D01*
X0609992Y0814006D01*
X0610116Y0813905D01*
X0610237Y0813801D01*
X0610355Y0813694D01*
X0610471Y0813584D01*
X0610584Y0813471D01*
X0610694Y0813355D01*
X0610801Y0813237D01*
X0610905Y0813116D01*
X0611006Y0812992D01*
X0611104Y0812866D01*
X0611199Y0812738D01*
X0611290Y0812607D01*
X0611379Y0812474D01*
X0611464Y0812339D01*
X0611545Y0812201D01*
X0611623Y0812062D01*
X0611698Y0811921D01*
X0611769Y0811778D01*
X0611836Y0811633D01*
X0611900Y0811487D01*
X0611960Y0811339D01*
X0612017Y0811190D01*
X0612070Y0811039D01*
X0612119Y0810887D01*
X0612164Y0810734D01*
X0612205Y0810580D01*
X0612242Y0810425D01*
X0612276Y0810269D01*
X0612306Y0810112D01*
X0612331Y0809954D01*
X0612353Y0809796D01*
X0612371Y0809638D01*
X0612385Y0809478D01*
X0612395Y0809319D01*
X0612401Y0809160D01*
X0612403Y0809000D01*
X0612401Y0808840D01*
X0612395Y0808681D01*
X0612385Y0808522D01*
X0612371Y0808362D01*
X0612353Y0808204D01*
X0612331Y0808046D01*
X0612306Y0807888D01*
X0612276Y0807731D01*
X0612242Y0807575D01*
X0612205Y0807420D01*
X0612164Y0807266D01*
X0612119Y0807113D01*
X0612070Y0806961D01*
X0612017Y0806810D01*
X0611960Y0806661D01*
X0611900Y0806513D01*
X0611836Y0806367D01*
X0611769Y0806222D01*
X0611698Y0806079D01*
X0611623Y0805938D01*
X0611545Y0805798D01*
X0611464Y0805661D01*
X0611379Y0805526D01*
X0611290Y0805393D01*
X0611199Y0805262D01*
X0611104Y0805134D01*
X0611006Y0805008D01*
X0610905Y0804884D01*
X0610801Y0804763D01*
X0610694Y0804645D01*
X0610584Y0804529D01*
X0610471Y0804416D01*
X0610355Y0804306D01*
X0610237Y0804199D01*
X0610116Y0804095D01*
X0609992Y0803994D01*
X0609866Y0803896D01*
X0609738Y0803801D01*
X0609607Y0803710D01*
X0609474Y0803621D01*
X0609339Y0803536D01*
X0609201Y0803455D01*
X0609062Y0803377D01*
X0608921Y0803302D01*
X0608778Y0803231D01*
X0608633Y0803164D01*
X0608487Y0803100D01*
X0608339Y0803040D01*
X0608190Y0802983D01*
X0608039Y0802930D01*
X0607887Y0802881D01*
X0607734Y0802836D01*
X0607580Y0802795D01*
X0607425Y0802758D01*
X0607269Y0802724D01*
X0607112Y0802694D01*
X0606954Y0802669D01*
X0606796Y0802647D01*
X0606638Y0802629D01*
X0606478Y0802615D01*
X0606319Y0802605D01*
X0606160Y0802599D01*
X0606000Y0802597D01*
X0605840Y0802599D01*
X0605681Y0802605D01*
X0605522Y0802615D01*
X0605362Y0802629D01*
X0605204Y0802647D01*
X0605046Y0802669D01*
X0604888Y0802694D01*
X0604731Y0802724D01*
X0604575Y0802758D01*
X0604420Y0802795D01*
X0604266Y0802836D01*
X0604113Y0802881D01*
X0603961Y0802930D01*
X0603810Y0802983D01*
X0603661Y0803040D01*
X0603513Y0803100D01*
X0603367Y0803164D01*
X0603222Y0803231D01*
X0603079Y0803302D01*
X0602938Y0803377D01*
X0602798Y0803455D01*
X0602661Y0803536D01*
X0602526Y0803621D01*
X0602393Y0803710D01*
X0602262Y0803801D01*
X0602134Y0803896D01*
X0602008Y0803994D01*
X0601884Y0804095D01*
X0601763Y0804199D01*
X0601645Y0804306D01*
X0601529Y0804416D01*
X0601416Y0804529D01*
X0601306Y0804645D01*
X0601199Y0804763D01*
X0601095Y0804884D01*
X0600994Y0805008D01*
X0600896Y0805134D01*
X0600801Y0805262D01*
X0600710Y0805393D01*
X0600621Y0805526D01*
X0600536Y0805661D01*
X0600455Y0805799D01*
X0600377Y0805938D01*
X0600302Y0806079D01*
X0600231Y0806222D01*
X0600164Y0806367D01*
X0600100Y0806513D01*
X0600040Y0806661D01*
X0599983Y0806810D01*
X0599930Y0806961D01*
X0599881Y0807113D01*
X0599836Y0807266D01*
X0599795Y0807420D01*
X0599758Y0807575D01*
X0599724Y0807731D01*
X0599694Y0807888D01*
X0599669Y0808046D01*
X0599647Y0808204D01*
X0599629Y0808362D01*
X0599615Y0808522D01*
X0599605Y0808681D01*
X0599599Y0808840D01*
X0599597Y0809000D01*
X0374597Y0809000D02*
X0374599Y0809160D01*
X0374605Y0809319D01*
X0374615Y0809478D01*
X0374629Y0809638D01*
X0374647Y0809796D01*
X0374669Y0809954D01*
X0374694Y0810112D01*
X0374724Y0810269D01*
X0374758Y0810425D01*
X0374795Y0810580D01*
X0374836Y0810734D01*
X0374881Y0810887D01*
X0374930Y0811039D01*
X0374983Y0811190D01*
X0375040Y0811339D01*
X0375100Y0811487D01*
X0375164Y0811633D01*
X0375231Y0811778D01*
X0375302Y0811921D01*
X0375377Y0812062D01*
X0375455Y0812202D01*
X0375536Y0812339D01*
X0375621Y0812474D01*
X0375710Y0812607D01*
X0375801Y0812738D01*
X0375896Y0812866D01*
X0375994Y0812992D01*
X0376095Y0813116D01*
X0376199Y0813237D01*
X0376306Y0813355D01*
X0376416Y0813471D01*
X0376529Y0813584D01*
X0376645Y0813694D01*
X0376763Y0813801D01*
X0376884Y0813905D01*
X0377008Y0814006D01*
X0377134Y0814104D01*
X0377262Y0814199D01*
X0377393Y0814290D01*
X0377526Y0814379D01*
X0377661Y0814464D01*
X0377799Y0814545D01*
X0377938Y0814623D01*
X0378079Y0814698D01*
X0378222Y0814769D01*
X0378367Y0814836D01*
X0378513Y0814900D01*
X0378661Y0814960D01*
X0378810Y0815017D01*
X0378961Y0815070D01*
X0379113Y0815119D01*
X0379266Y0815164D01*
X0379420Y0815205D01*
X0379575Y0815242D01*
X0379731Y0815276D01*
X0379888Y0815306D01*
X0380046Y0815331D01*
X0380204Y0815353D01*
X0380362Y0815371D01*
X0380522Y0815385D01*
X0380681Y0815395D01*
X0380840Y0815401D01*
X0381000Y0815403D01*
X0381160Y0815401D01*
X0381319Y0815395D01*
X0381478Y0815385D01*
X0381638Y0815371D01*
X0381796Y0815353D01*
X0381954Y0815331D01*
X0382112Y0815306D01*
X0382269Y0815276D01*
X0382425Y0815242D01*
X0382580Y0815205D01*
X0382734Y0815164D01*
X0382887Y0815119D01*
X0383039Y0815070D01*
X0383190Y0815017D01*
X0383339Y0814960D01*
X0383487Y0814900D01*
X0383633Y0814836D01*
X0383778Y0814769D01*
X0383921Y0814698D01*
X0384062Y0814623D01*
X0384202Y0814545D01*
X0384339Y0814464D01*
X0384474Y0814379D01*
X0384607Y0814290D01*
X0384738Y0814199D01*
X0384866Y0814104D01*
X0384992Y0814006D01*
X0385116Y0813905D01*
X0385237Y0813801D01*
X0385355Y0813694D01*
X0385471Y0813584D01*
X0385584Y0813471D01*
X0385694Y0813355D01*
X0385801Y0813237D01*
X0385905Y0813116D01*
X0386006Y0812992D01*
X0386104Y0812866D01*
X0386199Y0812738D01*
X0386290Y0812607D01*
X0386379Y0812474D01*
X0386464Y0812339D01*
X0386545Y0812201D01*
X0386623Y0812062D01*
X0386698Y0811921D01*
X0386769Y0811778D01*
X0386836Y0811633D01*
X0386900Y0811487D01*
X0386960Y0811339D01*
X0387017Y0811190D01*
X0387070Y0811039D01*
X0387119Y0810887D01*
X0387164Y0810734D01*
X0387205Y0810580D01*
X0387242Y0810425D01*
X0387276Y0810269D01*
X0387306Y0810112D01*
X0387331Y0809954D01*
X0387353Y0809796D01*
X0387371Y0809638D01*
X0387385Y0809478D01*
X0387395Y0809319D01*
X0387401Y0809160D01*
X0387403Y0809000D01*
X0387401Y0808840D01*
X0387395Y0808681D01*
X0387385Y0808522D01*
X0387371Y0808362D01*
X0387353Y0808204D01*
X0387331Y0808046D01*
X0387306Y0807888D01*
X0387276Y0807731D01*
X0387242Y0807575D01*
X0387205Y0807420D01*
X0387164Y0807266D01*
X0387119Y0807113D01*
X0387070Y0806961D01*
X0387017Y0806810D01*
X0386960Y0806661D01*
X0386900Y0806513D01*
X0386836Y0806367D01*
X0386769Y0806222D01*
X0386698Y0806079D01*
X0386623Y0805938D01*
X0386545Y0805798D01*
X0386464Y0805661D01*
X0386379Y0805526D01*
X0386290Y0805393D01*
X0386199Y0805262D01*
X0386104Y0805134D01*
X0386006Y0805008D01*
X0385905Y0804884D01*
X0385801Y0804763D01*
X0385694Y0804645D01*
X0385584Y0804529D01*
X0385471Y0804416D01*
X0385355Y0804306D01*
X0385237Y0804199D01*
X0385116Y0804095D01*
X0384992Y0803994D01*
X0384866Y0803896D01*
X0384738Y0803801D01*
X0384607Y0803710D01*
X0384474Y0803621D01*
X0384339Y0803536D01*
X0384201Y0803455D01*
X0384062Y0803377D01*
X0383921Y0803302D01*
X0383778Y0803231D01*
X0383633Y0803164D01*
X0383487Y0803100D01*
X0383339Y0803040D01*
X0383190Y0802983D01*
X0383039Y0802930D01*
X0382887Y0802881D01*
X0382734Y0802836D01*
X0382580Y0802795D01*
X0382425Y0802758D01*
X0382269Y0802724D01*
X0382112Y0802694D01*
X0381954Y0802669D01*
X0381796Y0802647D01*
X0381638Y0802629D01*
X0381478Y0802615D01*
X0381319Y0802605D01*
X0381160Y0802599D01*
X0381000Y0802597D01*
X0380840Y0802599D01*
X0380681Y0802605D01*
X0380522Y0802615D01*
X0380362Y0802629D01*
X0380204Y0802647D01*
X0380046Y0802669D01*
X0379888Y0802694D01*
X0379731Y0802724D01*
X0379575Y0802758D01*
X0379420Y0802795D01*
X0379266Y0802836D01*
X0379113Y0802881D01*
X0378961Y0802930D01*
X0378810Y0802983D01*
X0378661Y0803040D01*
X0378513Y0803100D01*
X0378367Y0803164D01*
X0378222Y0803231D01*
X0378079Y0803302D01*
X0377938Y0803377D01*
X0377798Y0803455D01*
X0377661Y0803536D01*
X0377526Y0803621D01*
X0377393Y0803710D01*
X0377262Y0803801D01*
X0377134Y0803896D01*
X0377008Y0803994D01*
X0376884Y0804095D01*
X0376763Y0804199D01*
X0376645Y0804306D01*
X0376529Y0804416D01*
X0376416Y0804529D01*
X0376306Y0804645D01*
X0376199Y0804763D01*
X0376095Y0804884D01*
X0375994Y0805008D01*
X0375896Y0805134D01*
X0375801Y0805262D01*
X0375710Y0805393D01*
X0375621Y0805526D01*
X0375536Y0805661D01*
X0375455Y0805799D01*
X0375377Y0805938D01*
X0375302Y0806079D01*
X0375231Y0806222D01*
X0375164Y0806367D01*
X0375100Y0806513D01*
X0375040Y0806661D01*
X0374983Y0806810D01*
X0374930Y0806961D01*
X0374881Y0807113D01*
X0374836Y0807266D01*
X0374795Y0807420D01*
X0374758Y0807575D01*
X0374724Y0807731D01*
X0374694Y0807888D01*
X0374669Y0808046D01*
X0374647Y0808204D01*
X0374629Y0808362D01*
X0374615Y0808522D01*
X0374605Y0808681D01*
X0374599Y0808840D01*
X0374597Y0809000D01*
X0374597Y0622000D02*
X0374599Y0622160D01*
X0374605Y0622319D01*
X0374615Y0622478D01*
X0374629Y0622638D01*
X0374647Y0622796D01*
X0374669Y0622954D01*
X0374694Y0623112D01*
X0374724Y0623269D01*
X0374758Y0623425D01*
X0374795Y0623580D01*
X0374836Y0623734D01*
X0374881Y0623887D01*
X0374930Y0624039D01*
X0374983Y0624190D01*
X0375040Y0624339D01*
X0375100Y0624487D01*
X0375164Y0624633D01*
X0375231Y0624778D01*
X0375302Y0624921D01*
X0375377Y0625062D01*
X0375455Y0625202D01*
X0375536Y0625339D01*
X0375621Y0625474D01*
X0375710Y0625607D01*
X0375801Y0625738D01*
X0375896Y0625866D01*
X0375994Y0625992D01*
X0376095Y0626116D01*
X0376199Y0626237D01*
X0376306Y0626355D01*
X0376416Y0626471D01*
X0376529Y0626584D01*
X0376645Y0626694D01*
X0376763Y0626801D01*
X0376884Y0626905D01*
X0377008Y0627006D01*
X0377134Y0627104D01*
X0377262Y0627199D01*
X0377393Y0627290D01*
X0377526Y0627379D01*
X0377661Y0627464D01*
X0377799Y0627545D01*
X0377938Y0627623D01*
X0378079Y0627698D01*
X0378222Y0627769D01*
X0378367Y0627836D01*
X0378513Y0627900D01*
X0378661Y0627960D01*
X0378810Y0628017D01*
X0378961Y0628070D01*
X0379113Y0628119D01*
X0379266Y0628164D01*
X0379420Y0628205D01*
X0379575Y0628242D01*
X0379731Y0628276D01*
X0379888Y0628306D01*
X0380046Y0628331D01*
X0380204Y0628353D01*
X0380362Y0628371D01*
X0380522Y0628385D01*
X0380681Y0628395D01*
X0380840Y0628401D01*
X0381000Y0628403D01*
X0381160Y0628401D01*
X0381319Y0628395D01*
X0381478Y0628385D01*
X0381638Y0628371D01*
X0381796Y0628353D01*
X0381954Y0628331D01*
X0382112Y0628306D01*
X0382269Y0628276D01*
X0382425Y0628242D01*
X0382580Y0628205D01*
X0382734Y0628164D01*
X0382887Y0628119D01*
X0383039Y0628070D01*
X0383190Y0628017D01*
X0383339Y0627960D01*
X0383487Y0627900D01*
X0383633Y0627836D01*
X0383778Y0627769D01*
X0383921Y0627698D01*
X0384062Y0627623D01*
X0384202Y0627545D01*
X0384339Y0627464D01*
X0384474Y0627379D01*
X0384607Y0627290D01*
X0384738Y0627199D01*
X0384866Y0627104D01*
X0384992Y0627006D01*
X0385116Y0626905D01*
X0385237Y0626801D01*
X0385355Y0626694D01*
X0385471Y0626584D01*
X0385584Y0626471D01*
X0385694Y0626355D01*
X0385801Y0626237D01*
X0385905Y0626116D01*
X0386006Y0625992D01*
X0386104Y0625866D01*
X0386199Y0625738D01*
X0386290Y0625607D01*
X0386379Y0625474D01*
X0386464Y0625339D01*
X0386545Y0625201D01*
X0386623Y0625062D01*
X0386698Y0624921D01*
X0386769Y0624778D01*
X0386836Y0624633D01*
X0386900Y0624487D01*
X0386960Y0624339D01*
X0387017Y0624190D01*
X0387070Y0624039D01*
X0387119Y0623887D01*
X0387164Y0623734D01*
X0387205Y0623580D01*
X0387242Y0623425D01*
X0387276Y0623269D01*
X0387306Y0623112D01*
X0387331Y0622954D01*
X0387353Y0622796D01*
X0387371Y0622638D01*
X0387385Y0622478D01*
X0387395Y0622319D01*
X0387401Y0622160D01*
X0387403Y0622000D01*
X0387401Y0621840D01*
X0387395Y0621681D01*
X0387385Y0621522D01*
X0387371Y0621362D01*
X0387353Y0621204D01*
X0387331Y0621046D01*
X0387306Y0620888D01*
X0387276Y0620731D01*
X0387242Y0620575D01*
X0387205Y0620420D01*
X0387164Y0620266D01*
X0387119Y0620113D01*
X0387070Y0619961D01*
X0387017Y0619810D01*
X0386960Y0619661D01*
X0386900Y0619513D01*
X0386836Y0619367D01*
X0386769Y0619222D01*
X0386698Y0619079D01*
X0386623Y0618938D01*
X0386545Y0618798D01*
X0386464Y0618661D01*
X0386379Y0618526D01*
X0386290Y0618393D01*
X0386199Y0618262D01*
X0386104Y0618134D01*
X0386006Y0618008D01*
X0385905Y0617884D01*
X0385801Y0617763D01*
X0385694Y0617645D01*
X0385584Y0617529D01*
X0385471Y0617416D01*
X0385355Y0617306D01*
X0385237Y0617199D01*
X0385116Y0617095D01*
X0384992Y0616994D01*
X0384866Y0616896D01*
X0384738Y0616801D01*
X0384607Y0616710D01*
X0384474Y0616621D01*
X0384339Y0616536D01*
X0384201Y0616455D01*
X0384062Y0616377D01*
X0383921Y0616302D01*
X0383778Y0616231D01*
X0383633Y0616164D01*
X0383487Y0616100D01*
X0383339Y0616040D01*
X0383190Y0615983D01*
X0383039Y0615930D01*
X0382887Y0615881D01*
X0382734Y0615836D01*
X0382580Y0615795D01*
X0382425Y0615758D01*
X0382269Y0615724D01*
X0382112Y0615694D01*
X0381954Y0615669D01*
X0381796Y0615647D01*
X0381638Y0615629D01*
X0381478Y0615615D01*
X0381319Y0615605D01*
X0381160Y0615599D01*
X0381000Y0615597D01*
X0380840Y0615599D01*
X0380681Y0615605D01*
X0380522Y0615615D01*
X0380362Y0615629D01*
X0380204Y0615647D01*
X0380046Y0615669D01*
X0379888Y0615694D01*
X0379731Y0615724D01*
X0379575Y0615758D01*
X0379420Y0615795D01*
X0379266Y0615836D01*
X0379113Y0615881D01*
X0378961Y0615930D01*
X0378810Y0615983D01*
X0378661Y0616040D01*
X0378513Y0616100D01*
X0378367Y0616164D01*
X0378222Y0616231D01*
X0378079Y0616302D01*
X0377938Y0616377D01*
X0377798Y0616455D01*
X0377661Y0616536D01*
X0377526Y0616621D01*
X0377393Y0616710D01*
X0377262Y0616801D01*
X0377134Y0616896D01*
X0377008Y0616994D01*
X0376884Y0617095D01*
X0376763Y0617199D01*
X0376645Y0617306D01*
X0376529Y0617416D01*
X0376416Y0617529D01*
X0376306Y0617645D01*
X0376199Y0617763D01*
X0376095Y0617884D01*
X0375994Y0618008D01*
X0375896Y0618134D01*
X0375801Y0618262D01*
X0375710Y0618393D01*
X0375621Y0618526D01*
X0375536Y0618661D01*
X0375455Y0618799D01*
X0375377Y0618938D01*
X0375302Y0619079D01*
X0375231Y0619222D01*
X0375164Y0619367D01*
X0375100Y0619513D01*
X0375040Y0619661D01*
X0374983Y0619810D01*
X0374930Y0619961D01*
X0374881Y0620113D01*
X0374836Y0620266D01*
X0374795Y0620420D01*
X0374758Y0620575D01*
X0374724Y0620731D01*
X0374694Y0620888D01*
X0374669Y0621046D01*
X0374647Y0621204D01*
X0374629Y0621362D01*
X0374615Y0621522D01*
X0374605Y0621681D01*
X0374599Y0621840D01*
X0374597Y0622000D01*
M02*
