%
M48
M72
T01C0.0138
T02C0.0276
T03C0.0295
T04C0.0315
T05C0.0354
T06C0.0394
%
T01
X42800Y60500
X43800Y61000
X44800Y63400
X44700Y63900
X45800Y63900
X45900Y64300
X46800Y65100
X47300Y64400
X47800Y65600
X47700Y67700
X47000Y67700
X47309Y68400
X46100Y67700
X45100Y67900
X44400Y68400
X43600Y67900
X43800Y65600
X41000Y66400
X40600Y65100
X40100Y64700
X39800Y64300
X40800Y63900
X36000Y66000
X35500Y66500
X33400Y66000
X32600Y65100
X35500Y61200
X36000Y60594
X44100Y70691
X44700Y71000
X44700Y72100
X44700Y72600
X44100Y74100
X43000Y72200
X40600Y72600
X40100Y71891
X39900Y72200
X33500Y72200
X25700Y70691
X24900Y71000
X24100Y65100
X47700Y74100
X48300Y75400
X48000Y75800
X50600Y73000
X50900Y72600
X51300Y72300
X51700Y72000
X52000Y71700
X52500Y69700
X54300Y71700
X54700Y72000
X55200Y72300
X55600Y72600
X56300Y73000
X59700Y75800
X63900Y69700
X62600Y65900
X56300Y60500
X55300Y61000
X55200Y63400
X54700Y63900
X54300Y65100
X52800Y64159
X51800Y65900
X50800Y64400
X49800Y64800
X49300Y67600
X52500Y75400
T02
X24105Y67366
T03
X24892Y67366
X25680Y67366
X26467Y67366
X27254Y67366
X28042Y67366
X28829Y67366
X29617Y67366
X30404Y67366
X31191Y67366
X31191Y76028
X30404Y76028
X29617Y76028
X28829Y76028
X28042Y76028
X27254Y76028
X26467Y76028
X25680Y76028
X24892Y76028
X24105Y76028
T04
X39800Y81000
X40800Y81000
X41800Y81000
X42800Y81000
X43800Y81000
X44800Y81000
X45800Y81000
X46800Y81000
X47800Y81000
X48800Y81000
X49800Y81000
X50800Y81000
X51800Y81000
X52800Y81000
X53800Y81000
X54800Y81000
X55800Y81000
X56800Y81000
X57800Y81000
X58800Y81000
X58800Y62300
X57800Y62300
X56800Y62300
X55800Y62300
X54800Y62300
X53800Y62300
X52800Y62300
X51800Y62300
X50800Y62300
X49800Y62300
X48800Y62300
X47800Y62300
X46800Y62300
X45800Y62300
X44800Y62300
X43800Y62300
X42800Y62300
X41800Y62300
X40800Y62300
X39800Y62300
T05
X33516Y61578
X33516Y60594
T06
X33520Y67714
X33520Y69486
X36080Y69486
X36080Y67714
M30
