G75*
%MOIN*%
%OFA0B0*%
%FSLAX25Y25*%
%IPPOS*%
%LPD*%
%AMOC8*
5,1,8,0,0,1.08239X$1,22.5*
%
%ADD10R,0.07898X0.07099*%
%ADD11R,0.10800X0.05800*%
%ADD12R,0.07099X0.07898*%
%ADD13C,0.06343*%
%ADD14R,0.07099X0.07887*%
%ADD15C,0.06737*%
%ADD16R,0.02800X0.06600*%
%ADD17R,0.06600X0.02800*%
%ADD18R,0.07900X0.06300*%
%ADD19R,0.07887X0.07099*%
%ADD20C,0.05950*%
%ADD21R,0.07800X0.07800*%
%ADD22R,0.05800X0.05800*%
%ADD23C,0.05800*%
%ADD24C,0.03778*%
D10*
X0626000Y0707402D03*
X0626000Y0718598D03*
D11*
X0656157Y0718614D03*
X0656157Y0710307D03*
D12*
X0458598Y0664000D03*
X0447402Y0664000D03*
X0427598Y0684000D03*
X0416402Y0684000D03*
X0345598Y0651000D03*
X0334402Y0651000D03*
X0335402Y0635000D03*
X0346598Y0635000D03*
D13*
X0340701Y0615780D02*
X0335157Y0615780D01*
X0335157Y0605937D02*
X0340701Y0605937D01*
D14*
X0416488Y0664000D03*
X0427512Y0664000D03*
D15*
X0363764Y0677142D02*
X0357827Y0677142D01*
X0357827Y0694858D02*
X0363764Y0694858D01*
X0338173Y0694858D02*
X0332236Y0694858D01*
X0332236Y0677142D02*
X0338173Y0677142D01*
D16*
X0464000Y0698800D03*
X0467100Y0698800D03*
X0470300Y0698800D03*
X0473400Y0698800D03*
X0476600Y0698800D03*
X0479700Y0698800D03*
X0482900Y0698800D03*
X0486000Y0698800D03*
X0486000Y0731200D03*
X0482900Y0731200D03*
X0479700Y0731200D03*
X0476600Y0731200D03*
X0473400Y0731200D03*
X0470300Y0731200D03*
X0467100Y0731200D03*
X0464000Y0731200D03*
D17*
X0458800Y0726000D03*
X0458800Y0722900D03*
X0458800Y0719700D03*
X0458800Y0716600D03*
X0458800Y0713400D03*
X0458800Y0710300D03*
X0458800Y0707100D03*
X0458800Y0704000D03*
X0491200Y0704000D03*
X0491200Y0707100D03*
X0491200Y0710300D03*
X0491200Y0713400D03*
X0491200Y0716600D03*
X0491200Y0719700D03*
X0491200Y0722900D03*
X0491200Y0726000D03*
D18*
X0493350Y0668700D03*
X0493350Y0659300D03*
X0510650Y0659300D03*
X0510650Y0668700D03*
D19*
X0438000Y0721488D03*
X0438000Y0732512D03*
D20*
X0438000Y0807425D02*
X0438000Y0812575D01*
X0428000Y0812575D02*
X0428000Y0807425D01*
X0418000Y0807425D02*
X0418000Y0812575D01*
X0408000Y0812575D02*
X0408000Y0807425D01*
X0448000Y0807425D02*
X0448000Y0812575D01*
X0458000Y0812575D02*
X0458000Y0807425D01*
X0468000Y0807425D02*
X0468000Y0812575D01*
X0478000Y0812575D02*
X0478000Y0807425D01*
X0488000Y0807425D02*
X0488000Y0812575D01*
X0498000Y0812575D02*
X0498000Y0807425D01*
X0508000Y0807425D02*
X0508000Y0812575D01*
X0518000Y0812575D02*
X0518000Y0807425D01*
X0528000Y0807425D02*
X0528000Y0812575D01*
X0538000Y0812575D02*
X0538000Y0807425D01*
X0548000Y0807425D02*
X0548000Y0812575D01*
X0558000Y0812575D02*
X0558000Y0807425D01*
X0568000Y0807425D02*
X0568000Y0812575D01*
X0578000Y0812575D02*
X0578000Y0807425D01*
X0588000Y0807425D02*
X0588000Y0812575D01*
X0588000Y0625575D02*
X0588000Y0620425D01*
X0578000Y0620425D02*
X0578000Y0625575D01*
X0568000Y0625575D02*
X0568000Y0620425D01*
X0558000Y0620425D02*
X0558000Y0625575D01*
X0548000Y0625575D02*
X0548000Y0620425D01*
X0538000Y0620425D02*
X0538000Y0625575D01*
X0528000Y0625575D02*
X0528000Y0620425D01*
X0518000Y0620425D02*
X0518000Y0625575D01*
X0508000Y0625575D02*
X0508000Y0620425D01*
X0498000Y0620425D02*
X0498000Y0625575D01*
X0488000Y0625575D02*
X0488000Y0620425D01*
X0478000Y0620425D02*
X0478000Y0625575D01*
X0468000Y0625575D02*
X0468000Y0620425D01*
X0458000Y0620425D02*
X0458000Y0625575D01*
X0448000Y0625575D02*
X0448000Y0620425D01*
X0438000Y0620425D02*
X0438000Y0625575D01*
X0428000Y0625575D02*
X0428000Y0620425D01*
X0418000Y0620425D02*
X0418000Y0625575D01*
X0408000Y0625575D02*
X0408000Y0620425D01*
X0398000Y0620425D02*
X0398000Y0625575D01*
D21*
X0398000Y0810000D03*
D22*
X0241047Y0673661D03*
D23*
X0248921Y0673661D03*
X0256795Y0673661D03*
X0264669Y0673661D03*
X0272543Y0673661D03*
X0280417Y0673661D03*
X0288291Y0673661D03*
X0296165Y0673661D03*
X0304039Y0673661D03*
X0311913Y0673661D03*
X0311913Y0760276D03*
X0304039Y0760276D03*
X0296165Y0760276D03*
X0288291Y0760276D03*
X0280417Y0760276D03*
X0272543Y0760276D03*
X0264669Y0760276D03*
X0256795Y0760276D03*
X0248921Y0760276D03*
X0241047Y0760276D03*
D24*
X0428000Y0605000D03*
X0438000Y0610000D03*
X0448000Y0634000D03*
X0447000Y0639000D03*
X0458000Y0639000D03*
X0459000Y0643000D03*
X0468000Y0651000D03*
X0473000Y0644000D03*
X0478000Y0656000D03*
X0477000Y0677000D03*
X0470000Y0677000D03*
X0473089Y0684000D03*
X0461000Y0677000D03*
X0451000Y0679000D03*
X0444000Y0684000D03*
X0436000Y0679000D03*
X0438000Y0656000D03*
X0410000Y0664000D03*
X0406000Y0651000D03*
X0401000Y0647000D03*
X0398000Y0643000D03*
X0408000Y0639000D03*
X0360000Y0660000D03*
X0355000Y0665000D03*
X0334000Y0660000D03*
X0326000Y0651000D03*
X0355000Y0612000D03*
X0360000Y0605937D03*
X0441000Y0706911D03*
X0447000Y0710000D03*
X0447000Y0721000D03*
X0447000Y0726000D03*
X0441000Y0741000D03*
X0430000Y0722000D03*
X0406000Y0726000D03*
X0401000Y0718911D03*
X0399000Y0722000D03*
X0335000Y0722000D03*
X0257000Y0706911D03*
X0249000Y0710000D03*
X0241000Y0651000D03*
X0477000Y0741000D03*
X0483000Y0754000D03*
X0480000Y0758000D03*
X0506000Y0730000D03*
X0509000Y0726000D03*
X0513000Y0723000D03*
X0517000Y0720000D03*
X0520000Y0717000D03*
X0525000Y0697000D03*
X0543000Y0717000D03*
X0547000Y0720000D03*
X0552000Y0723000D03*
X0556000Y0726000D03*
X0563000Y0730000D03*
X0597000Y0758000D03*
X0639000Y0697000D03*
X0626000Y0659000D03*
X0563000Y0605000D03*
X0553000Y0610000D03*
X0552000Y0634000D03*
X0547000Y0639000D03*
X0543000Y0651000D03*
X0528000Y0641589D03*
X0518000Y0659000D03*
X0508000Y0644000D03*
X0498000Y0648000D03*
X0493000Y0676000D03*
X0525000Y0754000D03*
M02*
